G75*
%MOIN*%
%OFA0B0*%
%FSLAX25Y25*%
%IPPOS*%
%LPD*%
%AMOC8*
5,1,8,0,0,1.08239X$1,22.5*
%
%ADD10C,0.00400*%
%ADD11R,0.07093X0.07093*%
%ADD12R,0.15361X0.15361*%
%ADD13R,0.07290X0.03156*%
%ADD14R,0.05518X0.04731*%
%ADD15R,0.04731X0.05518*%
%ADD16C,0.06306*%
%ADD17R,0.02762X0.04731*%
%ADD18C,0.04362*%
%ADD19C,0.12211*%
%ADD20OC8,0.07487*%
%ADD21R,0.06896X0.02172*%
%ADD22R,0.06699X0.16935*%
%ADD23R,0.07487X0.06699*%
%ADD24R,0.04731X0.04731*%
%ADD25C,0.09061*%
%ADD26OC8,0.09061*%
%ADD27R,0.03550X0.02762*%
%ADD28R,0.02959X0.07093*%
%ADD29R,0.03156X0.07290*%
%ADD30R,0.03550X0.04337*%
%ADD31C,0.08077*%
%ADD32C,0.27959*%
D10*
X0036217Y0030429D02*
X0394485Y0030429D01*
X0394675Y0030431D01*
X0394865Y0030438D01*
X0395055Y0030450D01*
X0395245Y0030466D01*
X0395434Y0030486D01*
X0395623Y0030512D01*
X0395811Y0030541D01*
X0395998Y0030576D01*
X0396184Y0030615D01*
X0396369Y0030658D01*
X0396554Y0030706D01*
X0396737Y0030758D01*
X0396918Y0030814D01*
X0397098Y0030875D01*
X0397277Y0030941D01*
X0397454Y0031010D01*
X0397630Y0031084D01*
X0397803Y0031162D01*
X0397975Y0031245D01*
X0398144Y0031331D01*
X0398312Y0031421D01*
X0398477Y0031516D01*
X0398640Y0031614D01*
X0398800Y0031717D01*
X0398958Y0031823D01*
X0399113Y0031933D01*
X0399266Y0032046D01*
X0399416Y0032164D01*
X0399562Y0032285D01*
X0399706Y0032409D01*
X0399847Y0032537D01*
X0399985Y0032668D01*
X0400120Y0032803D01*
X0400251Y0032941D01*
X0400379Y0033082D01*
X0400503Y0033226D01*
X0400624Y0033372D01*
X0400742Y0033522D01*
X0400855Y0033675D01*
X0400965Y0033830D01*
X0401071Y0033988D01*
X0401174Y0034148D01*
X0401272Y0034311D01*
X0401367Y0034476D01*
X0401457Y0034644D01*
X0401543Y0034813D01*
X0401626Y0034985D01*
X0401704Y0035158D01*
X0401778Y0035334D01*
X0401847Y0035511D01*
X0401913Y0035690D01*
X0401974Y0035870D01*
X0402030Y0036051D01*
X0402082Y0036234D01*
X0402130Y0036419D01*
X0402173Y0036604D01*
X0402212Y0036790D01*
X0402247Y0036977D01*
X0402276Y0037165D01*
X0402302Y0037354D01*
X0402322Y0037543D01*
X0402338Y0037733D01*
X0402350Y0037923D01*
X0402357Y0038113D01*
X0402359Y0038303D01*
X0402359Y0317831D01*
X0402357Y0318021D01*
X0402350Y0318211D01*
X0402338Y0318401D01*
X0402322Y0318591D01*
X0402302Y0318780D01*
X0402276Y0318969D01*
X0402247Y0319157D01*
X0402212Y0319344D01*
X0402173Y0319530D01*
X0402130Y0319715D01*
X0402082Y0319900D01*
X0402030Y0320083D01*
X0401974Y0320264D01*
X0401913Y0320444D01*
X0401847Y0320623D01*
X0401778Y0320800D01*
X0401704Y0320976D01*
X0401626Y0321149D01*
X0401543Y0321321D01*
X0401457Y0321490D01*
X0401367Y0321658D01*
X0401272Y0321823D01*
X0401174Y0321986D01*
X0401071Y0322146D01*
X0400965Y0322304D01*
X0400855Y0322459D01*
X0400742Y0322612D01*
X0400624Y0322762D01*
X0400503Y0322908D01*
X0400379Y0323052D01*
X0400251Y0323193D01*
X0400120Y0323331D01*
X0399985Y0323466D01*
X0399847Y0323597D01*
X0399706Y0323725D01*
X0399562Y0323849D01*
X0399416Y0323970D01*
X0399266Y0324088D01*
X0399113Y0324201D01*
X0398958Y0324311D01*
X0398800Y0324417D01*
X0398640Y0324520D01*
X0398477Y0324618D01*
X0398312Y0324713D01*
X0398144Y0324803D01*
X0397975Y0324889D01*
X0397803Y0324972D01*
X0397630Y0325050D01*
X0397454Y0325124D01*
X0397277Y0325193D01*
X0397098Y0325259D01*
X0396918Y0325320D01*
X0396737Y0325376D01*
X0396554Y0325428D01*
X0396369Y0325476D01*
X0396184Y0325519D01*
X0395998Y0325558D01*
X0395811Y0325593D01*
X0395623Y0325622D01*
X0395434Y0325648D01*
X0395245Y0325668D01*
X0395055Y0325684D01*
X0394865Y0325696D01*
X0394675Y0325703D01*
X0394485Y0325705D01*
X0036217Y0325705D01*
X0036027Y0325703D01*
X0035837Y0325696D01*
X0035647Y0325684D01*
X0035457Y0325668D01*
X0035268Y0325648D01*
X0035079Y0325622D01*
X0034891Y0325593D01*
X0034704Y0325558D01*
X0034518Y0325519D01*
X0034333Y0325476D01*
X0034148Y0325428D01*
X0033965Y0325376D01*
X0033784Y0325320D01*
X0033604Y0325259D01*
X0033425Y0325193D01*
X0033248Y0325124D01*
X0033072Y0325050D01*
X0032899Y0324972D01*
X0032727Y0324889D01*
X0032558Y0324803D01*
X0032390Y0324713D01*
X0032225Y0324618D01*
X0032062Y0324520D01*
X0031902Y0324417D01*
X0031744Y0324311D01*
X0031589Y0324201D01*
X0031436Y0324088D01*
X0031286Y0323970D01*
X0031140Y0323849D01*
X0030996Y0323725D01*
X0030855Y0323597D01*
X0030717Y0323466D01*
X0030582Y0323331D01*
X0030451Y0323193D01*
X0030323Y0323052D01*
X0030199Y0322908D01*
X0030078Y0322762D01*
X0029960Y0322612D01*
X0029847Y0322459D01*
X0029737Y0322304D01*
X0029631Y0322146D01*
X0029528Y0321986D01*
X0029430Y0321823D01*
X0029335Y0321658D01*
X0029245Y0321490D01*
X0029159Y0321321D01*
X0029076Y0321149D01*
X0028998Y0320976D01*
X0028924Y0320800D01*
X0028855Y0320623D01*
X0028789Y0320444D01*
X0028728Y0320264D01*
X0028672Y0320083D01*
X0028620Y0319900D01*
X0028572Y0319715D01*
X0028529Y0319530D01*
X0028490Y0319344D01*
X0028455Y0319157D01*
X0028426Y0318969D01*
X0028400Y0318780D01*
X0028380Y0318591D01*
X0028364Y0318401D01*
X0028352Y0318211D01*
X0028345Y0318021D01*
X0028343Y0317831D01*
X0028343Y0038303D01*
X0028345Y0038113D01*
X0028352Y0037923D01*
X0028364Y0037733D01*
X0028380Y0037543D01*
X0028400Y0037354D01*
X0028426Y0037165D01*
X0028455Y0036977D01*
X0028490Y0036790D01*
X0028529Y0036604D01*
X0028572Y0036419D01*
X0028620Y0036234D01*
X0028672Y0036051D01*
X0028728Y0035870D01*
X0028789Y0035690D01*
X0028855Y0035511D01*
X0028924Y0035334D01*
X0028998Y0035158D01*
X0029076Y0034985D01*
X0029159Y0034813D01*
X0029245Y0034644D01*
X0029335Y0034476D01*
X0029430Y0034311D01*
X0029528Y0034148D01*
X0029631Y0033988D01*
X0029737Y0033830D01*
X0029847Y0033675D01*
X0029960Y0033522D01*
X0030078Y0033372D01*
X0030199Y0033226D01*
X0030323Y0033082D01*
X0030451Y0032941D01*
X0030582Y0032803D01*
X0030717Y0032668D01*
X0030855Y0032537D01*
X0030996Y0032409D01*
X0031140Y0032285D01*
X0031286Y0032164D01*
X0031436Y0032046D01*
X0031589Y0031933D01*
X0031744Y0031823D01*
X0031902Y0031717D01*
X0032062Y0031614D01*
X0032225Y0031516D01*
X0032390Y0031421D01*
X0032558Y0031331D01*
X0032727Y0031245D01*
X0032899Y0031162D01*
X0033072Y0031084D01*
X0033248Y0031010D01*
X0033425Y0030941D01*
X0033604Y0030875D01*
X0033784Y0030814D01*
X0033965Y0030758D01*
X0034148Y0030706D01*
X0034333Y0030658D01*
X0034518Y0030615D01*
X0034704Y0030576D01*
X0034891Y0030541D01*
X0035079Y0030512D01*
X0035268Y0030486D01*
X0035457Y0030466D01*
X0035647Y0030450D01*
X0035837Y0030438D01*
X0036027Y0030431D01*
X0036217Y0030429D01*
D11*
X0057871Y0179839D03*
X0067713Y0179839D03*
X0077556Y0179839D03*
X0077556Y0236925D03*
X0057871Y0236925D03*
D12*
X0045272Y0209366D03*
X0090154Y0209366D03*
D13*
X0122221Y0232929D03*
X0122221Y0237929D03*
X0122221Y0242929D03*
X0122221Y0247929D03*
X0122221Y0252929D03*
X0122221Y0257929D03*
X0122221Y0262929D03*
X0122221Y0267929D03*
X0110715Y0267929D03*
X0110715Y0272929D03*
X0110715Y0262929D03*
X0110715Y0257929D03*
X0110715Y0252929D03*
X0110715Y0247929D03*
X0110715Y0242929D03*
X0088471Y0242929D03*
X0088471Y0247929D03*
X0088471Y0252929D03*
X0088471Y0257929D03*
X0088471Y0262929D03*
X0088471Y0267929D03*
X0088471Y0272929D03*
X0144465Y0267929D03*
X0144465Y0262929D03*
X0144465Y0257929D03*
X0144465Y0252929D03*
X0144465Y0247929D03*
X0144465Y0242929D03*
X0144465Y0237929D03*
X0144465Y0232929D03*
X0108215Y0146679D03*
X0108215Y0141679D03*
X0108215Y0136679D03*
X0108215Y0131679D03*
X0108215Y0126679D03*
X0108215Y0121679D03*
X0108215Y0116679D03*
X0085971Y0116679D03*
X0085971Y0121679D03*
X0085971Y0126679D03*
X0085971Y0131679D03*
X0085971Y0136679D03*
X0085971Y0141679D03*
X0085971Y0146679D03*
X0183471Y0132929D03*
X0183471Y0127929D03*
X0183471Y0122929D03*
X0183471Y0117929D03*
X0183471Y0112929D03*
X0183471Y0107929D03*
X0183471Y0102929D03*
X0183471Y0097929D03*
X0205715Y0097929D03*
X0205715Y0102929D03*
X0205715Y0107929D03*
X0205715Y0112929D03*
X0205715Y0117929D03*
X0205715Y0122929D03*
X0205715Y0127929D03*
X0205715Y0132929D03*
X0264721Y0229179D03*
X0264721Y0234179D03*
X0264721Y0239179D03*
X0264721Y0244179D03*
X0264721Y0249179D03*
X0264721Y0254179D03*
X0264721Y0259179D03*
X0286965Y0259179D03*
X0286965Y0254179D03*
X0286965Y0249179D03*
X0286965Y0244179D03*
X0286965Y0239179D03*
X0286965Y0234179D03*
X0286965Y0229179D03*
D14*
X0246257Y0238766D03*
X0246257Y0245065D03*
X0188343Y0247280D03*
X0188343Y0253579D03*
X0179593Y0253579D03*
X0179593Y0247280D03*
X0165843Y0247280D03*
X0165843Y0253579D03*
X0157093Y0253579D03*
X0157093Y0247280D03*
X0157093Y0236079D03*
X0157093Y0229780D03*
X0165843Y0229780D03*
X0165843Y0236079D03*
X0179593Y0236079D03*
X0179593Y0229780D03*
X0188343Y0229780D03*
X0188343Y0236079D03*
X0188343Y0264780D03*
X0188343Y0271079D03*
X0179593Y0271079D03*
X0179593Y0264780D03*
X0165843Y0264780D03*
X0165843Y0271079D03*
X0157093Y0271079D03*
X0157093Y0264780D03*
X0078343Y0267329D03*
X0078343Y0261030D03*
X0069593Y0261030D03*
X0069593Y0267329D03*
X0060843Y0267329D03*
X0060843Y0261030D03*
X0060843Y0252329D03*
X0060843Y0246030D03*
X0069593Y0246030D03*
X0069593Y0252329D03*
X0078343Y0252329D03*
X0078343Y0246030D03*
X0078343Y0276030D03*
X0078343Y0282329D03*
X0069593Y0282329D03*
X0069593Y0276030D03*
X0060843Y0276030D03*
X0060843Y0282329D03*
X0064593Y0149829D03*
X0064593Y0143530D03*
X0064593Y0136079D03*
X0064593Y0129780D03*
X0064593Y0122329D03*
X0064593Y0116030D03*
X0054593Y0116030D03*
X0054593Y0122329D03*
X0054593Y0129780D03*
X0054593Y0136079D03*
X0054593Y0143530D03*
X0054593Y0149829D03*
X0075843Y0149829D03*
X0075843Y0143530D03*
X0075843Y0136079D03*
X0075843Y0129780D03*
X0075843Y0122329D03*
X0075843Y0116030D03*
X0095843Y0111079D03*
X0095843Y0104780D03*
X0155843Y0126030D03*
X0155843Y0132329D03*
X0164593Y0132329D03*
X0164593Y0126030D03*
X0224790Y0114642D03*
X0224790Y0108343D03*
X0259209Y0138717D03*
X0259209Y0145016D03*
X0269209Y0145016D03*
X0269209Y0138717D03*
X0279209Y0138717D03*
X0279209Y0145016D03*
X0274593Y0153530D03*
X0274593Y0159829D03*
X0264593Y0159829D03*
X0264593Y0153530D03*
X0284593Y0153530D03*
X0284593Y0159829D03*
X0289209Y0145016D03*
X0289209Y0138717D03*
X0369593Y0134829D03*
X0369593Y0128530D03*
X0328314Y0213274D03*
X0328314Y0219573D03*
X0328343Y0227280D03*
X0328343Y0233579D03*
X0362093Y0227329D03*
X0362093Y0221030D03*
D15*
X0374938Y0210459D03*
X0381237Y0210459D03*
X0381237Y0235459D03*
X0374938Y0235459D03*
X0356493Y0237929D03*
X0350194Y0237929D03*
X0342743Y0237929D03*
X0336444Y0237929D03*
X0336444Y0245429D03*
X0342743Y0245429D03*
X0360194Y0256679D03*
X0366493Y0256679D03*
X0322743Y0256679D03*
X0316444Y0256679D03*
X0286877Y0266315D03*
X0280577Y0266315D03*
X0270243Y0285429D03*
X0263944Y0285429D03*
X0240243Y0285429D03*
X0233944Y0285429D03*
X0220243Y0285429D03*
X0213944Y0285429D03*
X0190243Y0285429D03*
X0183944Y0285429D03*
X0160243Y0285429D03*
X0153944Y0285429D03*
X0140243Y0285429D03*
X0133944Y0285429D03*
X0120243Y0285429D03*
X0113944Y0285429D03*
X0102743Y0280429D03*
X0096444Y0280429D03*
X0123944Y0199179D03*
X0130243Y0199179D03*
X0197694Y0212929D03*
X0203993Y0212929D03*
X0226444Y0149179D03*
X0232743Y0149179D03*
X0240194Y0149179D03*
X0246493Y0149179D03*
X0246444Y0120429D03*
X0252743Y0120429D03*
X0252743Y0111679D03*
X0246444Y0111679D03*
X0241493Y0069179D03*
X0235194Y0069179D03*
X0221493Y0069179D03*
X0215194Y0069179D03*
X0181493Y0069179D03*
X0175194Y0069179D03*
X0255194Y0069179D03*
X0261493Y0069179D03*
X0275194Y0069179D03*
X0281493Y0069179D03*
X0327694Y0062929D03*
X0333993Y0062929D03*
X0333993Y0092929D03*
X0327694Y0092929D03*
X0327694Y0101679D03*
X0333993Y0101679D03*
X0333993Y0110429D03*
X0327694Y0110429D03*
X0327694Y0119179D03*
X0333993Y0119179D03*
X0346444Y0119179D03*
X0352743Y0119179D03*
X0352743Y0110429D03*
X0346444Y0110429D03*
X0346444Y0101679D03*
X0352743Y0101679D03*
X0352743Y0092929D03*
X0346444Y0092929D03*
X0365194Y0092929D03*
X0371493Y0092929D03*
X0371493Y0101679D03*
X0365194Y0101679D03*
X0365194Y0110429D03*
X0371493Y0110429D03*
X0371493Y0119179D03*
X0365194Y0119179D03*
X0362694Y0159179D03*
X0368993Y0159179D03*
X0368993Y0167929D03*
X0362694Y0167929D03*
X0353993Y0167929D03*
X0347694Y0167929D03*
X0338993Y0167929D03*
X0332694Y0167929D03*
X0332694Y0159179D03*
X0338993Y0159179D03*
X0347694Y0159179D03*
X0353993Y0159179D03*
X0353993Y0176679D03*
X0347694Y0176679D03*
X0338993Y0176679D03*
X0332694Y0176679D03*
X0332694Y0185429D03*
X0338993Y0185429D03*
X0337438Y0206709D03*
X0343737Y0206709D03*
X0362694Y0176679D03*
X0368993Y0176679D03*
X0312743Y0297929D03*
X0306444Y0297929D03*
X0161493Y0140429D03*
X0155194Y0140429D03*
D16*
X0304593Y0307476D02*
X0304593Y0313382D01*
X0314593Y0313382D02*
X0314593Y0307476D01*
X0324593Y0307476D02*
X0324593Y0313382D01*
X0334593Y0313382D02*
X0334593Y0307476D01*
X0344593Y0307476D02*
X0344593Y0313382D01*
X0354593Y0313382D02*
X0354593Y0307476D01*
D17*
X0239583Y0119691D03*
X0235843Y0119691D03*
X0232103Y0119691D03*
X0232103Y0108667D03*
X0239583Y0108667D03*
D18*
X0238973Y0127267D02*
X0238973Y0131229D01*
X0233973Y0131229D02*
X0233973Y0127267D01*
X0243973Y0127267D02*
X0243973Y0131229D01*
X0248973Y0131229D02*
X0248973Y0127267D01*
X0253973Y0127267D02*
X0253973Y0131229D01*
X0258973Y0131229D02*
X0258973Y0127267D01*
X0263973Y0127267D02*
X0263973Y0131229D01*
X0268973Y0131229D02*
X0268973Y0127267D01*
X0273973Y0127267D02*
X0273973Y0131229D01*
X0278973Y0131229D02*
X0278973Y0127267D01*
X0283973Y0127267D02*
X0283973Y0131229D01*
X0288973Y0131229D02*
X0288973Y0127267D01*
X0293973Y0127267D02*
X0293973Y0131229D01*
D19*
X0110430Y0161138D02*
X0110430Y0172949D01*
X0110430Y0220193D02*
X0110430Y0232004D01*
D20*
X0313343Y0062929D03*
X0343343Y0062929D03*
D21*
X0337182Y0220429D03*
X0337182Y0222929D03*
X0337182Y0225429D03*
X0337182Y0227929D03*
X0354505Y0227929D03*
X0354505Y0225429D03*
X0354505Y0222929D03*
X0354505Y0220429D03*
D22*
X0369938Y0222929D03*
X0381749Y0222929D03*
D23*
X0319593Y0220941D03*
X0309593Y0220941D03*
X0309593Y0209917D03*
X0319593Y0209917D03*
D24*
X0302546Y0286709D03*
X0291129Y0286709D03*
X0144052Y0154179D03*
X0144288Y0145016D03*
X0132871Y0145016D03*
X0132635Y0154179D03*
D25*
X0316453Y0277929D03*
X0366483Y0277929D03*
D26*
X0352703Y0277929D03*
X0330233Y0277929D03*
D27*
X0335922Y0214179D03*
X0345764Y0214179D03*
D28*
X0223343Y0205498D03*
X0218343Y0205498D03*
X0213343Y0205498D03*
X0208343Y0205498D03*
X0203343Y0205498D03*
X0198343Y0205498D03*
X0193343Y0205498D03*
X0188343Y0205498D03*
X0183343Y0205498D03*
X0178343Y0205498D03*
X0173343Y0205498D03*
X0168343Y0205498D03*
X0163343Y0205498D03*
X0158343Y0205498D03*
X0158343Y0167860D03*
X0163343Y0167860D03*
X0168343Y0167860D03*
X0173343Y0167860D03*
X0178343Y0167860D03*
X0183343Y0167860D03*
X0188343Y0167860D03*
X0193343Y0167860D03*
X0198343Y0167860D03*
X0203343Y0167860D03*
X0208343Y0167860D03*
X0213343Y0167860D03*
X0218343Y0167860D03*
X0223343Y0167860D03*
D29*
X0223343Y0239307D03*
X0218343Y0239307D03*
X0213343Y0239307D03*
X0208343Y0239307D03*
X0228343Y0239307D03*
X0233343Y0239307D03*
X0238343Y0239307D03*
X0238343Y0261551D03*
X0233343Y0261551D03*
X0228343Y0261551D03*
X0223343Y0261551D03*
X0218343Y0261551D03*
X0213343Y0261551D03*
X0208343Y0261551D03*
X0332093Y0150301D03*
X0337093Y0150301D03*
X0342093Y0150301D03*
X0347093Y0150301D03*
X0352093Y0150301D03*
X0357093Y0150301D03*
X0362093Y0150301D03*
X0362093Y0128057D03*
X0357093Y0128057D03*
X0352093Y0128057D03*
X0347093Y0128057D03*
X0342093Y0128057D03*
X0337093Y0128057D03*
X0332093Y0128057D03*
D30*
X0148333Y0127742D03*
X0140853Y0127742D03*
X0144593Y0135616D03*
D31*
X0133215Y0104533D02*
X0133215Y0096856D01*
X0133215Y0056502D02*
X0133215Y0048825D01*
X0109593Y0048628D02*
X0109593Y0040951D01*
X0085971Y0048825D02*
X0085971Y0056502D01*
X0085971Y0096856D02*
X0085971Y0104533D01*
X0158343Y0050518D02*
X0158343Y0042841D01*
X0178343Y0042841D02*
X0178343Y0050518D01*
X0198343Y0050518D02*
X0198343Y0042841D01*
X0218343Y0042841D02*
X0218343Y0050518D01*
X0238343Y0050518D02*
X0238343Y0042841D01*
X0258343Y0042841D02*
X0258343Y0050518D01*
X0278343Y0050518D02*
X0278343Y0042841D01*
X0277093Y0304716D02*
X0277093Y0312393D01*
X0257093Y0312393D02*
X0257093Y0304716D01*
X0237093Y0304716D02*
X0237093Y0312393D01*
X0217093Y0312393D02*
X0217093Y0304716D01*
X0197093Y0304716D02*
X0197093Y0312393D01*
X0177093Y0312393D02*
X0177093Y0304716D01*
X0157093Y0304716D02*
X0157093Y0312393D01*
X0137093Y0312393D02*
X0137093Y0304716D01*
X0117093Y0304716D02*
X0117093Y0312393D01*
D32*
X0044091Y0309957D03*
X0044091Y0046177D03*
X0386611Y0046177D03*
X0386611Y0309957D03*
M02*
