G75*
%MOIN*%
%OFA0B0*%
%FSLAX25Y25*%
%IPPOS*%
%LPD*%
%AMOC8*
5,1,8,0,0,1.08239X$1,22.5*
%
%ADD10C,0.00400*%
%ADD11R,0.06693X0.06693*%
%ADD12R,0.14961X0.14961*%
%ADD13C,0.05906*%
%ADD14C,0.03962*%
%ADD15C,0.11811*%
%ADD16OC8,0.07087*%
%ADD17C,0.08661*%
%ADD18OC8,0.08661*%
%ADD19R,0.04331X0.05118*%
%ADD20C,0.07677*%
%ADD21C,0.00787*%
%ADD22C,0.27559*%
%ADD23C,0.03562*%
%ADD24C,0.03169*%
%ADD25C,0.02400*%
%ADD26C,0.02775*%
%ADD27C,0.01200*%
%ADD28C,0.07000*%
%ADD29C,0.01600*%
D10*
X0036217Y0030429D02*
X0394485Y0030429D01*
X0394675Y0030431D01*
X0394865Y0030438D01*
X0395055Y0030450D01*
X0395245Y0030466D01*
X0395434Y0030486D01*
X0395623Y0030512D01*
X0395811Y0030541D01*
X0395998Y0030576D01*
X0396184Y0030615D01*
X0396369Y0030658D01*
X0396554Y0030706D01*
X0396737Y0030758D01*
X0396918Y0030814D01*
X0397098Y0030875D01*
X0397277Y0030941D01*
X0397454Y0031010D01*
X0397630Y0031084D01*
X0397803Y0031162D01*
X0397975Y0031245D01*
X0398144Y0031331D01*
X0398312Y0031421D01*
X0398477Y0031516D01*
X0398640Y0031614D01*
X0398800Y0031717D01*
X0398958Y0031823D01*
X0399113Y0031933D01*
X0399266Y0032046D01*
X0399416Y0032164D01*
X0399562Y0032285D01*
X0399706Y0032409D01*
X0399847Y0032537D01*
X0399985Y0032668D01*
X0400120Y0032803D01*
X0400251Y0032941D01*
X0400379Y0033082D01*
X0400503Y0033226D01*
X0400624Y0033372D01*
X0400742Y0033522D01*
X0400855Y0033675D01*
X0400965Y0033830D01*
X0401071Y0033988D01*
X0401174Y0034148D01*
X0401272Y0034311D01*
X0401367Y0034476D01*
X0401457Y0034644D01*
X0401543Y0034813D01*
X0401626Y0034985D01*
X0401704Y0035158D01*
X0401778Y0035334D01*
X0401847Y0035511D01*
X0401913Y0035690D01*
X0401974Y0035870D01*
X0402030Y0036051D01*
X0402082Y0036234D01*
X0402130Y0036419D01*
X0402173Y0036604D01*
X0402212Y0036790D01*
X0402247Y0036977D01*
X0402276Y0037165D01*
X0402302Y0037354D01*
X0402322Y0037543D01*
X0402338Y0037733D01*
X0402350Y0037923D01*
X0402357Y0038113D01*
X0402359Y0038303D01*
X0402359Y0317831D01*
X0402357Y0318021D01*
X0402350Y0318211D01*
X0402338Y0318401D01*
X0402322Y0318591D01*
X0402302Y0318780D01*
X0402276Y0318969D01*
X0402247Y0319157D01*
X0402212Y0319344D01*
X0402173Y0319530D01*
X0402130Y0319715D01*
X0402082Y0319900D01*
X0402030Y0320083D01*
X0401974Y0320264D01*
X0401913Y0320444D01*
X0401847Y0320623D01*
X0401778Y0320800D01*
X0401704Y0320976D01*
X0401626Y0321149D01*
X0401543Y0321321D01*
X0401457Y0321490D01*
X0401367Y0321658D01*
X0401272Y0321823D01*
X0401174Y0321986D01*
X0401071Y0322146D01*
X0400965Y0322304D01*
X0400855Y0322459D01*
X0400742Y0322612D01*
X0400624Y0322762D01*
X0400503Y0322908D01*
X0400379Y0323052D01*
X0400251Y0323193D01*
X0400120Y0323331D01*
X0399985Y0323466D01*
X0399847Y0323597D01*
X0399706Y0323725D01*
X0399562Y0323849D01*
X0399416Y0323970D01*
X0399266Y0324088D01*
X0399113Y0324201D01*
X0398958Y0324311D01*
X0398800Y0324417D01*
X0398640Y0324520D01*
X0398477Y0324618D01*
X0398312Y0324713D01*
X0398144Y0324803D01*
X0397975Y0324889D01*
X0397803Y0324972D01*
X0397630Y0325050D01*
X0397454Y0325124D01*
X0397277Y0325193D01*
X0397098Y0325259D01*
X0396918Y0325320D01*
X0396737Y0325376D01*
X0396554Y0325428D01*
X0396369Y0325476D01*
X0396184Y0325519D01*
X0395998Y0325558D01*
X0395811Y0325593D01*
X0395623Y0325622D01*
X0395434Y0325648D01*
X0395245Y0325668D01*
X0395055Y0325684D01*
X0394865Y0325696D01*
X0394675Y0325703D01*
X0394485Y0325705D01*
X0036217Y0325705D01*
X0036027Y0325703D01*
X0035837Y0325696D01*
X0035647Y0325684D01*
X0035457Y0325668D01*
X0035268Y0325648D01*
X0035079Y0325622D01*
X0034891Y0325593D01*
X0034704Y0325558D01*
X0034518Y0325519D01*
X0034333Y0325476D01*
X0034148Y0325428D01*
X0033965Y0325376D01*
X0033784Y0325320D01*
X0033604Y0325259D01*
X0033425Y0325193D01*
X0033248Y0325124D01*
X0033072Y0325050D01*
X0032899Y0324972D01*
X0032727Y0324889D01*
X0032558Y0324803D01*
X0032390Y0324713D01*
X0032225Y0324618D01*
X0032062Y0324520D01*
X0031902Y0324417D01*
X0031744Y0324311D01*
X0031589Y0324201D01*
X0031436Y0324088D01*
X0031286Y0323970D01*
X0031140Y0323849D01*
X0030996Y0323725D01*
X0030855Y0323597D01*
X0030717Y0323466D01*
X0030582Y0323331D01*
X0030451Y0323193D01*
X0030323Y0323052D01*
X0030199Y0322908D01*
X0030078Y0322762D01*
X0029960Y0322612D01*
X0029847Y0322459D01*
X0029737Y0322304D01*
X0029631Y0322146D01*
X0029528Y0321986D01*
X0029430Y0321823D01*
X0029335Y0321658D01*
X0029245Y0321490D01*
X0029159Y0321321D01*
X0029076Y0321149D01*
X0028998Y0320976D01*
X0028924Y0320800D01*
X0028855Y0320623D01*
X0028789Y0320444D01*
X0028728Y0320264D01*
X0028672Y0320083D01*
X0028620Y0319900D01*
X0028572Y0319715D01*
X0028529Y0319530D01*
X0028490Y0319344D01*
X0028455Y0319157D01*
X0028426Y0318969D01*
X0028400Y0318780D01*
X0028380Y0318591D01*
X0028364Y0318401D01*
X0028352Y0318211D01*
X0028345Y0318021D01*
X0028343Y0317831D01*
X0028343Y0038303D01*
X0028345Y0038113D01*
X0028352Y0037923D01*
X0028364Y0037733D01*
X0028380Y0037543D01*
X0028400Y0037354D01*
X0028426Y0037165D01*
X0028455Y0036977D01*
X0028490Y0036790D01*
X0028529Y0036604D01*
X0028572Y0036419D01*
X0028620Y0036234D01*
X0028672Y0036051D01*
X0028728Y0035870D01*
X0028789Y0035690D01*
X0028855Y0035511D01*
X0028924Y0035334D01*
X0028998Y0035158D01*
X0029076Y0034985D01*
X0029159Y0034813D01*
X0029245Y0034644D01*
X0029335Y0034476D01*
X0029430Y0034311D01*
X0029528Y0034148D01*
X0029631Y0033988D01*
X0029737Y0033830D01*
X0029847Y0033675D01*
X0029960Y0033522D01*
X0030078Y0033372D01*
X0030199Y0033226D01*
X0030323Y0033082D01*
X0030451Y0032941D01*
X0030582Y0032803D01*
X0030717Y0032668D01*
X0030855Y0032537D01*
X0030996Y0032409D01*
X0031140Y0032285D01*
X0031286Y0032164D01*
X0031436Y0032046D01*
X0031589Y0031933D01*
X0031744Y0031823D01*
X0031902Y0031717D01*
X0032062Y0031614D01*
X0032225Y0031516D01*
X0032390Y0031421D01*
X0032558Y0031331D01*
X0032727Y0031245D01*
X0032899Y0031162D01*
X0033072Y0031084D01*
X0033248Y0031010D01*
X0033425Y0030941D01*
X0033604Y0030875D01*
X0033784Y0030814D01*
X0033965Y0030758D01*
X0034148Y0030706D01*
X0034333Y0030658D01*
X0034518Y0030615D01*
X0034704Y0030576D01*
X0034891Y0030541D01*
X0035079Y0030512D01*
X0035268Y0030486D01*
X0035457Y0030466D01*
X0035647Y0030450D01*
X0035837Y0030438D01*
X0036027Y0030431D01*
X0036217Y0030429D01*
D11*
X0057871Y0179839D03*
X0067713Y0179839D03*
X0077556Y0179839D03*
X0077556Y0236925D03*
X0057871Y0236925D03*
D12*
X0045272Y0209366D03*
X0090154Y0209366D03*
D13*
X0304593Y0307476D02*
X0304593Y0313382D01*
X0314593Y0313382D02*
X0314593Y0307476D01*
X0324593Y0307476D02*
X0324593Y0313382D01*
X0334593Y0313382D02*
X0334593Y0307476D01*
X0344593Y0307476D02*
X0344593Y0313382D01*
X0354593Y0313382D02*
X0354593Y0307476D01*
D14*
X0293973Y0131229D02*
X0293973Y0127267D01*
X0288973Y0127267D02*
X0288973Y0131229D01*
X0283973Y0131229D02*
X0283973Y0127267D01*
X0278973Y0127267D02*
X0278973Y0131229D01*
X0273973Y0131229D02*
X0273973Y0127267D01*
X0268973Y0127267D02*
X0268973Y0131229D01*
X0263973Y0131229D02*
X0263973Y0127267D01*
X0258973Y0127267D02*
X0258973Y0131229D01*
X0253973Y0131229D02*
X0253973Y0127267D01*
X0248973Y0127267D02*
X0248973Y0131229D01*
X0243973Y0131229D02*
X0243973Y0127267D01*
X0238973Y0127267D02*
X0238973Y0131229D01*
X0233973Y0131229D02*
X0233973Y0127267D01*
D15*
X0110430Y0161138D02*
X0110430Y0172949D01*
X0110430Y0220193D02*
X0110430Y0232004D01*
D16*
X0313343Y0062929D03*
X0343343Y0062929D03*
D17*
X0366483Y0277929D03*
X0316453Y0277929D03*
D18*
X0330233Y0277929D03*
X0352703Y0277929D03*
D19*
X0270243Y0284804D03*
X0263944Y0284804D03*
X0240243Y0284804D03*
X0233944Y0284804D03*
X0220243Y0284804D03*
X0213944Y0284804D03*
X0190243Y0284804D03*
X0183944Y0284804D03*
X0160243Y0284804D03*
X0153944Y0284804D03*
X0140243Y0284804D03*
X0133944Y0284804D03*
X0120243Y0284804D03*
X0113944Y0284804D03*
X0175194Y0069179D03*
X0181493Y0069179D03*
X0215194Y0069179D03*
X0221493Y0069179D03*
X0235194Y0069179D03*
X0241493Y0069179D03*
X0255194Y0069179D03*
X0261493Y0069179D03*
X0275194Y0069179D03*
X0281493Y0069179D03*
D20*
X0278343Y0050518D02*
X0278343Y0042841D01*
X0258343Y0042841D02*
X0258343Y0050518D01*
X0238343Y0050518D02*
X0238343Y0042841D01*
X0218343Y0042841D02*
X0218343Y0050518D01*
X0198343Y0050518D02*
X0198343Y0042841D01*
X0178343Y0042841D02*
X0178343Y0050518D01*
X0158343Y0050518D02*
X0158343Y0042841D01*
X0133215Y0048825D02*
X0133215Y0056502D01*
X0109593Y0048628D02*
X0109593Y0040951D01*
X0085971Y0048825D02*
X0085971Y0056502D01*
X0085971Y0096856D02*
X0085971Y0104533D01*
X0133215Y0104533D02*
X0133215Y0096856D01*
X0137093Y0304716D02*
X0137093Y0312393D01*
X0117093Y0312393D02*
X0117093Y0304716D01*
X0157093Y0304716D02*
X0157093Y0312393D01*
X0177093Y0312393D02*
X0177093Y0304716D01*
X0197093Y0304716D02*
X0197093Y0312393D01*
X0217093Y0312393D02*
X0217093Y0304716D01*
X0237093Y0304716D02*
X0237093Y0312393D01*
X0257093Y0312393D02*
X0257093Y0304716D01*
X0277093Y0304716D02*
X0277093Y0312393D01*
D21*
X0262525Y0312572D02*
X0300247Y0312572D01*
X0300247Y0313358D02*
X0262525Y0313358D01*
X0262525Y0313473D02*
X0261698Y0315470D01*
X0260608Y0316560D01*
X0301625Y0316560D01*
X0300908Y0315844D01*
X0300247Y0314246D01*
X0300247Y0306612D01*
X0300908Y0305014D01*
X0302131Y0303792D01*
X0302599Y0303598D01*
X0302599Y0302103D01*
X0303849Y0300853D01*
X0305017Y0299685D01*
X0314384Y0299685D01*
X0313918Y0298561D01*
X0313918Y0297298D01*
X0314402Y0296131D01*
X0315295Y0295238D01*
X0316462Y0294754D01*
X0317725Y0294754D01*
X0318892Y0295238D01*
X0318989Y0295335D01*
X0329769Y0295335D01*
X0331144Y0293960D01*
X0331874Y0293230D01*
X0332827Y0292835D01*
X0357697Y0292835D01*
X0357795Y0292738D01*
X0358962Y0292254D01*
X0360225Y0292254D01*
X0361392Y0292738D01*
X0362285Y0293631D01*
X0362768Y0294798D01*
X0362768Y0296061D01*
X0362285Y0297228D01*
X0361392Y0298121D01*
X0360225Y0298604D01*
X0358962Y0298604D01*
X0357795Y0298121D01*
X0357697Y0298023D01*
X0356256Y0298023D01*
X0360419Y0302185D01*
X0361587Y0303353D01*
X0361587Y0316255D01*
X0360419Y0317423D01*
X0353731Y0324111D01*
X0394485Y0324111D01*
X0395467Y0324034D01*
X0397336Y0323427D01*
X0398926Y0322272D01*
X0400081Y0320682D01*
X0400688Y0318813D01*
X0400765Y0317831D01*
X0400765Y0038303D01*
X0400688Y0037321D01*
X0400081Y0035452D01*
X0398926Y0033862D01*
X0397336Y0032707D01*
X0395467Y0032100D01*
X0394485Y0032023D01*
X0163648Y0032023D01*
X0164314Y0032689D01*
X0165386Y0035278D01*
X0165386Y0040555D01*
X0165725Y0041372D01*
X0165725Y0051986D01*
X0165145Y0053386D01*
X0171541Y0053386D01*
X0170961Y0051986D01*
X0170961Y0041372D01*
X0172085Y0038659D01*
X0174162Y0036582D01*
X0176875Y0035459D01*
X0179812Y0035459D01*
X0182525Y0036582D01*
X0184601Y0038659D01*
X0185725Y0041372D01*
X0185725Y0051986D01*
X0185145Y0053386D01*
X0189176Y0053386D01*
X0190961Y0051600D01*
X0190961Y0041372D01*
X0192085Y0038659D01*
X0194162Y0036582D01*
X0196875Y0035459D01*
X0199812Y0035459D01*
X0202525Y0036582D01*
X0204601Y0038659D01*
X0205725Y0041372D01*
X0205725Y0051986D01*
X0205386Y0052803D01*
X0205386Y0055580D01*
X0204810Y0056973D01*
X0205295Y0056488D01*
X0206462Y0056004D01*
X0207725Y0056004D01*
X0208892Y0056488D01*
X0209785Y0057381D01*
X0210268Y0058548D01*
X0210268Y0059811D01*
X0209785Y0060978D01*
X0209687Y0061075D01*
X0209687Y0064695D01*
X0209292Y0065648D01*
X0208190Y0066750D01*
X0209040Y0066398D01*
X0210146Y0066398D01*
X0211169Y0066821D01*
X0211533Y0067185D01*
X0211635Y0067185D01*
X0211635Y0066043D01*
X0212451Y0065226D01*
X0217936Y0065226D01*
X0218343Y0065633D01*
X0218750Y0065226D01*
X0224235Y0065226D01*
X0225052Y0066043D01*
X0225052Y0066497D01*
X0225290Y0066398D01*
X0226396Y0066398D01*
X0227419Y0066821D01*
X0228201Y0067604D01*
X0228624Y0068626D01*
X0228624Y0069732D01*
X0228201Y0070754D01*
X0227419Y0071537D01*
X0226396Y0071960D01*
X0225290Y0071960D01*
X0225052Y0071862D01*
X0225052Y0072315D01*
X0224235Y0073132D01*
X0218750Y0073132D01*
X0218343Y0072725D01*
X0217936Y0073132D01*
X0212451Y0073132D01*
X0211635Y0072315D01*
X0211635Y0071173D01*
X0211533Y0071173D01*
X0211169Y0071537D01*
X0210146Y0071960D01*
X0209040Y0071960D01*
X0208018Y0071537D01*
X0207235Y0070754D01*
X0206812Y0069732D01*
X0206812Y0068626D01*
X0207164Y0067776D01*
X0199687Y0075253D01*
X0199687Y0088445D01*
X0199292Y0089398D01*
X0193562Y0095128D01*
X0192609Y0095523D01*
X0185239Y0095523D01*
X0185142Y0095621D01*
X0183975Y0096104D01*
X0182712Y0096104D01*
X0181545Y0095621D01*
X0180652Y0094728D01*
X0180168Y0093561D01*
X0180168Y0092298D01*
X0180652Y0091131D01*
X0181545Y0090238D01*
X0182712Y0089754D01*
X0183975Y0089754D01*
X0185142Y0090238D01*
X0185239Y0090335D01*
X0191019Y0090335D01*
X0192246Y0089108D01*
X0191396Y0089460D01*
X0190290Y0089460D01*
X0189268Y0089037D01*
X0188904Y0088673D01*
X0185017Y0088673D01*
X0175017Y0078673D01*
X0173849Y0077505D01*
X0173849Y0073132D01*
X0172451Y0073132D01*
X0171635Y0072315D01*
X0171635Y0067472D01*
X0165011Y0067472D01*
X0140386Y0092097D01*
X0140386Y0094879D01*
X0140597Y0095388D01*
X0140597Y0106002D01*
X0139473Y0108715D01*
X0137397Y0110792D01*
X0134684Y0111915D01*
X0131747Y0111915D01*
X0129034Y0110792D01*
X0126957Y0108715D01*
X0125833Y0106002D01*
X0125833Y0095388D01*
X0126300Y0094262D01*
X0126300Y0087778D01*
X0127372Y0085189D01*
X0129353Y0083208D01*
X0155310Y0057251D01*
X0154162Y0056776D01*
X0152085Y0054699D01*
X0150961Y0051986D01*
X0150961Y0043722D01*
X0135092Y0043722D01*
X0136292Y0044220D01*
X0137820Y0045748D01*
X0138648Y0047744D01*
X0138648Y0057583D01*
X0137820Y0059579D01*
X0136292Y0061107D01*
X0134296Y0061934D01*
X0132135Y0061934D01*
X0130138Y0061107D01*
X0128610Y0059579D01*
X0127783Y0057583D01*
X0127783Y0054580D01*
X0126814Y0056919D01*
X0110655Y0073078D01*
X0110564Y0073297D01*
X0093014Y0090847D01*
X0093014Y0094571D01*
X0093353Y0095388D01*
X0093353Y0106002D01*
X0092229Y0108715D01*
X0090153Y0110792D01*
X0087439Y0111915D01*
X0084503Y0111915D01*
X0081790Y0110792D01*
X0079713Y0108715D01*
X0078589Y0106002D01*
X0078589Y0095388D01*
X0078928Y0094571D01*
X0078928Y0086528D01*
X0080000Y0083939D01*
X0098532Y0065408D01*
X0098622Y0065189D01*
X0100603Y0063208D01*
X0107896Y0055915D01*
X0105412Y0054886D01*
X0103335Y0052809D01*
X0102211Y0050096D01*
X0102211Y0039482D01*
X0103335Y0036769D01*
X0105412Y0034693D01*
X0108125Y0033569D01*
X0111062Y0033569D01*
X0113775Y0034693D01*
X0113964Y0034882D01*
X0114872Y0032689D01*
X0115539Y0032023D01*
X0036217Y0032023D01*
X0035235Y0032100D01*
X0033366Y0032707D01*
X0031776Y0033862D01*
X0030621Y0035452D01*
X0030014Y0037321D01*
X0029937Y0038303D01*
X0029937Y0317831D01*
X0030014Y0318813D01*
X0030621Y0320682D01*
X0031776Y0322272D01*
X0033366Y0323427D01*
X0035235Y0324034D01*
X0036217Y0324111D01*
X0208581Y0324111D01*
X0202517Y0318048D01*
X0201349Y0316880D01*
X0201349Y0315536D01*
X0200057Y0316828D01*
X0198134Y0317625D01*
X0196052Y0317625D01*
X0194129Y0316828D01*
X0192657Y0315357D01*
X0191861Y0313433D01*
X0191861Y0303675D01*
X0192657Y0301752D01*
X0194015Y0300394D01*
X0188519Y0294898D01*
X0181577Y0294898D01*
X0180624Y0294503D01*
X0179687Y0293566D01*
X0179687Y0300127D01*
X0180057Y0300280D01*
X0181529Y0301752D01*
X0182325Y0303675D01*
X0182325Y0313433D01*
X0181529Y0315357D01*
X0180057Y0316828D01*
X0178134Y0317625D01*
X0176052Y0317625D01*
X0174129Y0316828D01*
X0172657Y0315357D01*
X0171861Y0313433D01*
X0171861Y0303675D01*
X0172657Y0301752D01*
X0174129Y0300280D01*
X0174499Y0300127D01*
X0174499Y0294628D01*
X0164894Y0285023D01*
X0164499Y0284070D01*
X0164499Y0242753D01*
X0139374Y0217628D01*
X0138644Y0216898D01*
X0138437Y0216397D01*
X0138437Y0216855D01*
X0143042Y0221460D01*
X0143437Y0222413D01*
X0143437Y0224783D01*
X0143535Y0224881D01*
X0144018Y0226048D01*
X0144018Y0227311D01*
X0143535Y0228478D01*
X0142642Y0229371D01*
X0141475Y0229854D01*
X0140212Y0229854D01*
X0139045Y0229371D01*
X0138152Y0228478D01*
X0137668Y0227311D01*
X0137668Y0226048D01*
X0138152Y0224881D01*
X0138249Y0224783D01*
X0138249Y0224003D01*
X0134374Y0220128D01*
X0134374Y0220128D01*
X0133644Y0219398D01*
X0133249Y0218445D01*
X0133249Y0211503D01*
X0129100Y0207354D01*
X0128962Y0207354D01*
X0127795Y0206871D01*
X0126902Y0205978D01*
X0126418Y0204811D01*
X0126418Y0203548D01*
X0126902Y0202381D01*
X0127795Y0201488D01*
X0128962Y0201004D01*
X0130225Y0201004D01*
X0131392Y0201488D01*
X0132285Y0202381D01*
X0132768Y0203548D01*
X0132768Y0203686D01*
X0135843Y0206761D01*
X0140624Y0201980D01*
X0141577Y0201585D01*
X0162609Y0201585D01*
X0163562Y0201980D01*
X0164292Y0202710D01*
X0173168Y0211585D01*
X0175197Y0211585D01*
X0175295Y0211488D01*
X0176462Y0211004D01*
X0177725Y0211004D01*
X0178892Y0211488D01*
X0179785Y0212381D01*
X0180268Y0213548D01*
X0180268Y0214811D01*
X0179785Y0215978D01*
X0178892Y0216871D01*
X0177981Y0217248D01*
X0179087Y0218353D01*
X0179087Y0218353D01*
X0189169Y0228435D01*
X0190337Y0229603D01*
X0190337Y0264603D01*
X0205337Y0279603D01*
X0205337Y0291478D01*
X0210337Y0296478D01*
X0210337Y0312728D01*
X0212440Y0314831D01*
X0211861Y0313433D01*
X0211861Y0303675D01*
X0212657Y0301752D01*
X0214129Y0300280D01*
X0216052Y0299483D01*
X0218134Y0299483D01*
X0220057Y0300280D01*
X0221529Y0301752D01*
X0222325Y0303675D01*
X0222325Y0313433D01*
X0221529Y0315357D01*
X0220325Y0316560D01*
X0233861Y0316560D01*
X0232657Y0315357D01*
X0231861Y0313433D01*
X0231861Y0303675D01*
X0232657Y0301752D01*
X0234129Y0300280D01*
X0236052Y0299483D01*
X0238134Y0299483D01*
X0240057Y0300280D01*
X0241529Y0301752D01*
X0242325Y0303675D01*
X0242325Y0313433D01*
X0241529Y0315357D01*
X0240325Y0316560D01*
X0253579Y0316560D01*
X0252488Y0315470D01*
X0251661Y0313473D01*
X0251661Y0303635D01*
X0252488Y0301638D01*
X0254016Y0300110D01*
X0256013Y0299283D01*
X0258174Y0299283D01*
X0260170Y0300110D01*
X0261698Y0301638D01*
X0262525Y0303635D01*
X0262525Y0313473D01*
X0262248Y0314144D02*
X0300247Y0314144D01*
X0300530Y0314930D02*
X0261922Y0314930D01*
X0261453Y0315716D02*
X0300855Y0315716D01*
X0301566Y0316501D02*
X0260667Y0316501D01*
X0262525Y0311786D02*
X0300247Y0311786D01*
X0300247Y0311000D02*
X0262525Y0311000D01*
X0262525Y0310214D02*
X0300247Y0310214D01*
X0300247Y0309428D02*
X0262525Y0309428D01*
X0262525Y0308642D02*
X0300247Y0308642D01*
X0300247Y0307856D02*
X0262525Y0307856D01*
X0262525Y0307070D02*
X0300247Y0307070D01*
X0300382Y0306285D02*
X0262525Y0306285D01*
X0262525Y0305499D02*
X0300708Y0305499D01*
X0301210Y0304713D02*
X0262525Y0304713D01*
X0262525Y0303927D02*
X0301996Y0303927D01*
X0302599Y0303141D02*
X0262321Y0303141D01*
X0261995Y0302355D02*
X0302599Y0302355D01*
X0303134Y0301569D02*
X0261629Y0301569D01*
X0260843Y0300783D02*
X0303920Y0300783D01*
X0304706Y0299997D02*
X0259897Y0299997D01*
X0254289Y0299997D02*
X0239375Y0299997D01*
X0240560Y0300783D02*
X0253343Y0300783D01*
X0252557Y0301569D02*
X0241346Y0301569D01*
X0241779Y0302355D02*
X0252191Y0302355D01*
X0251866Y0303141D02*
X0242104Y0303141D01*
X0242325Y0303927D02*
X0251661Y0303927D01*
X0251661Y0304713D02*
X0242325Y0304713D01*
X0242325Y0305499D02*
X0251661Y0305499D01*
X0251661Y0306285D02*
X0242325Y0306285D01*
X0242325Y0307070D02*
X0251661Y0307070D01*
X0251661Y0307856D02*
X0242325Y0307856D01*
X0242325Y0308642D02*
X0251661Y0308642D01*
X0251661Y0309428D02*
X0242325Y0309428D01*
X0242325Y0310214D02*
X0251661Y0310214D01*
X0251661Y0311000D02*
X0242325Y0311000D01*
X0242325Y0311786D02*
X0251661Y0311786D01*
X0251661Y0312572D02*
X0242325Y0312572D01*
X0242325Y0313358D02*
X0251661Y0313358D01*
X0251939Y0314144D02*
X0242031Y0314144D01*
X0241706Y0314930D02*
X0252264Y0314930D01*
X0252734Y0315716D02*
X0241170Y0315716D01*
X0240384Y0316501D02*
X0253520Y0316501D01*
X0233802Y0316501D02*
X0220384Y0316501D01*
X0221170Y0315716D02*
X0233016Y0315716D01*
X0232481Y0314930D02*
X0221706Y0314930D01*
X0222031Y0314144D02*
X0232155Y0314144D01*
X0231861Y0313358D02*
X0222325Y0313358D01*
X0222325Y0312572D02*
X0231861Y0312572D01*
X0231861Y0311786D02*
X0222325Y0311786D01*
X0222325Y0311000D02*
X0231861Y0311000D01*
X0231861Y0310214D02*
X0222325Y0310214D01*
X0222325Y0309428D02*
X0231861Y0309428D01*
X0231861Y0308642D02*
X0222325Y0308642D01*
X0222325Y0307856D02*
X0231861Y0307856D01*
X0231861Y0307070D02*
X0222325Y0307070D01*
X0222325Y0306285D02*
X0231861Y0306285D01*
X0231861Y0305499D02*
X0222325Y0305499D01*
X0222325Y0304713D02*
X0231861Y0304713D01*
X0231861Y0303927D02*
X0222325Y0303927D01*
X0222104Y0303141D02*
X0232082Y0303141D01*
X0232408Y0302355D02*
X0221779Y0302355D01*
X0221346Y0301569D02*
X0232840Y0301569D01*
X0233626Y0300783D02*
X0220560Y0300783D01*
X0219375Y0299997D02*
X0234812Y0299997D01*
X0236686Y0288757D02*
X0231201Y0288757D01*
X0230385Y0287940D01*
X0230385Y0287228D01*
X0229521Y0287585D01*
X0228415Y0287585D01*
X0227393Y0287162D01*
X0226610Y0286379D01*
X0226187Y0285357D01*
X0226187Y0284251D01*
X0226610Y0283229D01*
X0227393Y0282446D01*
X0228415Y0282023D01*
X0229521Y0282023D01*
X0230385Y0282381D01*
X0230385Y0281668D01*
X0231201Y0280851D01*
X0236686Y0280851D01*
X0237503Y0281668D01*
X0237503Y0287940D01*
X0236686Y0288757D01*
X0237235Y0288209D02*
X0260653Y0288209D01*
X0260385Y0287940D02*
X0260385Y0287487D01*
X0260146Y0287585D01*
X0259040Y0287585D01*
X0258018Y0287162D01*
X0257235Y0286379D01*
X0256812Y0285357D01*
X0256812Y0284251D01*
X0257235Y0283229D01*
X0258018Y0282446D01*
X0259040Y0282023D01*
X0260146Y0282023D01*
X0260385Y0282122D01*
X0260385Y0281668D01*
X0261201Y0280851D01*
X0266686Y0280851D01*
X0267503Y0281668D01*
X0267503Y0287940D01*
X0266686Y0288757D01*
X0261201Y0288757D01*
X0260385Y0287940D01*
X0258648Y0287423D02*
X0237503Y0287423D01*
X0237503Y0286637D02*
X0257493Y0286637D01*
X0257016Y0285851D02*
X0237503Y0285851D01*
X0237503Y0285065D02*
X0256812Y0285065D01*
X0256812Y0284279D02*
X0237503Y0284279D01*
X0237503Y0283493D02*
X0257126Y0283493D01*
X0257757Y0282707D02*
X0237503Y0282707D01*
X0237503Y0281921D02*
X0260385Y0281921D01*
X0260917Y0281135D02*
X0236970Y0281135D01*
X0230917Y0281135D02*
X0216970Y0281135D01*
X0216686Y0280851D02*
X0217503Y0281668D01*
X0217503Y0287940D01*
X0216686Y0288757D01*
X0211201Y0288757D01*
X0210385Y0287940D01*
X0210385Y0287487D01*
X0210146Y0287585D01*
X0209040Y0287585D01*
X0208018Y0287162D01*
X0207235Y0286379D01*
X0206812Y0285357D01*
X0206812Y0284251D01*
X0207235Y0283229D01*
X0208018Y0282446D01*
X0209040Y0282023D01*
X0210146Y0282023D01*
X0210385Y0282122D01*
X0210385Y0281668D01*
X0211201Y0280851D01*
X0216686Y0280851D01*
X0217503Y0281921D02*
X0230385Y0281921D01*
X0227132Y0282707D02*
X0217503Y0282707D01*
X0217503Y0283493D02*
X0226501Y0283493D01*
X0226187Y0284279D02*
X0217503Y0284279D01*
X0217503Y0285065D02*
X0226187Y0285065D01*
X0226391Y0285851D02*
X0217503Y0285851D01*
X0217503Y0286637D02*
X0226868Y0286637D01*
X0228023Y0287423D02*
X0217503Y0287423D01*
X0217235Y0288209D02*
X0230653Y0288209D01*
X0230385Y0287423D02*
X0229914Y0287423D01*
X0214812Y0299997D02*
X0210337Y0299997D01*
X0210337Y0299211D02*
X0314188Y0299211D01*
X0313918Y0298425D02*
X0210337Y0298425D01*
X0210337Y0297640D02*
X0313918Y0297640D01*
X0314102Y0296854D02*
X0210337Y0296854D01*
X0209926Y0296068D02*
X0288874Y0296068D01*
X0288962Y0296104D02*
X0287795Y0295621D01*
X0286902Y0294728D01*
X0286418Y0293561D01*
X0286418Y0293422D01*
X0277850Y0284854D01*
X0277712Y0284854D01*
X0276545Y0284371D01*
X0275652Y0283478D01*
X0275168Y0282311D01*
X0275168Y0281048D01*
X0275652Y0279881D01*
X0276545Y0278988D01*
X0277712Y0278504D01*
X0278975Y0278504D01*
X0280142Y0278988D01*
X0281035Y0279881D01*
X0281518Y0281048D01*
X0281518Y0281186D01*
X0290086Y0289754D01*
X0290225Y0289754D01*
X0291392Y0290238D01*
X0292285Y0291131D01*
X0292768Y0292298D01*
X0292768Y0293561D01*
X0292285Y0294728D01*
X0291392Y0295621D01*
X0290225Y0296104D01*
X0288962Y0296104D01*
X0290312Y0296068D02*
X0314465Y0296068D01*
X0315251Y0295282D02*
X0291730Y0295282D01*
X0292381Y0294496D02*
X0330608Y0294496D01*
X0329822Y0295282D02*
X0318936Y0295282D01*
X0317517Y0303673D02*
X0316768Y0303673D01*
X0317055Y0303792D01*
X0318278Y0305014D01*
X0318940Y0306612D01*
X0318940Y0314246D01*
X0318278Y0315844D01*
X0317561Y0316560D01*
X0331625Y0316560D01*
X0330908Y0315844D01*
X0330247Y0314246D01*
X0330247Y0306612D01*
X0330908Y0305014D01*
X0331000Y0304923D01*
X0318767Y0304923D01*
X0317599Y0303755D01*
X0317517Y0303673D01*
X0317771Y0303927D02*
X0317190Y0303927D01*
X0317976Y0304713D02*
X0318557Y0304713D01*
X0318479Y0305499D02*
X0330708Y0305499D01*
X0330382Y0306285D02*
X0318804Y0306285D01*
X0318940Y0307070D02*
X0330247Y0307070D01*
X0330247Y0307856D02*
X0318940Y0307856D01*
X0318940Y0308642D02*
X0330247Y0308642D01*
X0330247Y0309428D02*
X0318940Y0309428D01*
X0318940Y0310214D02*
X0330247Y0310214D01*
X0330247Y0311000D02*
X0318940Y0311000D01*
X0318940Y0311786D02*
X0330247Y0311786D01*
X0330247Y0312572D02*
X0318940Y0312572D01*
X0318940Y0313358D02*
X0330247Y0313358D01*
X0330247Y0314144D02*
X0318940Y0314144D01*
X0318657Y0314930D02*
X0330530Y0314930D01*
X0330855Y0315716D02*
X0318331Y0315716D01*
X0317620Y0316501D02*
X0331566Y0316501D01*
X0331394Y0293710D02*
X0292706Y0293710D01*
X0292768Y0292924D02*
X0332613Y0292924D01*
X0321476Y0281285D02*
X0319809Y0282952D01*
X0317632Y0283854D01*
X0315275Y0283854D01*
X0313098Y0282952D01*
X0311431Y0281285D01*
X0310529Y0279108D01*
X0310529Y0276751D01*
X0311431Y0274573D01*
X0313098Y0272907D01*
X0315275Y0272005D01*
X0317632Y0272005D01*
X0319809Y0272907D01*
X0321476Y0274573D01*
X0322378Y0276751D01*
X0322378Y0279108D01*
X0321476Y0281285D01*
X0321538Y0281135D02*
X0361615Y0281135D01*
X0361630Y0281172D02*
X0360759Y0279068D01*
X0360759Y0276790D01*
X0361630Y0274687D01*
X0363240Y0273076D01*
X0365344Y0272205D01*
X0367622Y0272205D01*
X0369726Y0273076D01*
X0371336Y0274687D01*
X0372207Y0276790D01*
X0372207Y0279068D01*
X0371336Y0281172D01*
X0369726Y0282782D01*
X0367622Y0283654D01*
X0365344Y0283654D01*
X0363240Y0282782D01*
X0361630Y0281172D01*
X0361289Y0280349D02*
X0321863Y0280349D01*
X0322189Y0279564D02*
X0360964Y0279564D01*
X0360759Y0278778D02*
X0322378Y0278778D01*
X0322378Y0277992D02*
X0360759Y0277992D01*
X0360759Y0277206D02*
X0322378Y0277206D01*
X0322241Y0276420D02*
X0360912Y0276420D01*
X0361238Y0275634D02*
X0321915Y0275634D01*
X0321590Y0274848D02*
X0361563Y0274848D01*
X0362254Y0274062D02*
X0320965Y0274062D01*
X0320179Y0273276D02*
X0363040Y0273276D01*
X0364655Y0272490D02*
X0318804Y0272490D01*
X0314103Y0272490D02*
X0198224Y0272490D01*
X0197438Y0271704D02*
X0400765Y0271704D01*
X0400765Y0270918D02*
X0196652Y0270918D01*
X0195866Y0270133D02*
X0400765Y0270133D01*
X0400765Y0269347D02*
X0195080Y0269347D01*
X0194294Y0268561D02*
X0400765Y0268561D01*
X0400765Y0267775D02*
X0193508Y0267775D01*
X0192722Y0266989D02*
X0400765Y0266989D01*
X0400765Y0266203D02*
X0191937Y0266203D01*
X0191151Y0265417D02*
X0400765Y0265417D01*
X0400765Y0264631D02*
X0190365Y0264631D01*
X0190337Y0263845D02*
X0400765Y0263845D01*
X0400765Y0263059D02*
X0190337Y0263059D01*
X0190337Y0262273D02*
X0400765Y0262273D01*
X0400765Y0261488D02*
X0190337Y0261488D01*
X0190337Y0260702D02*
X0400765Y0260702D01*
X0400765Y0259916D02*
X0190337Y0259916D01*
X0190337Y0259130D02*
X0400765Y0259130D01*
X0400765Y0258344D02*
X0190337Y0258344D01*
X0190337Y0257558D02*
X0400765Y0257558D01*
X0400765Y0256772D02*
X0190337Y0256772D01*
X0190337Y0255986D02*
X0400765Y0255986D01*
X0400765Y0255200D02*
X0190337Y0255200D01*
X0190337Y0254414D02*
X0400765Y0254414D01*
X0400765Y0253628D02*
X0190337Y0253628D01*
X0190337Y0252842D02*
X0400765Y0252842D01*
X0400765Y0252057D02*
X0190337Y0252057D01*
X0190337Y0251271D02*
X0400765Y0251271D01*
X0400765Y0250485D02*
X0190337Y0250485D01*
X0190337Y0249699D02*
X0400765Y0249699D01*
X0400765Y0248913D02*
X0190337Y0248913D01*
X0190337Y0248127D02*
X0400765Y0248127D01*
X0400765Y0247341D02*
X0190337Y0247341D01*
X0190337Y0246555D02*
X0400765Y0246555D01*
X0400765Y0245769D02*
X0190337Y0245769D01*
X0190337Y0244983D02*
X0400765Y0244983D01*
X0400765Y0244197D02*
X0190337Y0244197D01*
X0190337Y0243412D02*
X0400765Y0243412D01*
X0400765Y0242626D02*
X0190337Y0242626D01*
X0190337Y0241840D02*
X0250264Y0241840D01*
X0250295Y0241871D02*
X0249402Y0240978D01*
X0248918Y0239811D01*
X0248918Y0238548D01*
X0249402Y0237381D01*
X0250295Y0236488D01*
X0251462Y0236004D01*
X0252725Y0236004D01*
X0253892Y0236488D01*
X0253989Y0236585D01*
X0256019Y0236585D01*
X0278918Y0213686D01*
X0278918Y0213548D01*
X0279402Y0212381D01*
X0280295Y0211488D01*
X0281462Y0211004D01*
X0282725Y0211004D01*
X0283892Y0211488D01*
X0284785Y0212381D01*
X0285268Y0213548D01*
X0285268Y0214811D01*
X0284785Y0215978D01*
X0283892Y0216871D01*
X0282725Y0217354D01*
X0282586Y0217354D01*
X0258562Y0241378D01*
X0257609Y0241773D01*
X0253989Y0241773D01*
X0253892Y0241871D01*
X0252725Y0242354D01*
X0251462Y0242354D01*
X0250295Y0241871D01*
X0249478Y0241054D02*
X0190337Y0241054D01*
X0190337Y0240268D02*
X0249108Y0240268D01*
X0248918Y0239482D02*
X0190337Y0239482D01*
X0190337Y0238696D02*
X0248918Y0238696D01*
X0249182Y0237910D02*
X0190337Y0237910D01*
X0190337Y0237124D02*
X0249658Y0237124D01*
X0250655Y0236338D02*
X0190337Y0236338D01*
X0190337Y0235552D02*
X0257052Y0235552D01*
X0257838Y0234766D02*
X0190337Y0234766D01*
X0190337Y0233981D02*
X0258624Y0233981D01*
X0259410Y0233195D02*
X0190337Y0233195D01*
X0190337Y0232409D02*
X0260196Y0232409D01*
X0260981Y0231623D02*
X0190337Y0231623D01*
X0190337Y0230837D02*
X0261767Y0230837D01*
X0262553Y0230051D02*
X0190337Y0230051D01*
X0189999Y0229265D02*
X0263339Y0229265D01*
X0264125Y0228479D02*
X0189213Y0228479D01*
X0189169Y0228435D02*
X0189169Y0228435D01*
X0188427Y0227693D02*
X0264911Y0227693D01*
X0265697Y0226907D02*
X0232774Y0226907D01*
X0232646Y0226960D02*
X0231540Y0226960D01*
X0230518Y0226537D01*
X0229735Y0225754D01*
X0229312Y0224732D01*
X0229312Y0224218D01*
X0225017Y0219923D01*
X0220283Y0219923D01*
X0219919Y0220287D01*
X0218896Y0220710D01*
X0217790Y0220710D01*
X0216768Y0220287D01*
X0215985Y0219504D01*
X0215562Y0218482D01*
X0215562Y0217376D01*
X0215985Y0216354D01*
X0216768Y0215571D01*
X0217790Y0215148D01*
X0218896Y0215148D01*
X0219919Y0215571D01*
X0220283Y0215935D01*
X0226349Y0215935D01*
X0226349Y0212368D01*
X0225985Y0212004D01*
X0225562Y0210982D01*
X0225562Y0209876D01*
X0225985Y0208854D01*
X0226768Y0208071D01*
X0227790Y0207648D01*
X0228896Y0207648D01*
X0229919Y0208071D01*
X0230701Y0208854D01*
X0231124Y0209876D01*
X0231124Y0210982D01*
X0230701Y0212004D01*
X0230337Y0212368D01*
X0230337Y0214603D01*
X0235882Y0220148D01*
X0236396Y0220148D01*
X0237419Y0220571D01*
X0238201Y0221354D01*
X0238624Y0222376D01*
X0238624Y0223482D01*
X0238201Y0224504D01*
X0237419Y0225287D01*
X0236396Y0225710D01*
X0235290Y0225710D01*
X0234589Y0225420D01*
X0234451Y0225754D01*
X0233669Y0226537D01*
X0232646Y0226960D01*
X0231412Y0226907D02*
X0187641Y0226907D01*
X0186855Y0226121D02*
X0230102Y0226121D01*
X0229562Y0225336D02*
X0186069Y0225336D01*
X0185283Y0224550D02*
X0229312Y0224550D01*
X0228858Y0223764D02*
X0184497Y0223764D01*
X0183711Y0222978D02*
X0228072Y0222978D01*
X0227286Y0222192D02*
X0182925Y0222192D01*
X0182140Y0221406D02*
X0226501Y0221406D01*
X0225715Y0220620D02*
X0219114Y0220620D01*
X0217572Y0220620D02*
X0181354Y0220620D01*
X0180568Y0219834D02*
X0216315Y0219834D01*
X0215796Y0219048D02*
X0179782Y0219048D01*
X0178996Y0218262D02*
X0215562Y0218262D01*
X0215562Y0217476D02*
X0178210Y0217476D01*
X0179072Y0216690D02*
X0215846Y0216690D01*
X0216435Y0215905D02*
X0179815Y0215905D01*
X0180140Y0215119D02*
X0226349Y0215119D01*
X0226349Y0215905D02*
X0220252Y0215905D01*
X0226349Y0214333D02*
X0180268Y0214333D01*
X0180268Y0213547D02*
X0226349Y0213547D01*
X0226349Y0212761D02*
X0179942Y0212761D01*
X0179379Y0211975D02*
X0225973Y0211975D01*
X0225648Y0211189D02*
X0178171Y0211189D01*
X0176016Y0211189D02*
X0172771Y0211189D01*
X0171985Y0210403D02*
X0225562Y0210403D01*
X0225669Y0209617D02*
X0171199Y0209617D01*
X0170413Y0208831D02*
X0226008Y0208831D01*
X0226831Y0208045D02*
X0169628Y0208045D01*
X0168842Y0207260D02*
X0400765Y0207260D01*
X0400765Y0208045D02*
X0229856Y0208045D01*
X0230678Y0208831D02*
X0400765Y0208831D01*
X0400765Y0209617D02*
X0231017Y0209617D01*
X0231124Y0210403D02*
X0400765Y0210403D01*
X0400765Y0211189D02*
X0283171Y0211189D01*
X0284379Y0211975D02*
X0400765Y0211975D01*
X0400765Y0212761D02*
X0284942Y0212761D01*
X0285268Y0213547D02*
X0400765Y0213547D01*
X0400765Y0214333D02*
X0285268Y0214333D01*
X0285140Y0215119D02*
X0400765Y0215119D01*
X0400765Y0215905D02*
X0284815Y0215905D01*
X0284072Y0216690D02*
X0400765Y0216690D01*
X0400765Y0217476D02*
X0282464Y0217476D01*
X0281678Y0218262D02*
X0400765Y0218262D01*
X0400765Y0219048D02*
X0280892Y0219048D01*
X0280106Y0219834D02*
X0400765Y0219834D01*
X0400765Y0220620D02*
X0279320Y0220620D01*
X0278534Y0221406D02*
X0400765Y0221406D01*
X0400765Y0222192D02*
X0277748Y0222192D01*
X0276963Y0222978D02*
X0400765Y0222978D01*
X0400765Y0223764D02*
X0276177Y0223764D01*
X0275391Y0224550D02*
X0400765Y0224550D01*
X0400765Y0225336D02*
X0274605Y0225336D01*
X0273819Y0226121D02*
X0400765Y0226121D01*
X0400765Y0226907D02*
X0273033Y0226907D01*
X0272247Y0227693D02*
X0400765Y0227693D01*
X0400765Y0228479D02*
X0271461Y0228479D01*
X0270675Y0229265D02*
X0400765Y0229265D01*
X0400765Y0230051D02*
X0269889Y0230051D01*
X0269103Y0230837D02*
X0400765Y0230837D01*
X0400765Y0231623D02*
X0268318Y0231623D01*
X0267532Y0232409D02*
X0400765Y0232409D01*
X0400765Y0233195D02*
X0266746Y0233195D01*
X0265960Y0233981D02*
X0400765Y0233981D01*
X0400765Y0234766D02*
X0265174Y0234766D01*
X0264388Y0235552D02*
X0400765Y0235552D01*
X0400765Y0236338D02*
X0263602Y0236338D01*
X0262816Y0237124D02*
X0400765Y0237124D01*
X0400765Y0237910D02*
X0262030Y0237910D01*
X0261244Y0238696D02*
X0400765Y0238696D01*
X0400765Y0239482D02*
X0260458Y0239482D01*
X0259672Y0240268D02*
X0400765Y0240268D01*
X0400765Y0241054D02*
X0258887Y0241054D01*
X0253922Y0241840D02*
X0400765Y0241840D01*
X0400765Y0272490D02*
X0368311Y0272490D01*
X0369926Y0273276D02*
X0400765Y0273276D01*
X0400765Y0274062D02*
X0370711Y0274062D01*
X0371403Y0274848D02*
X0400765Y0274848D01*
X0400765Y0275634D02*
X0371728Y0275634D01*
X0372054Y0276420D02*
X0400765Y0276420D01*
X0400765Y0277206D02*
X0372207Y0277206D01*
X0372207Y0277992D02*
X0400765Y0277992D01*
X0400765Y0278778D02*
X0372207Y0278778D01*
X0372002Y0279564D02*
X0400765Y0279564D01*
X0400765Y0280349D02*
X0371676Y0280349D01*
X0371351Y0281135D02*
X0400765Y0281135D01*
X0400765Y0281921D02*
X0370586Y0281921D01*
X0369800Y0282707D02*
X0400765Y0282707D01*
X0400765Y0283493D02*
X0368009Y0283493D01*
X0364957Y0283493D02*
X0318502Y0283493D01*
X0320054Y0282707D02*
X0363165Y0282707D01*
X0362380Y0281921D02*
X0320840Y0281921D01*
X0314405Y0283493D02*
X0283825Y0283493D01*
X0283039Y0282707D02*
X0312853Y0282707D01*
X0312067Y0281921D02*
X0282253Y0281921D01*
X0281518Y0281135D02*
X0311369Y0281135D01*
X0311043Y0280349D02*
X0281229Y0280349D01*
X0280717Y0279564D02*
X0310718Y0279564D01*
X0310529Y0278778D02*
X0279634Y0278778D01*
X0277052Y0278778D02*
X0204511Y0278778D01*
X0205297Y0279564D02*
X0275969Y0279564D01*
X0275458Y0280349D02*
X0205337Y0280349D01*
X0205337Y0281135D02*
X0210917Y0281135D01*
X0210385Y0281921D02*
X0205337Y0281921D01*
X0205337Y0282707D02*
X0207757Y0282707D01*
X0207126Y0283493D02*
X0205337Y0283493D01*
X0205337Y0284279D02*
X0206812Y0284279D01*
X0206812Y0285065D02*
X0205337Y0285065D01*
X0205337Y0285851D02*
X0207016Y0285851D01*
X0207493Y0286637D02*
X0205337Y0286637D01*
X0205337Y0287423D02*
X0208648Y0287423D01*
X0210653Y0288209D02*
X0205337Y0288209D01*
X0205337Y0288994D02*
X0281991Y0288994D01*
X0282776Y0289780D02*
X0205337Y0289780D01*
X0205337Y0290566D02*
X0283562Y0290566D01*
X0284348Y0291352D02*
X0205337Y0291352D01*
X0205997Y0292138D02*
X0285134Y0292138D01*
X0285920Y0292924D02*
X0206783Y0292924D01*
X0207569Y0293710D02*
X0286480Y0293710D01*
X0286806Y0294496D02*
X0208354Y0294496D01*
X0209140Y0295282D02*
X0287456Y0295282D01*
X0292702Y0292138D02*
X0400765Y0292138D01*
X0400765Y0291352D02*
X0292376Y0291352D01*
X0291720Y0290566D02*
X0400765Y0290566D01*
X0400765Y0289780D02*
X0290288Y0289780D01*
X0289327Y0288994D02*
X0400765Y0288994D01*
X0400765Y0288209D02*
X0288541Y0288209D01*
X0287755Y0287423D02*
X0400765Y0287423D01*
X0400765Y0286637D02*
X0286969Y0286637D01*
X0286183Y0285851D02*
X0400765Y0285851D01*
X0400765Y0285065D02*
X0285397Y0285065D01*
X0284611Y0284279D02*
X0400765Y0284279D01*
X0400765Y0292924D02*
X0361578Y0292924D01*
X0362317Y0293710D02*
X0400765Y0293710D01*
X0400765Y0294496D02*
X0362643Y0294496D01*
X0362768Y0295282D02*
X0400765Y0295282D01*
X0400765Y0296068D02*
X0362765Y0296068D01*
X0362440Y0296854D02*
X0400765Y0296854D01*
X0400765Y0297640D02*
X0361873Y0297640D01*
X0360656Y0298425D02*
X0400765Y0298425D01*
X0400765Y0299211D02*
X0357445Y0299211D01*
X0356659Y0298425D02*
X0358531Y0298425D01*
X0358231Y0299997D02*
X0400765Y0299997D01*
X0400765Y0300783D02*
X0359017Y0300783D01*
X0359803Y0301569D02*
X0400765Y0301569D01*
X0400765Y0302355D02*
X0360589Y0302355D01*
X0361374Y0303141D02*
X0400765Y0303141D01*
X0400765Y0303927D02*
X0361587Y0303927D01*
X0361587Y0304713D02*
X0400765Y0304713D01*
X0400765Y0305499D02*
X0361587Y0305499D01*
X0361587Y0306285D02*
X0400765Y0306285D01*
X0400765Y0307070D02*
X0361587Y0307070D01*
X0361587Y0307856D02*
X0400765Y0307856D01*
X0400765Y0308642D02*
X0361587Y0308642D01*
X0361587Y0309428D02*
X0400765Y0309428D01*
X0400765Y0310214D02*
X0361587Y0310214D01*
X0361587Y0311000D02*
X0400765Y0311000D01*
X0400765Y0311786D02*
X0361587Y0311786D01*
X0361587Y0312572D02*
X0400765Y0312572D01*
X0400765Y0313358D02*
X0361587Y0313358D01*
X0361587Y0314144D02*
X0400765Y0314144D01*
X0400765Y0314930D02*
X0361587Y0314930D01*
X0361587Y0315716D02*
X0400765Y0315716D01*
X0400765Y0316501D02*
X0361340Y0316501D01*
X0360554Y0317287D02*
X0400765Y0317287D01*
X0400746Y0318073D02*
X0359769Y0318073D01*
X0360419Y0317423D02*
X0360419Y0317423D01*
X0358983Y0318859D02*
X0400673Y0318859D01*
X0400418Y0319645D02*
X0358197Y0319645D01*
X0357411Y0320431D02*
X0400162Y0320431D01*
X0399692Y0321217D02*
X0356625Y0321217D01*
X0355839Y0322003D02*
X0399121Y0322003D01*
X0398214Y0322789D02*
X0355053Y0322789D01*
X0354267Y0323575D02*
X0396880Y0323575D01*
X0312728Y0273276D02*
X0199010Y0273276D01*
X0199796Y0274062D02*
X0311942Y0274062D01*
X0311317Y0274848D02*
X0200582Y0274848D01*
X0201368Y0275634D02*
X0310992Y0275634D01*
X0310666Y0276420D02*
X0202153Y0276420D01*
X0202939Y0277206D02*
X0310529Y0277206D01*
X0310529Y0277992D02*
X0203725Y0277992D01*
X0188903Y0295282D02*
X0179687Y0295282D01*
X0179687Y0296068D02*
X0189689Y0296068D01*
X0190475Y0296854D02*
X0179687Y0296854D01*
X0179687Y0297640D02*
X0191261Y0297640D01*
X0192046Y0298425D02*
X0179687Y0298425D01*
X0179687Y0299211D02*
X0192832Y0299211D01*
X0193618Y0299997D02*
X0179687Y0299997D01*
X0180560Y0300783D02*
X0193626Y0300783D01*
X0192840Y0301569D02*
X0181346Y0301569D01*
X0181779Y0302355D02*
X0192408Y0302355D01*
X0192082Y0303141D02*
X0182104Y0303141D01*
X0182325Y0303927D02*
X0191861Y0303927D01*
X0191861Y0304713D02*
X0182325Y0304713D01*
X0182325Y0305499D02*
X0191861Y0305499D01*
X0191861Y0306285D02*
X0182325Y0306285D01*
X0182325Y0307070D02*
X0191861Y0307070D01*
X0191861Y0307856D02*
X0182325Y0307856D01*
X0182325Y0308642D02*
X0191861Y0308642D01*
X0191861Y0309428D02*
X0182325Y0309428D01*
X0182325Y0310214D02*
X0191861Y0310214D01*
X0191861Y0311000D02*
X0182325Y0311000D01*
X0182325Y0311786D02*
X0191861Y0311786D01*
X0191861Y0312572D02*
X0182325Y0312572D01*
X0182325Y0313358D02*
X0191861Y0313358D01*
X0192155Y0314144D02*
X0182031Y0314144D01*
X0181706Y0314930D02*
X0192481Y0314930D01*
X0193016Y0315716D02*
X0181170Y0315716D01*
X0180384Y0316501D02*
X0193802Y0316501D01*
X0195237Y0317287D02*
X0178949Y0317287D01*
X0175237Y0317287D02*
X0158949Y0317287D01*
X0158134Y0317625D02*
X0156052Y0317625D01*
X0154129Y0316828D01*
X0152657Y0315357D01*
X0151861Y0313433D01*
X0151861Y0303675D01*
X0152657Y0301752D01*
X0154129Y0300280D01*
X0156052Y0299483D01*
X0158134Y0299483D01*
X0160057Y0300280D01*
X0161529Y0301752D01*
X0162325Y0303675D01*
X0162325Y0313433D01*
X0161529Y0315357D01*
X0160057Y0316828D01*
X0158134Y0317625D01*
X0160384Y0316501D02*
X0173802Y0316501D01*
X0173016Y0315716D02*
X0161170Y0315716D01*
X0161706Y0314930D02*
X0172481Y0314930D01*
X0172155Y0314144D02*
X0162031Y0314144D01*
X0162325Y0313358D02*
X0171861Y0313358D01*
X0171861Y0312572D02*
X0162325Y0312572D01*
X0162325Y0311786D02*
X0171861Y0311786D01*
X0171861Y0311000D02*
X0162325Y0311000D01*
X0162325Y0310214D02*
X0171861Y0310214D01*
X0171861Y0309428D02*
X0162325Y0309428D01*
X0162325Y0308642D02*
X0171861Y0308642D01*
X0171861Y0307856D02*
X0162325Y0307856D01*
X0162325Y0307070D02*
X0171861Y0307070D01*
X0171861Y0306285D02*
X0162325Y0306285D01*
X0162325Y0305499D02*
X0171861Y0305499D01*
X0171861Y0304713D02*
X0162325Y0304713D01*
X0162325Y0303927D02*
X0171861Y0303927D01*
X0172082Y0303141D02*
X0162104Y0303141D01*
X0161779Y0302355D02*
X0172408Y0302355D01*
X0172840Y0301569D02*
X0161346Y0301569D01*
X0160560Y0300783D02*
X0173626Y0300783D01*
X0174499Y0299997D02*
X0159375Y0299997D01*
X0154812Y0299997D02*
X0139375Y0299997D01*
X0140057Y0300280D02*
X0141529Y0301752D01*
X0142325Y0303675D01*
X0142325Y0313433D01*
X0141529Y0315357D01*
X0140057Y0316828D01*
X0138134Y0317625D01*
X0136052Y0317625D01*
X0134129Y0316828D01*
X0132657Y0315357D01*
X0131861Y0313433D01*
X0131861Y0303675D01*
X0132657Y0301752D01*
X0134129Y0300280D01*
X0136052Y0299483D01*
X0138134Y0299483D01*
X0140057Y0300280D01*
X0140560Y0300783D02*
X0153626Y0300783D01*
X0152840Y0301569D02*
X0141346Y0301569D01*
X0141779Y0302355D02*
X0152408Y0302355D01*
X0152082Y0303141D02*
X0142104Y0303141D01*
X0142325Y0303927D02*
X0151861Y0303927D01*
X0151861Y0304713D02*
X0142325Y0304713D01*
X0142325Y0305499D02*
X0151861Y0305499D01*
X0151861Y0306285D02*
X0142325Y0306285D01*
X0142325Y0307070D02*
X0151861Y0307070D01*
X0151861Y0307856D02*
X0142325Y0307856D01*
X0142325Y0308642D02*
X0151861Y0308642D01*
X0151861Y0309428D02*
X0142325Y0309428D01*
X0142325Y0310214D02*
X0151861Y0310214D01*
X0151861Y0311000D02*
X0142325Y0311000D01*
X0142325Y0311786D02*
X0151861Y0311786D01*
X0151861Y0312572D02*
X0142325Y0312572D01*
X0142325Y0313358D02*
X0151861Y0313358D01*
X0152155Y0314144D02*
X0142031Y0314144D01*
X0141706Y0314930D02*
X0152481Y0314930D01*
X0153016Y0315716D02*
X0141170Y0315716D01*
X0140384Y0316501D02*
X0153802Y0316501D01*
X0155237Y0317287D02*
X0138949Y0317287D01*
X0135237Y0317287D02*
X0118949Y0317287D01*
X0118134Y0317625D02*
X0116052Y0317625D01*
X0114129Y0316828D01*
X0112657Y0315357D01*
X0111861Y0313433D01*
X0111861Y0303675D01*
X0112657Y0301752D01*
X0114129Y0300280D01*
X0116052Y0299483D01*
X0118134Y0299483D01*
X0120057Y0300280D01*
X0121529Y0301752D01*
X0122325Y0303675D01*
X0122325Y0313433D01*
X0121529Y0315357D01*
X0120057Y0316828D01*
X0118134Y0317625D01*
X0120384Y0316501D02*
X0133802Y0316501D01*
X0133016Y0315716D02*
X0121170Y0315716D01*
X0121706Y0314930D02*
X0132481Y0314930D01*
X0132155Y0314144D02*
X0122031Y0314144D01*
X0122325Y0313358D02*
X0131861Y0313358D01*
X0131861Y0312572D02*
X0122325Y0312572D01*
X0122325Y0311786D02*
X0131861Y0311786D01*
X0131861Y0311000D02*
X0122325Y0311000D01*
X0122325Y0310214D02*
X0131861Y0310214D01*
X0131861Y0309428D02*
X0122325Y0309428D01*
X0122325Y0308642D02*
X0131861Y0308642D01*
X0131861Y0307856D02*
X0122325Y0307856D01*
X0122325Y0307070D02*
X0131861Y0307070D01*
X0131861Y0306285D02*
X0122325Y0306285D01*
X0122325Y0305499D02*
X0131861Y0305499D01*
X0131861Y0304713D02*
X0122325Y0304713D01*
X0122325Y0303927D02*
X0131861Y0303927D01*
X0132082Y0303141D02*
X0122104Y0303141D01*
X0121779Y0302355D02*
X0132408Y0302355D01*
X0132840Y0301569D02*
X0121346Y0301569D01*
X0120560Y0300783D02*
X0133626Y0300783D01*
X0134812Y0299997D02*
X0119375Y0299997D01*
X0114812Y0299997D02*
X0029937Y0299997D01*
X0029937Y0299211D02*
X0174499Y0299211D01*
X0174499Y0298425D02*
X0029937Y0298425D01*
X0029937Y0297640D02*
X0174499Y0297640D01*
X0174499Y0296854D02*
X0029937Y0296854D01*
X0029937Y0296068D02*
X0174499Y0296068D01*
X0174499Y0295282D02*
X0029937Y0295282D01*
X0029937Y0294496D02*
X0174367Y0294496D01*
X0173581Y0293710D02*
X0029937Y0293710D01*
X0029937Y0292924D02*
X0172795Y0292924D01*
X0172009Y0292138D02*
X0076996Y0292138D01*
X0076475Y0292354D02*
X0075212Y0292354D01*
X0074045Y0291871D01*
X0073947Y0291773D01*
X0067827Y0291773D01*
X0066874Y0291378D01*
X0054100Y0278604D01*
X0053962Y0278604D01*
X0052795Y0278121D01*
X0051902Y0277228D01*
X0051418Y0276061D01*
X0051418Y0274798D01*
X0051902Y0273631D01*
X0051999Y0273533D01*
X0051999Y0262325D01*
X0051902Y0262228D01*
X0051418Y0261061D01*
X0051418Y0259798D01*
X0051902Y0258631D01*
X0052795Y0257738D01*
X0053962Y0257254D01*
X0055225Y0257254D01*
X0056392Y0257738D01*
X0057285Y0258631D01*
X0057768Y0259798D01*
X0057768Y0261061D01*
X0057285Y0262228D01*
X0057187Y0262325D01*
X0057187Y0273533D01*
X0057285Y0273631D01*
X0057768Y0274798D01*
X0057768Y0274936D01*
X0069418Y0286585D01*
X0073947Y0286585D01*
X0074045Y0286488D01*
X0075212Y0286004D01*
X0076475Y0286004D01*
X0077642Y0286488D01*
X0078535Y0287381D01*
X0079018Y0288548D01*
X0079018Y0289811D01*
X0078535Y0290978D01*
X0077642Y0291871D01*
X0076475Y0292354D01*
X0074691Y0292138D02*
X0029937Y0292138D01*
X0029937Y0291352D02*
X0066848Y0291352D01*
X0066062Y0290566D02*
X0029937Y0290566D01*
X0029937Y0289780D02*
X0065276Y0289780D01*
X0064490Y0288994D02*
X0029937Y0288994D01*
X0029937Y0288209D02*
X0063705Y0288209D01*
X0062919Y0287423D02*
X0029937Y0287423D01*
X0029937Y0286637D02*
X0062133Y0286637D01*
X0061347Y0285851D02*
X0029937Y0285851D01*
X0029937Y0285065D02*
X0060561Y0285065D01*
X0059775Y0284279D02*
X0029937Y0284279D01*
X0029937Y0283493D02*
X0058989Y0283493D01*
X0058203Y0282707D02*
X0029937Y0282707D01*
X0029937Y0281921D02*
X0057417Y0281921D01*
X0056631Y0281135D02*
X0029937Y0281135D01*
X0029937Y0280349D02*
X0055845Y0280349D01*
X0055060Y0279564D02*
X0029937Y0279564D01*
X0029937Y0278778D02*
X0054274Y0278778D01*
X0052666Y0277992D02*
X0029937Y0277992D01*
X0029937Y0277206D02*
X0051893Y0277206D01*
X0051567Y0276420D02*
X0029937Y0276420D01*
X0029937Y0275634D02*
X0051418Y0275634D01*
X0051418Y0274848D02*
X0029937Y0274848D01*
X0029937Y0274062D02*
X0051723Y0274062D01*
X0051999Y0273276D02*
X0029937Y0273276D01*
X0029937Y0272490D02*
X0051999Y0272490D01*
X0051999Y0271704D02*
X0029937Y0271704D01*
X0029937Y0270918D02*
X0051999Y0270918D01*
X0051999Y0270133D02*
X0029937Y0270133D01*
X0029937Y0269347D02*
X0051999Y0269347D01*
X0051999Y0268561D02*
X0029937Y0268561D01*
X0029937Y0267775D02*
X0051999Y0267775D01*
X0051999Y0266989D02*
X0029937Y0266989D01*
X0029937Y0266203D02*
X0051999Y0266203D01*
X0051999Y0265417D02*
X0029937Y0265417D01*
X0029937Y0264631D02*
X0051999Y0264631D01*
X0051999Y0263845D02*
X0029937Y0263845D01*
X0029937Y0263059D02*
X0051999Y0263059D01*
X0051948Y0262273D02*
X0029937Y0262273D01*
X0029937Y0261488D02*
X0051595Y0261488D01*
X0051418Y0260702D02*
X0029937Y0260702D01*
X0029937Y0259916D02*
X0051418Y0259916D01*
X0051695Y0259130D02*
X0029937Y0259130D01*
X0029937Y0258344D02*
X0052189Y0258344D01*
X0053229Y0257558D02*
X0029937Y0257558D01*
X0029937Y0256772D02*
X0164499Y0256772D01*
X0164499Y0255986D02*
X0029937Y0255986D01*
X0029937Y0255200D02*
X0164499Y0255200D01*
X0164499Y0254414D02*
X0029937Y0254414D01*
X0029937Y0253628D02*
X0164499Y0253628D01*
X0164499Y0252842D02*
X0029937Y0252842D01*
X0029937Y0252057D02*
X0164499Y0252057D01*
X0164499Y0251271D02*
X0029937Y0251271D01*
X0029937Y0250485D02*
X0164499Y0250485D01*
X0164499Y0249699D02*
X0029937Y0249699D01*
X0029937Y0248913D02*
X0164499Y0248913D01*
X0164499Y0248127D02*
X0029937Y0248127D01*
X0029937Y0247341D02*
X0164499Y0247341D01*
X0164499Y0246555D02*
X0029937Y0246555D01*
X0029937Y0245769D02*
X0164499Y0245769D01*
X0164499Y0244983D02*
X0029937Y0244983D01*
X0029937Y0244197D02*
X0164499Y0244197D01*
X0164499Y0243412D02*
X0029937Y0243412D01*
X0029937Y0242626D02*
X0164372Y0242626D01*
X0163586Y0241840D02*
X0029937Y0241840D01*
X0029937Y0241054D02*
X0073020Y0241054D01*
X0072816Y0240849D02*
X0073632Y0241665D01*
X0081480Y0241665D01*
X0082296Y0240849D01*
X0082296Y0233001D01*
X0081480Y0232185D01*
X0073632Y0232185D01*
X0072816Y0233001D01*
X0072816Y0240849D01*
X0072816Y0240268D02*
X0029937Y0240268D01*
X0029937Y0239482D02*
X0072816Y0239482D01*
X0072816Y0238696D02*
X0029937Y0238696D01*
X0029937Y0237910D02*
X0072816Y0237910D01*
X0072816Y0237124D02*
X0029937Y0237124D01*
X0029937Y0236338D02*
X0072816Y0236338D01*
X0072816Y0235552D02*
X0029937Y0235552D01*
X0029937Y0234766D02*
X0072816Y0234766D01*
X0072816Y0233981D02*
X0029937Y0233981D01*
X0029937Y0233195D02*
X0072816Y0233195D01*
X0073408Y0232409D02*
X0029937Y0232409D01*
X0029937Y0231623D02*
X0103131Y0231623D01*
X0103131Y0232409D02*
X0081703Y0232409D01*
X0082296Y0233195D02*
X0103131Y0233195D01*
X0103131Y0233456D02*
X0103131Y0218741D01*
X0104242Y0216058D01*
X0106295Y0214005D01*
X0108978Y0212894D01*
X0111882Y0212894D01*
X0114564Y0214005D01*
X0116618Y0216058D01*
X0116836Y0216585D01*
X0127697Y0216585D01*
X0127795Y0216488D01*
X0128962Y0216004D01*
X0130225Y0216004D01*
X0131392Y0216488D01*
X0132285Y0217381D01*
X0132768Y0218548D01*
X0132768Y0219811D01*
X0132285Y0220978D01*
X0131392Y0221871D01*
X0130225Y0222354D01*
X0128962Y0222354D01*
X0127795Y0221871D01*
X0127697Y0221773D01*
X0118423Y0221773D01*
X0117729Y0222467D01*
X0117729Y0233456D01*
X0116618Y0236139D01*
X0114564Y0238192D01*
X0111882Y0239303D01*
X0108978Y0239303D01*
X0106295Y0238192D01*
X0104242Y0236139D01*
X0103131Y0233456D01*
X0103348Y0233981D02*
X0082296Y0233981D01*
X0082296Y0234766D02*
X0103673Y0234766D01*
X0103999Y0235552D02*
X0082296Y0235552D01*
X0082296Y0236338D02*
X0104442Y0236338D01*
X0105227Y0237124D02*
X0082296Y0237124D01*
X0082296Y0237910D02*
X0106013Y0237910D01*
X0107512Y0238696D02*
X0082296Y0238696D01*
X0082296Y0239482D02*
X0161228Y0239482D01*
X0162014Y0240268D02*
X0082296Y0240268D01*
X0082091Y0241054D02*
X0162800Y0241054D01*
X0160442Y0238696D02*
X0113347Y0238696D01*
X0114846Y0237910D02*
X0159656Y0237910D01*
X0158870Y0237124D02*
X0115632Y0237124D01*
X0116418Y0236338D02*
X0158084Y0236338D01*
X0157298Y0235552D02*
X0116861Y0235552D01*
X0117186Y0234766D02*
X0156513Y0234766D01*
X0155727Y0233981D02*
X0117512Y0233981D01*
X0117729Y0233195D02*
X0154941Y0233195D01*
X0154155Y0232409D02*
X0117729Y0232409D01*
X0117729Y0231623D02*
X0153369Y0231623D01*
X0152583Y0230837D02*
X0117729Y0230837D01*
X0117729Y0230051D02*
X0151797Y0230051D01*
X0151011Y0229265D02*
X0142747Y0229265D01*
X0143533Y0228479D02*
X0150225Y0228479D01*
X0149439Y0227693D02*
X0143859Y0227693D01*
X0144018Y0226907D02*
X0148653Y0226907D01*
X0147867Y0226121D02*
X0144018Y0226121D01*
X0143723Y0225336D02*
X0147082Y0225336D01*
X0146296Y0224550D02*
X0143437Y0224550D01*
X0143437Y0223764D02*
X0145510Y0223764D01*
X0144724Y0222978D02*
X0143437Y0222978D01*
X0143345Y0222192D02*
X0143938Y0222192D01*
X0143152Y0221406D02*
X0142988Y0221406D01*
X0142366Y0220620D02*
X0142202Y0220620D01*
X0141580Y0219834D02*
X0141416Y0219834D01*
X0140794Y0219048D02*
X0140630Y0219048D01*
X0140008Y0218262D02*
X0139844Y0218262D01*
X0139222Y0217476D02*
X0139058Y0217476D01*
X0138558Y0216690D02*
X0138437Y0216690D01*
X0134866Y0220620D02*
X0132433Y0220620D01*
X0132758Y0219834D02*
X0134080Y0219834D01*
X0133499Y0219048D02*
X0132768Y0219048D01*
X0132650Y0218262D02*
X0133249Y0218262D01*
X0133249Y0217476D02*
X0132324Y0217476D01*
X0131594Y0216690D02*
X0133249Y0216690D01*
X0133249Y0215905D02*
X0116464Y0215905D01*
X0115678Y0215119D02*
X0133249Y0215119D01*
X0133249Y0214333D02*
X0114892Y0214333D01*
X0113459Y0213547D02*
X0133249Y0213547D01*
X0133249Y0212761D02*
X0029937Y0212761D01*
X0029937Y0213547D02*
X0107401Y0213547D01*
X0105967Y0214333D02*
X0029937Y0214333D01*
X0029937Y0215119D02*
X0105181Y0215119D01*
X0104395Y0215905D02*
X0029937Y0215905D01*
X0029937Y0216690D02*
X0103980Y0216690D01*
X0103654Y0217476D02*
X0029937Y0217476D01*
X0029937Y0218262D02*
X0103329Y0218262D01*
X0103131Y0219048D02*
X0029937Y0219048D01*
X0029937Y0219834D02*
X0103131Y0219834D01*
X0103131Y0220620D02*
X0029937Y0220620D01*
X0029937Y0221406D02*
X0103131Y0221406D01*
X0103131Y0222192D02*
X0029937Y0222192D01*
X0029937Y0222978D02*
X0103131Y0222978D01*
X0103131Y0223764D02*
X0029937Y0223764D01*
X0029937Y0224550D02*
X0103131Y0224550D01*
X0103131Y0225336D02*
X0029937Y0225336D01*
X0029937Y0226121D02*
X0103131Y0226121D01*
X0103131Y0226907D02*
X0029937Y0226907D01*
X0029937Y0227693D02*
X0103131Y0227693D01*
X0103131Y0228479D02*
X0029937Y0228479D01*
X0029937Y0229265D02*
X0103131Y0229265D01*
X0103131Y0230051D02*
X0029937Y0230051D01*
X0029937Y0230837D02*
X0103131Y0230837D01*
X0117729Y0229265D02*
X0138939Y0229265D01*
X0138153Y0228479D02*
X0117729Y0228479D01*
X0117729Y0227693D02*
X0137827Y0227693D01*
X0137668Y0226907D02*
X0117729Y0226907D01*
X0117729Y0226121D02*
X0137668Y0226121D01*
X0137963Y0225336D02*
X0117729Y0225336D01*
X0117729Y0224550D02*
X0138249Y0224550D01*
X0138010Y0223764D02*
X0117729Y0223764D01*
X0117729Y0222978D02*
X0137224Y0222978D01*
X0136438Y0222192D02*
X0130616Y0222192D01*
X0131856Y0221406D02*
X0135652Y0221406D01*
X0128570Y0222192D02*
X0118004Y0222192D01*
X0133249Y0211975D02*
X0029937Y0211975D01*
X0029937Y0211189D02*
X0132935Y0211189D01*
X0132149Y0210403D02*
X0029937Y0210403D01*
X0029937Y0209617D02*
X0131363Y0209617D01*
X0130577Y0208831D02*
X0029937Y0208831D01*
X0029937Y0208045D02*
X0129791Y0208045D01*
X0128734Y0207260D02*
X0029937Y0207260D01*
X0029937Y0206474D02*
X0127398Y0206474D01*
X0126782Y0205688D02*
X0029937Y0205688D01*
X0029937Y0204902D02*
X0126456Y0204902D01*
X0126418Y0204116D02*
X0029937Y0204116D01*
X0029937Y0203330D02*
X0126509Y0203330D01*
X0126834Y0202544D02*
X0029937Y0202544D01*
X0029937Y0201758D02*
X0127524Y0201758D01*
X0131662Y0201758D02*
X0141160Y0201758D01*
X0140060Y0202544D02*
X0132352Y0202544D01*
X0132678Y0203330D02*
X0139274Y0203330D01*
X0138488Y0204116D02*
X0133198Y0204116D01*
X0133984Y0204902D02*
X0137702Y0204902D01*
X0136917Y0205688D02*
X0134770Y0205688D01*
X0135556Y0206474D02*
X0136131Y0206474D01*
X0127419Y0191537D02*
X0126396Y0191960D01*
X0125290Y0191960D01*
X0124268Y0191537D01*
X0123485Y0190754D01*
X0123062Y0189732D01*
X0123062Y0188626D01*
X0123485Y0187604D01*
X0124268Y0186821D01*
X0125290Y0186398D01*
X0125734Y0186398D01*
X0125562Y0185982D01*
X0125562Y0184876D01*
X0125985Y0183854D01*
X0126768Y0183071D01*
X0127102Y0182933D01*
X0126812Y0182232D01*
X0126812Y0181126D01*
X0127235Y0180104D01*
X0128018Y0179321D01*
X0129040Y0178898D01*
X0130146Y0178898D01*
X0131169Y0179321D01*
X0131533Y0179685D01*
X0161404Y0179685D01*
X0161768Y0179321D01*
X0162790Y0178898D01*
X0163896Y0178898D01*
X0164919Y0179321D01*
X0165701Y0180104D01*
X0166124Y0181126D01*
X0166124Y0182232D01*
X0165701Y0183254D01*
X0165401Y0183554D01*
X0165701Y0183854D01*
X0166124Y0184876D01*
X0166124Y0185982D01*
X0165701Y0187004D01*
X0165401Y0187304D01*
X0165701Y0187604D01*
X0166124Y0188626D01*
X0166124Y0189732D01*
X0165701Y0190754D01*
X0164919Y0191537D01*
X0163896Y0191960D01*
X0162790Y0191960D01*
X0161768Y0191537D01*
X0161404Y0191173D01*
X0127783Y0191173D01*
X0127419Y0191537D01*
X0127408Y0191541D02*
X0161779Y0191541D01*
X0164908Y0191541D02*
X0233029Y0191541D01*
X0233018Y0191537D02*
X0232235Y0190754D01*
X0231812Y0189732D01*
X0231812Y0188626D01*
X0232235Y0187604D01*
X0232599Y0187240D01*
X0232599Y0163618D01*
X0232235Y0163254D01*
X0231812Y0162232D01*
X0231812Y0161126D01*
X0232235Y0160104D01*
X0233018Y0159321D01*
X0234040Y0158898D01*
X0235146Y0158898D01*
X0236169Y0159321D01*
X0236468Y0159621D01*
X0236768Y0159321D01*
X0237790Y0158898D01*
X0238896Y0158898D01*
X0239919Y0159321D01*
X0240601Y0160004D01*
X0240652Y0159881D01*
X0241545Y0158988D01*
X0242712Y0158504D01*
X0243975Y0158504D01*
X0245142Y0158988D01*
X0246035Y0159881D01*
X0246518Y0161048D01*
X0246518Y0162311D01*
X0246035Y0163478D01*
X0245937Y0163575D01*
X0245937Y0188533D01*
X0246035Y0188631D01*
X0246518Y0189798D01*
X0246518Y0191061D01*
X0246035Y0192228D01*
X0245142Y0193121D01*
X0243975Y0193604D01*
X0242712Y0193604D01*
X0241545Y0193121D01*
X0240652Y0192228D01*
X0240235Y0191221D01*
X0239919Y0191537D01*
X0238896Y0191960D01*
X0237790Y0191960D01*
X0236768Y0191537D01*
X0236468Y0191237D01*
X0236169Y0191537D01*
X0235146Y0191960D01*
X0234040Y0191960D01*
X0233018Y0191537D01*
X0232236Y0190755D02*
X0165700Y0190755D01*
X0166026Y0189969D02*
X0231910Y0189969D01*
X0231812Y0189184D02*
X0166124Y0189184D01*
X0166030Y0188398D02*
X0231907Y0188398D01*
X0232232Y0187612D02*
X0165704Y0187612D01*
X0165775Y0186826D02*
X0232599Y0186826D01*
X0232599Y0186040D02*
X0166100Y0186040D01*
X0166124Y0185254D02*
X0232599Y0185254D01*
X0232599Y0184468D02*
X0165955Y0184468D01*
X0165529Y0183682D02*
X0232599Y0183682D01*
X0232599Y0182896D02*
X0165849Y0182896D01*
X0166124Y0182110D02*
X0232599Y0182110D01*
X0232599Y0181324D02*
X0166124Y0181324D01*
X0165881Y0180538D02*
X0232599Y0180538D01*
X0232599Y0179753D02*
X0165350Y0179753D01*
X0164062Y0178967D02*
X0232599Y0178967D01*
X0232599Y0178181D02*
X0115520Y0178181D01*
X0114735Y0178967D02*
X0128874Y0178967D01*
X0130312Y0178967D02*
X0162624Y0178967D01*
X0163026Y0201758D02*
X0400765Y0201758D01*
X0400765Y0200972D02*
X0029937Y0200972D01*
X0029937Y0200186D02*
X0400765Y0200186D01*
X0400765Y0199400D02*
X0029937Y0199400D01*
X0029937Y0198614D02*
X0400765Y0198614D01*
X0400765Y0197829D02*
X0029937Y0197829D01*
X0029937Y0197043D02*
X0400765Y0197043D01*
X0400765Y0196257D02*
X0029937Y0196257D01*
X0029937Y0195471D02*
X0400765Y0195471D01*
X0400765Y0194685D02*
X0364383Y0194685D01*
X0363975Y0194854D02*
X0362712Y0194854D01*
X0361545Y0194371D01*
X0360652Y0193478D01*
X0360168Y0192311D01*
X0360168Y0191048D01*
X0360652Y0189881D01*
X0360749Y0189783D01*
X0360749Y0186075D01*
X0360652Y0185978D01*
X0360168Y0184811D01*
X0360168Y0183548D01*
X0360652Y0182381D01*
X0361545Y0181488D01*
X0362712Y0181004D01*
X0363975Y0181004D01*
X0365142Y0181488D01*
X0366035Y0182381D01*
X0366518Y0183548D01*
X0366518Y0184811D01*
X0366035Y0185978D01*
X0365937Y0186075D01*
X0365937Y0189783D01*
X0366035Y0189881D01*
X0366518Y0191048D01*
X0366518Y0192311D01*
X0366035Y0193478D01*
X0365142Y0194371D01*
X0363975Y0194854D01*
X0362304Y0194685D02*
X0029937Y0194685D01*
X0029937Y0193899D02*
X0361073Y0193899D01*
X0360501Y0193113D02*
X0315432Y0193113D01*
X0315255Y0193290D02*
X0314014Y0193804D01*
X0312672Y0193804D01*
X0311432Y0193290D01*
X0310482Y0192341D01*
X0310082Y0191374D01*
X0309919Y0191537D01*
X0308896Y0191960D01*
X0307790Y0191960D01*
X0306768Y0191537D01*
X0305985Y0190754D01*
X0305843Y0190411D01*
X0305701Y0190754D01*
X0304919Y0191537D01*
X0303896Y0191960D01*
X0302790Y0191960D01*
X0301768Y0191537D01*
X0300985Y0190754D01*
X0300562Y0189732D01*
X0300562Y0188626D01*
X0300985Y0187604D01*
X0301349Y0187240D01*
X0301349Y0179603D01*
X0302517Y0178435D01*
X0303062Y0177891D01*
X0303062Y0177376D01*
X0303485Y0176354D01*
X0304268Y0175571D01*
X0305290Y0175148D01*
X0306396Y0175148D01*
X0307419Y0175571D01*
X0308201Y0176354D01*
X0308624Y0177376D01*
X0308624Y0178482D01*
X0308452Y0178898D01*
X0308896Y0178898D01*
X0309919Y0179321D01*
X0310549Y0179952D01*
X0310549Y0177836D01*
X0300267Y0167554D01*
X0300172Y0167554D01*
X0298932Y0167040D01*
X0297982Y0166091D01*
X0297837Y0165740D01*
X0297837Y0184740D01*
X0298201Y0185104D01*
X0298624Y0186126D01*
X0298624Y0187232D01*
X0298201Y0188254D01*
X0297419Y0189037D01*
X0296396Y0189460D01*
X0295290Y0189460D01*
X0294268Y0189037D01*
X0293485Y0188254D01*
X0293062Y0187232D01*
X0293062Y0186126D01*
X0293485Y0185104D01*
X0293849Y0184740D01*
X0293849Y0163618D01*
X0293485Y0163254D01*
X0293062Y0162232D01*
X0293062Y0161126D01*
X0293485Y0160104D01*
X0294268Y0159321D01*
X0295290Y0158898D01*
X0296396Y0158898D01*
X0297419Y0159321D01*
X0298201Y0160104D01*
X0298624Y0161126D01*
X0298624Y0161625D01*
X0298932Y0161318D01*
X0300172Y0160804D01*
X0301514Y0160804D01*
X0302755Y0161318D01*
X0303704Y0162267D01*
X0304218Y0163508D01*
X0304218Y0163603D01*
X0314926Y0174311D01*
X0315712Y0175097D01*
X0316137Y0176123D01*
X0316137Y0188450D01*
X0316204Y0188517D01*
X0316718Y0189758D01*
X0316718Y0191100D01*
X0316204Y0192341D01*
X0315255Y0193290D01*
X0316210Y0192327D02*
X0360175Y0192327D01*
X0360168Y0191541D02*
X0316535Y0191541D01*
X0316718Y0190755D02*
X0360289Y0190755D01*
X0360615Y0189969D02*
X0316718Y0189969D01*
X0316480Y0189184D02*
X0360749Y0189184D01*
X0360749Y0188398D02*
X0316137Y0188398D01*
X0316137Y0187612D02*
X0360749Y0187612D01*
X0360749Y0186826D02*
X0316137Y0186826D01*
X0316137Y0186040D02*
X0360714Y0186040D01*
X0360352Y0185254D02*
X0316137Y0185254D01*
X0316137Y0184468D02*
X0360168Y0184468D01*
X0360168Y0183682D02*
X0316137Y0183682D01*
X0316137Y0182896D02*
X0360438Y0182896D01*
X0360922Y0182110D02*
X0316137Y0182110D01*
X0316137Y0181324D02*
X0361939Y0181324D01*
X0364747Y0181324D02*
X0371349Y0181324D01*
X0371349Y0181118D02*
X0370985Y0180754D01*
X0370562Y0179732D01*
X0370562Y0178626D01*
X0370985Y0177604D01*
X0371768Y0176821D01*
X0372790Y0176398D01*
X0373896Y0176398D01*
X0374919Y0176821D01*
X0375701Y0177604D01*
X0376124Y0178626D01*
X0376124Y0179732D01*
X0375701Y0180754D01*
X0375337Y0181118D01*
X0375337Y0189740D01*
X0375701Y0190104D01*
X0376124Y0191126D01*
X0376124Y0192232D01*
X0375701Y0193254D01*
X0374919Y0194037D01*
X0373896Y0194460D01*
X0372790Y0194460D01*
X0371768Y0194037D01*
X0370985Y0193254D01*
X0370562Y0192232D01*
X0370562Y0191126D01*
X0370985Y0190104D01*
X0371349Y0189740D01*
X0371349Y0181118D01*
X0370896Y0180538D02*
X0316137Y0180538D01*
X0316137Y0179753D02*
X0370570Y0179753D01*
X0370562Y0178967D02*
X0343739Y0178967D01*
X0343669Y0179037D02*
X0342646Y0179460D01*
X0341540Y0179460D01*
X0340518Y0179037D01*
X0339735Y0178254D01*
X0339312Y0177232D01*
X0339312Y0176718D01*
X0332599Y0170005D01*
X0332599Y0138755D01*
X0321056Y0127212D01*
X0321124Y0127376D01*
X0321124Y0128482D01*
X0320701Y0129504D01*
X0319919Y0130287D01*
X0319575Y0130429D01*
X0319919Y0130571D01*
X0320701Y0131354D01*
X0321124Y0132376D01*
X0321124Y0133482D01*
X0320701Y0134504D01*
X0319919Y0135287D01*
X0318896Y0135710D01*
X0317790Y0135710D01*
X0316768Y0135287D01*
X0316404Y0134923D01*
X0315017Y0134923D01*
X0307055Y0126960D01*
X0306540Y0126960D01*
X0305518Y0126537D01*
X0304735Y0125754D01*
X0304312Y0124732D01*
X0304312Y0123626D01*
X0304735Y0122604D01*
X0305518Y0121821D01*
X0306540Y0121398D01*
X0307646Y0121398D01*
X0308347Y0121688D01*
X0308485Y0121354D01*
X0309268Y0120571D01*
X0310290Y0120148D01*
X0311396Y0120148D01*
X0312419Y0120571D01*
X0312783Y0120935D01*
X0314169Y0120935D01*
X0318130Y0124897D01*
X0318062Y0124732D01*
X0318062Y0123626D01*
X0318485Y0122604D01*
X0319268Y0121821D01*
X0320290Y0121398D01*
X0321396Y0121398D01*
X0322419Y0121821D01*
X0323201Y0122604D01*
X0323624Y0123626D01*
X0323624Y0124141D01*
X0336587Y0137103D01*
X0336587Y0168353D01*
X0342132Y0173898D01*
X0342646Y0173898D01*
X0343669Y0174321D01*
X0344451Y0175104D01*
X0344874Y0176126D01*
X0344874Y0177232D01*
X0344451Y0178254D01*
X0343669Y0179037D01*
X0344481Y0178181D02*
X0370746Y0178181D01*
X0371194Y0177395D02*
X0344807Y0177395D01*
X0344874Y0176609D02*
X0372281Y0176609D01*
X0374406Y0176609D02*
X0400765Y0176609D01*
X0400765Y0177395D02*
X0375492Y0177395D01*
X0375940Y0178181D02*
X0400765Y0178181D01*
X0400765Y0178967D02*
X0376124Y0178967D01*
X0376116Y0179753D02*
X0400765Y0179753D01*
X0400765Y0180538D02*
X0375790Y0180538D01*
X0375337Y0181324D02*
X0400765Y0181324D01*
X0400765Y0182110D02*
X0375337Y0182110D01*
X0375337Y0182896D02*
X0400765Y0182896D01*
X0400765Y0183682D02*
X0375337Y0183682D01*
X0375337Y0184468D02*
X0400765Y0184468D01*
X0400765Y0185254D02*
X0375337Y0185254D01*
X0375337Y0186040D02*
X0400765Y0186040D01*
X0400765Y0186826D02*
X0375337Y0186826D01*
X0375337Y0187612D02*
X0400765Y0187612D01*
X0400765Y0188398D02*
X0375337Y0188398D01*
X0375337Y0189184D02*
X0400765Y0189184D01*
X0400765Y0189969D02*
X0375567Y0189969D01*
X0375971Y0190755D02*
X0400765Y0190755D01*
X0400765Y0191541D02*
X0376124Y0191541D01*
X0376085Y0192327D02*
X0400765Y0192327D01*
X0400765Y0193113D02*
X0375759Y0193113D01*
X0375056Y0193899D02*
X0400765Y0193899D01*
X0400765Y0202544D02*
X0164126Y0202544D01*
X0164912Y0203330D02*
X0400765Y0203330D01*
X0400765Y0204116D02*
X0165698Y0204116D01*
X0166484Y0204902D02*
X0400765Y0204902D01*
X0400765Y0205688D02*
X0167270Y0205688D01*
X0168056Y0206474D02*
X0400765Y0206474D01*
X0371630Y0193899D02*
X0365613Y0193899D01*
X0366186Y0193113D02*
X0370927Y0193113D01*
X0370601Y0192327D02*
X0366511Y0192327D01*
X0366518Y0191541D02*
X0370562Y0191541D01*
X0370716Y0190755D02*
X0366397Y0190755D01*
X0366071Y0189969D02*
X0371120Y0189969D01*
X0371349Y0189184D02*
X0365937Y0189184D01*
X0365937Y0188398D02*
X0371349Y0188398D01*
X0371349Y0187612D02*
X0365937Y0187612D01*
X0365937Y0186826D02*
X0371349Y0186826D01*
X0371349Y0186040D02*
X0365972Y0186040D01*
X0366334Y0185254D02*
X0371349Y0185254D01*
X0371349Y0184468D02*
X0366518Y0184468D01*
X0366518Y0183682D02*
X0371349Y0183682D01*
X0371349Y0182896D02*
X0366248Y0182896D01*
X0365764Y0182110D02*
X0371349Y0182110D01*
X0344749Y0175823D02*
X0400765Y0175823D01*
X0400765Y0175037D02*
X0344384Y0175037D01*
X0343499Y0174251D02*
X0400765Y0174251D01*
X0400765Y0173465D02*
X0341699Y0173465D01*
X0340913Y0172679D02*
X0400765Y0172679D01*
X0400765Y0171893D02*
X0340127Y0171893D01*
X0339341Y0171108D02*
X0400765Y0171108D01*
X0400765Y0170322D02*
X0338555Y0170322D01*
X0337769Y0169536D02*
X0400765Y0169536D01*
X0400765Y0168750D02*
X0336983Y0168750D01*
X0336587Y0167964D02*
X0400765Y0167964D01*
X0400765Y0167178D02*
X0336587Y0167178D01*
X0336587Y0166392D02*
X0400765Y0166392D01*
X0400765Y0165606D02*
X0336587Y0165606D01*
X0336587Y0164820D02*
X0400765Y0164820D01*
X0400765Y0164034D02*
X0336587Y0164034D01*
X0336587Y0163248D02*
X0400765Y0163248D01*
X0400765Y0162463D02*
X0336587Y0162463D01*
X0336587Y0161677D02*
X0400765Y0161677D01*
X0400765Y0160891D02*
X0336587Y0160891D01*
X0336587Y0160105D02*
X0400765Y0160105D01*
X0400765Y0159319D02*
X0336587Y0159319D01*
X0336587Y0158533D02*
X0400765Y0158533D01*
X0400765Y0157747D02*
X0336587Y0157747D01*
X0336587Y0156961D02*
X0400765Y0156961D01*
X0400765Y0156175D02*
X0336587Y0156175D01*
X0336587Y0155389D02*
X0400765Y0155389D01*
X0400765Y0154603D02*
X0336587Y0154603D01*
X0336587Y0153817D02*
X0400765Y0153817D01*
X0400765Y0153032D02*
X0336587Y0153032D01*
X0336587Y0152246D02*
X0400765Y0152246D01*
X0400765Y0151460D02*
X0336587Y0151460D01*
X0336587Y0150674D02*
X0400765Y0150674D01*
X0400765Y0149888D02*
X0336587Y0149888D01*
X0336587Y0149102D02*
X0400765Y0149102D01*
X0400765Y0148316D02*
X0336587Y0148316D01*
X0336587Y0147530D02*
X0400765Y0147530D01*
X0400765Y0146744D02*
X0336587Y0146744D01*
X0336587Y0145958D02*
X0400765Y0145958D01*
X0400765Y0145172D02*
X0336587Y0145172D01*
X0336587Y0144387D02*
X0400765Y0144387D01*
X0400765Y0143601D02*
X0336587Y0143601D01*
X0336587Y0142815D02*
X0400765Y0142815D01*
X0400765Y0142029D02*
X0336587Y0142029D01*
X0336587Y0141243D02*
X0400765Y0141243D01*
X0400765Y0140457D02*
X0336587Y0140457D01*
X0336587Y0139671D02*
X0400765Y0139671D01*
X0400765Y0138885D02*
X0336587Y0138885D01*
X0336587Y0138099D02*
X0400765Y0138099D01*
X0400765Y0137313D02*
X0336587Y0137313D01*
X0336011Y0136527D02*
X0400765Y0136527D01*
X0400765Y0135741D02*
X0335225Y0135741D01*
X0334439Y0134956D02*
X0400765Y0134956D01*
X0400765Y0134170D02*
X0333653Y0134170D01*
X0332867Y0133384D02*
X0400765Y0133384D01*
X0400765Y0132598D02*
X0332081Y0132598D01*
X0331295Y0131812D02*
X0400765Y0131812D01*
X0400765Y0131026D02*
X0330510Y0131026D01*
X0329724Y0130240D02*
X0400765Y0130240D01*
X0400765Y0129454D02*
X0328938Y0129454D01*
X0328152Y0128668D02*
X0400765Y0128668D01*
X0400765Y0127882D02*
X0327366Y0127882D01*
X0326580Y0127096D02*
X0400765Y0127096D01*
X0400765Y0126311D02*
X0325794Y0126311D01*
X0325008Y0125525D02*
X0400765Y0125525D01*
X0400765Y0124739D02*
X0324222Y0124739D01*
X0323624Y0123953D02*
X0400765Y0123953D01*
X0400765Y0123167D02*
X0323434Y0123167D01*
X0322978Y0122381D02*
X0400765Y0122381D01*
X0400765Y0121595D02*
X0321872Y0121595D01*
X0319814Y0121595D02*
X0314829Y0121595D01*
X0315614Y0122381D02*
X0318708Y0122381D01*
X0318252Y0123167D02*
X0316400Y0123167D01*
X0317186Y0123953D02*
X0318062Y0123953D01*
X0318065Y0124739D02*
X0317972Y0124739D01*
X0321124Y0127882D02*
X0321727Y0127882D01*
X0321047Y0128668D02*
X0322513Y0128668D01*
X0323299Y0129454D02*
X0320722Y0129454D01*
X0319965Y0130240D02*
X0324085Y0130240D01*
X0324871Y0131026D02*
X0320373Y0131026D01*
X0320891Y0131812D02*
X0325656Y0131812D01*
X0326442Y0132598D02*
X0321124Y0132598D01*
X0321124Y0133384D02*
X0327228Y0133384D01*
X0328014Y0134170D02*
X0320840Y0134170D01*
X0320250Y0134956D02*
X0328800Y0134956D01*
X0329586Y0135741D02*
X0198839Y0135741D01*
X0198669Y0135571D02*
X0199451Y0136354D01*
X0199874Y0137376D01*
X0199874Y0138482D01*
X0199451Y0139504D01*
X0198669Y0140287D01*
X0197646Y0140710D01*
X0196540Y0140710D01*
X0195518Y0140287D01*
X0195154Y0139923D01*
X0187783Y0139923D01*
X0187419Y0140287D01*
X0186396Y0140710D01*
X0185290Y0140710D01*
X0184268Y0140287D01*
X0183485Y0139504D01*
X0183062Y0138482D01*
X0183062Y0137376D01*
X0183485Y0136354D01*
X0184268Y0135571D01*
X0185290Y0135148D01*
X0186396Y0135148D01*
X0187419Y0135571D01*
X0187783Y0135935D01*
X0195154Y0135935D01*
X0195518Y0135571D01*
X0196540Y0135148D01*
X0197646Y0135148D01*
X0198669Y0135571D01*
X0199523Y0136527D02*
X0330372Y0136527D01*
X0331158Y0137313D02*
X0199848Y0137313D01*
X0199874Y0138099D02*
X0331944Y0138099D01*
X0332599Y0138885D02*
X0199707Y0138885D01*
X0199284Y0139671D02*
X0332599Y0139671D01*
X0332599Y0140457D02*
X0247861Y0140457D01*
X0247642Y0140238D02*
X0248535Y0141131D01*
X0249018Y0142298D01*
X0249018Y0143561D01*
X0248535Y0144728D01*
X0247642Y0145621D01*
X0246475Y0146104D01*
X0245212Y0146104D01*
X0244045Y0145621D01*
X0243947Y0145523D01*
X0231489Y0145523D01*
X0231392Y0145621D01*
X0230225Y0146104D01*
X0228962Y0146104D01*
X0227795Y0145621D01*
X0226902Y0144728D01*
X0226418Y0143561D01*
X0226418Y0142298D01*
X0226902Y0141131D01*
X0227795Y0140238D01*
X0228962Y0139754D01*
X0230225Y0139754D01*
X0231392Y0140238D01*
X0231489Y0140335D01*
X0243947Y0140335D01*
X0244045Y0140238D01*
X0245212Y0139754D01*
X0246475Y0139754D01*
X0247642Y0140238D01*
X0248581Y0141243D02*
X0332599Y0141243D01*
X0332599Y0142029D02*
X0248907Y0142029D01*
X0249018Y0142815D02*
X0332599Y0142815D01*
X0332599Y0143601D02*
X0249001Y0143601D01*
X0248676Y0144387D02*
X0332599Y0144387D01*
X0332599Y0145172D02*
X0248090Y0145172D01*
X0246826Y0145958D02*
X0332599Y0145958D01*
X0332599Y0146744D02*
X0061587Y0146744D01*
X0061587Y0145958D02*
X0228610Y0145958D01*
X0227347Y0145172D02*
X0061587Y0145172D01*
X0061587Y0144387D02*
X0226760Y0144387D01*
X0226435Y0143601D02*
X0061587Y0143601D01*
X0061587Y0142815D02*
X0226418Y0142815D01*
X0226530Y0142029D02*
X0061587Y0142029D01*
X0061587Y0141243D02*
X0226855Y0141243D01*
X0227576Y0140457D02*
X0198258Y0140457D01*
X0195929Y0140457D02*
X0187008Y0140457D01*
X0184679Y0140457D02*
X0061587Y0140457D01*
X0061587Y0139671D02*
X0183652Y0139671D01*
X0183229Y0138885D02*
X0061587Y0138885D01*
X0061587Y0138099D02*
X0183062Y0138099D01*
X0183088Y0137313D02*
X0061642Y0137313D01*
X0061587Y0137368D02*
X0061587Y0153353D01*
X0079549Y0171316D01*
X0079549Y0175098D01*
X0081480Y0175098D01*
X0082296Y0175915D01*
X0082296Y0183762D01*
X0081480Y0184579D01*
X0073632Y0184579D01*
X0072816Y0183762D01*
X0072816Y0175915D01*
X0073632Y0175098D01*
X0075562Y0175098D01*
X0075562Y0172968D01*
X0058767Y0156173D01*
X0057837Y0155242D01*
X0057837Y0175098D01*
X0061794Y0175098D01*
X0062611Y0175915D01*
X0062611Y0183762D01*
X0061794Y0184579D01*
X0053947Y0184579D01*
X0053131Y0183762D01*
X0053131Y0175915D01*
X0053849Y0175196D01*
X0053849Y0133353D01*
X0055017Y0132185D01*
X0057599Y0129603D01*
X0057599Y0118618D01*
X0057235Y0118254D01*
X0056812Y0117232D01*
X0056812Y0116126D01*
X0057235Y0115104D01*
X0058018Y0114321D01*
X0059040Y0113898D01*
X0060146Y0113898D01*
X0061169Y0114321D01*
X0061951Y0115104D01*
X0062374Y0116126D01*
X0062374Y0117232D01*
X0061951Y0118254D01*
X0061587Y0118618D01*
X0061587Y0131255D01*
X0060180Y0132662D01*
X0061169Y0133071D01*
X0061951Y0133854D01*
X0062374Y0134876D01*
X0062374Y0135982D01*
X0061951Y0137004D01*
X0061587Y0137368D01*
X0062149Y0136527D02*
X0183414Y0136527D01*
X0184098Y0135741D02*
X0062374Y0135741D01*
X0062374Y0134956D02*
X0316437Y0134956D01*
X0314264Y0134170D02*
X0295693Y0134170D01*
X0295885Y0134090D02*
X0294644Y0134604D01*
X0293302Y0134604D01*
X0292061Y0134090D01*
X0291473Y0133502D01*
X0290885Y0134090D01*
X0289644Y0134604D01*
X0288302Y0134604D01*
X0287061Y0134090D01*
X0286473Y0133502D01*
X0285885Y0134090D01*
X0284644Y0134604D01*
X0283302Y0134604D01*
X0282061Y0134090D01*
X0281473Y0133502D01*
X0280885Y0134090D01*
X0279644Y0134604D01*
X0278302Y0134604D01*
X0277061Y0134090D01*
X0276473Y0133502D01*
X0275885Y0134090D01*
X0274644Y0134604D01*
X0273302Y0134604D01*
X0272061Y0134090D01*
X0271473Y0133502D01*
X0270885Y0134090D01*
X0269644Y0134604D01*
X0268302Y0134604D01*
X0267061Y0134090D01*
X0266473Y0133502D01*
X0265885Y0134090D01*
X0264644Y0134604D01*
X0263302Y0134604D01*
X0262061Y0134090D01*
X0261473Y0133502D01*
X0260885Y0134090D01*
X0259644Y0134604D01*
X0258302Y0134604D01*
X0257061Y0134090D01*
X0256473Y0133502D01*
X0255885Y0134090D01*
X0254644Y0134604D01*
X0253302Y0134604D01*
X0252061Y0134090D01*
X0251473Y0133502D01*
X0250885Y0134090D01*
X0249644Y0134604D01*
X0248302Y0134604D01*
X0247061Y0134090D01*
X0246112Y0133141D01*
X0245598Y0131900D01*
X0245598Y0126596D01*
X0246112Y0125355D01*
X0247061Y0124406D01*
X0248302Y0123892D01*
X0249644Y0123892D01*
X0250885Y0124406D01*
X0251473Y0124994D01*
X0252061Y0124406D01*
X0253302Y0123892D01*
X0254644Y0123892D01*
X0255885Y0124406D01*
X0256473Y0124994D01*
X0257061Y0124406D01*
X0258302Y0123892D01*
X0259644Y0123892D01*
X0260885Y0124406D01*
X0261473Y0124994D01*
X0262061Y0124406D01*
X0263302Y0123892D01*
X0264644Y0123892D01*
X0265885Y0124406D01*
X0266473Y0124994D01*
X0267061Y0124406D01*
X0268302Y0123892D01*
X0269644Y0123892D01*
X0270885Y0124406D01*
X0271473Y0124994D01*
X0272061Y0124406D01*
X0273302Y0123892D01*
X0274644Y0123892D01*
X0275885Y0124406D01*
X0276473Y0124994D01*
X0277061Y0124406D01*
X0278302Y0123892D01*
X0279644Y0123892D01*
X0280885Y0124406D01*
X0281473Y0124994D01*
X0282061Y0124406D01*
X0283302Y0123892D01*
X0284644Y0123892D01*
X0285885Y0124406D01*
X0286473Y0124994D01*
X0287061Y0124406D01*
X0288302Y0123892D01*
X0289644Y0123892D01*
X0290885Y0124406D01*
X0291473Y0124994D01*
X0292061Y0124406D01*
X0293302Y0123892D01*
X0294644Y0123892D01*
X0295885Y0124406D01*
X0296834Y0125355D01*
X0297348Y0126596D01*
X0297348Y0131900D01*
X0296834Y0133141D01*
X0295885Y0134090D01*
X0296591Y0133384D02*
X0313478Y0133384D01*
X0312692Y0132598D02*
X0297059Y0132598D01*
X0297348Y0131812D02*
X0311906Y0131812D01*
X0311121Y0131026D02*
X0297348Y0131026D01*
X0297348Y0130240D02*
X0310335Y0130240D01*
X0309549Y0129454D02*
X0297348Y0129454D01*
X0297348Y0128668D02*
X0308763Y0128668D01*
X0307977Y0127882D02*
X0297348Y0127882D01*
X0297348Y0127096D02*
X0307191Y0127096D01*
X0305291Y0126311D02*
X0297230Y0126311D01*
X0296904Y0125525D02*
X0304640Y0125525D01*
X0304315Y0124739D02*
X0296218Y0124739D01*
X0294791Y0123953D02*
X0304312Y0123953D01*
X0304502Y0123167D02*
X0179604Y0123167D01*
X0179954Y0123517D02*
X0179005Y0122568D01*
X0177764Y0122054D01*
X0177669Y0122054D01*
X0173676Y0118061D01*
X0172649Y0117635D01*
X0167570Y0117635D01*
X0167783Y0117423D01*
X0172654Y0117423D01*
X0173018Y0117787D01*
X0174040Y0118210D01*
X0175146Y0118210D01*
X0176169Y0117787D01*
X0176951Y0117004D01*
X0177374Y0115982D01*
X0177374Y0114876D01*
X0176951Y0113854D01*
X0176169Y0113071D01*
X0175146Y0112648D01*
X0174040Y0112648D01*
X0173018Y0113071D01*
X0172654Y0113435D01*
X0167783Y0113435D01*
X0167419Y0113071D01*
X0166396Y0112648D01*
X0165290Y0112648D01*
X0164268Y0113071D01*
X0163485Y0113854D01*
X0163062Y0114876D01*
X0163062Y0115982D01*
X0163485Y0117004D01*
X0164116Y0117635D01*
X0162822Y0117635D01*
X0162755Y0117568D01*
X0161514Y0117054D01*
X0161419Y0117054D01*
X0156137Y0111772D01*
X0156137Y0109908D01*
X0156204Y0109841D01*
X0156718Y0108600D01*
X0156718Y0107258D01*
X0156204Y0106017D01*
X0155255Y0105068D01*
X0154014Y0104554D01*
X0152672Y0104554D01*
X0151432Y0105068D01*
X0150482Y0106017D01*
X0149968Y0107258D01*
X0149968Y0108600D01*
X0150482Y0109841D01*
X0150549Y0109908D01*
X0150549Y0113485D01*
X0150975Y0114512D01*
X0157468Y0121005D01*
X0157468Y0121100D01*
X0157982Y0122341D01*
X0158932Y0123290D01*
X0160172Y0123804D01*
X0161514Y0123804D01*
X0162755Y0123290D01*
X0162822Y0123223D01*
X0170936Y0123223D01*
X0173718Y0126005D01*
X0173718Y0126100D01*
X0174232Y0127341D01*
X0175182Y0128290D01*
X0176422Y0128804D01*
X0177764Y0128804D01*
X0179005Y0128290D01*
X0179954Y0127341D01*
X0180468Y0126100D01*
X0180468Y0124758D01*
X0179954Y0123517D01*
X0180134Y0123953D02*
X0233155Y0123953D01*
X0233302Y0123892D02*
X0234644Y0123892D01*
X0235885Y0124406D01*
X0236473Y0124994D01*
X0237061Y0124406D01*
X0238302Y0123892D01*
X0239644Y0123892D01*
X0240885Y0124406D01*
X0241834Y0125355D01*
X0242348Y0126596D01*
X0242348Y0131900D01*
X0241834Y0133141D01*
X0240885Y0134090D01*
X0239644Y0134604D01*
X0238302Y0134604D01*
X0237061Y0134090D01*
X0236473Y0133502D01*
X0235885Y0134090D01*
X0234644Y0134604D01*
X0233302Y0134604D01*
X0232061Y0134090D01*
X0231112Y0133141D01*
X0230598Y0131900D01*
X0230598Y0126596D01*
X0231112Y0125355D01*
X0232061Y0124406D01*
X0233302Y0123892D01*
X0234791Y0123953D02*
X0238155Y0123953D01*
X0236729Y0124739D02*
X0236218Y0124739D01*
X0239791Y0123953D02*
X0248155Y0123953D01*
X0246729Y0124739D02*
X0241218Y0124739D01*
X0241904Y0125525D02*
X0246042Y0125525D01*
X0245716Y0126311D02*
X0242230Y0126311D01*
X0242348Y0127096D02*
X0245598Y0127096D01*
X0245598Y0127882D02*
X0242348Y0127882D01*
X0242348Y0128668D02*
X0245598Y0128668D01*
X0245598Y0129454D02*
X0242348Y0129454D01*
X0242348Y0130240D02*
X0245598Y0130240D01*
X0245598Y0131026D02*
X0242348Y0131026D01*
X0242348Y0131812D02*
X0245598Y0131812D01*
X0245887Y0132598D02*
X0242059Y0132598D01*
X0241591Y0133384D02*
X0246355Y0133384D01*
X0247253Y0134170D02*
X0240693Y0134170D01*
X0237253Y0134170D02*
X0235693Y0134170D01*
X0232253Y0134170D02*
X0062082Y0134170D01*
X0061481Y0133384D02*
X0190407Y0133384D01*
X0190182Y0133290D02*
X0189232Y0132341D01*
X0188718Y0131100D01*
X0188718Y0129758D01*
X0189232Y0128517D01*
X0190182Y0127568D01*
X0191422Y0127054D01*
X0192764Y0127054D01*
X0194005Y0127568D01*
X0194072Y0127635D01*
X0221364Y0127635D01*
X0221432Y0127568D01*
X0222672Y0127054D01*
X0224014Y0127054D01*
X0225255Y0127568D01*
X0226204Y0128517D01*
X0226718Y0129758D01*
X0226718Y0131100D01*
X0226204Y0132341D01*
X0225255Y0133290D01*
X0224014Y0133804D01*
X0222672Y0133804D01*
X0221432Y0133290D01*
X0221364Y0133223D01*
X0194072Y0133223D01*
X0194005Y0133290D01*
X0192764Y0133804D01*
X0191422Y0133804D01*
X0190182Y0133290D01*
X0189489Y0132598D02*
X0060244Y0132598D01*
X0061030Y0131812D02*
X0189013Y0131812D01*
X0188718Y0131026D02*
X0061587Y0131026D01*
X0061587Y0130240D02*
X0188718Y0130240D01*
X0188844Y0129454D02*
X0061587Y0129454D01*
X0061587Y0128668D02*
X0176094Y0128668D01*
X0174774Y0127882D02*
X0061587Y0127882D01*
X0061587Y0127096D02*
X0174131Y0127096D01*
X0173805Y0126311D02*
X0061587Y0126311D01*
X0061587Y0125525D02*
X0173238Y0125525D01*
X0172452Y0124739D02*
X0061587Y0124739D01*
X0061587Y0123953D02*
X0171666Y0123953D01*
X0175638Y0120023D02*
X0400765Y0120023D01*
X0400765Y0119237D02*
X0174852Y0119237D01*
X0174066Y0118451D02*
X0400765Y0118451D01*
X0400765Y0117665D02*
X0176290Y0117665D01*
X0177003Y0116880D02*
X0400765Y0116880D01*
X0400765Y0116094D02*
X0177328Y0116094D01*
X0177374Y0115308D02*
X0400765Y0115308D01*
X0400765Y0114522D02*
X0177228Y0114522D01*
X0176833Y0113736D02*
X0400765Y0113736D01*
X0400765Y0112950D02*
X0175875Y0112950D01*
X0173311Y0112950D02*
X0167125Y0112950D01*
X0164561Y0112950D02*
X0157315Y0112950D01*
X0158101Y0113736D02*
X0163603Y0113736D01*
X0163209Y0114522D02*
X0158887Y0114522D01*
X0159673Y0115308D02*
X0163062Y0115308D01*
X0163108Y0116094D02*
X0160459Y0116094D01*
X0161244Y0116880D02*
X0163434Y0116880D01*
X0157272Y0120809D02*
X0061587Y0120809D01*
X0061587Y0120023D02*
X0156486Y0120023D01*
X0155700Y0119237D02*
X0061587Y0119237D01*
X0061754Y0118451D02*
X0154915Y0118451D01*
X0154129Y0117665D02*
X0062195Y0117665D01*
X0062374Y0116880D02*
X0153343Y0116880D01*
X0152557Y0116094D02*
X0062361Y0116094D01*
X0062035Y0115308D02*
X0151771Y0115308D01*
X0150985Y0114522D02*
X0061369Y0114522D01*
X0057817Y0114522D02*
X0029937Y0114522D01*
X0029937Y0115308D02*
X0057151Y0115308D01*
X0056825Y0116094D02*
X0029937Y0116094D01*
X0029937Y0116880D02*
X0056812Y0116880D01*
X0056991Y0117665D02*
X0029937Y0117665D01*
X0029937Y0118451D02*
X0057432Y0118451D01*
X0057599Y0119237D02*
X0029937Y0119237D01*
X0029937Y0120023D02*
X0057599Y0120023D01*
X0057599Y0120809D02*
X0029937Y0120809D01*
X0029937Y0121595D02*
X0057599Y0121595D01*
X0057599Y0122381D02*
X0029937Y0122381D01*
X0029937Y0123167D02*
X0057599Y0123167D01*
X0057599Y0123953D02*
X0029937Y0123953D01*
X0029937Y0124739D02*
X0057599Y0124739D01*
X0057599Y0125525D02*
X0029937Y0125525D01*
X0029937Y0126311D02*
X0057599Y0126311D01*
X0057599Y0127096D02*
X0029937Y0127096D01*
X0029937Y0127882D02*
X0057599Y0127882D01*
X0057599Y0128668D02*
X0029937Y0128668D01*
X0029937Y0129454D02*
X0057599Y0129454D01*
X0056963Y0130240D02*
X0029937Y0130240D01*
X0029937Y0131026D02*
X0056177Y0131026D01*
X0055391Y0131812D02*
X0029937Y0131812D01*
X0029937Y0132598D02*
X0054605Y0132598D01*
X0053849Y0133384D02*
X0029937Y0133384D01*
X0029937Y0134170D02*
X0053849Y0134170D01*
X0053849Y0134956D02*
X0029937Y0134956D01*
X0029937Y0135741D02*
X0053849Y0135741D01*
X0053849Y0136527D02*
X0029937Y0136527D01*
X0029937Y0137313D02*
X0053849Y0137313D01*
X0053849Y0138099D02*
X0029937Y0138099D01*
X0029937Y0138885D02*
X0053849Y0138885D01*
X0053849Y0139671D02*
X0029937Y0139671D01*
X0029937Y0140457D02*
X0053849Y0140457D01*
X0053849Y0141243D02*
X0029937Y0141243D01*
X0029937Y0142029D02*
X0053849Y0142029D01*
X0053849Y0142815D02*
X0029937Y0142815D01*
X0029937Y0143601D02*
X0053849Y0143601D01*
X0053849Y0144387D02*
X0029937Y0144387D01*
X0029937Y0145172D02*
X0053849Y0145172D01*
X0053849Y0145958D02*
X0029937Y0145958D01*
X0029937Y0146744D02*
X0053849Y0146744D01*
X0053849Y0147530D02*
X0029937Y0147530D01*
X0029937Y0148316D02*
X0053849Y0148316D01*
X0053849Y0149102D02*
X0029937Y0149102D01*
X0029937Y0149888D02*
X0053849Y0149888D01*
X0053849Y0150674D02*
X0029937Y0150674D01*
X0029937Y0151460D02*
X0053849Y0151460D01*
X0053849Y0152246D02*
X0029937Y0152246D01*
X0029937Y0153032D02*
X0053849Y0153032D01*
X0053849Y0153817D02*
X0029937Y0153817D01*
X0029937Y0154603D02*
X0053849Y0154603D01*
X0053849Y0155389D02*
X0029937Y0155389D01*
X0029937Y0156175D02*
X0053849Y0156175D01*
X0053849Y0156961D02*
X0029937Y0156961D01*
X0029937Y0157747D02*
X0053849Y0157747D01*
X0053849Y0158533D02*
X0029937Y0158533D01*
X0029937Y0159319D02*
X0053849Y0159319D01*
X0053849Y0160105D02*
X0029937Y0160105D01*
X0029937Y0160891D02*
X0053849Y0160891D01*
X0053849Y0161677D02*
X0029937Y0161677D01*
X0029937Y0162463D02*
X0053849Y0162463D01*
X0053849Y0163248D02*
X0029937Y0163248D01*
X0029937Y0164034D02*
X0053849Y0164034D01*
X0053849Y0164820D02*
X0029937Y0164820D01*
X0029937Y0165606D02*
X0053849Y0165606D01*
X0053849Y0166392D02*
X0029937Y0166392D01*
X0029937Y0167178D02*
X0053849Y0167178D01*
X0053849Y0167964D02*
X0029937Y0167964D01*
X0029937Y0168750D02*
X0053849Y0168750D01*
X0053849Y0169536D02*
X0029937Y0169536D01*
X0029937Y0170322D02*
X0053849Y0170322D01*
X0053849Y0171108D02*
X0029937Y0171108D01*
X0029937Y0171893D02*
X0053849Y0171893D01*
X0053849Y0172679D02*
X0029937Y0172679D01*
X0029937Y0173465D02*
X0053849Y0173465D01*
X0053849Y0174251D02*
X0029937Y0174251D01*
X0029937Y0175037D02*
X0053849Y0175037D01*
X0053222Y0175823D02*
X0029937Y0175823D01*
X0029937Y0176609D02*
X0053131Y0176609D01*
X0053131Y0177395D02*
X0029937Y0177395D01*
X0029937Y0178181D02*
X0053131Y0178181D01*
X0053131Y0178967D02*
X0029937Y0178967D01*
X0029937Y0179753D02*
X0053131Y0179753D01*
X0053131Y0180538D02*
X0029937Y0180538D01*
X0029937Y0181324D02*
X0053131Y0181324D01*
X0053131Y0182110D02*
X0029937Y0182110D01*
X0029937Y0182896D02*
X0053131Y0182896D01*
X0053131Y0183682D02*
X0029937Y0183682D01*
X0029937Y0184468D02*
X0053836Y0184468D01*
X0061905Y0184468D02*
X0073521Y0184468D01*
X0072816Y0183682D02*
X0062611Y0183682D01*
X0062611Y0182896D02*
X0072816Y0182896D01*
X0072816Y0182110D02*
X0062611Y0182110D01*
X0062611Y0181324D02*
X0072816Y0181324D01*
X0072816Y0180538D02*
X0062611Y0180538D01*
X0062611Y0179753D02*
X0072816Y0179753D01*
X0072816Y0178967D02*
X0062611Y0178967D01*
X0062611Y0178181D02*
X0072816Y0178181D01*
X0072816Y0177395D02*
X0062611Y0177395D01*
X0062611Y0176609D02*
X0072816Y0176609D01*
X0072907Y0175823D02*
X0062519Y0175823D01*
X0057837Y0175037D02*
X0075562Y0175037D01*
X0075562Y0174251D02*
X0057837Y0174251D01*
X0057837Y0173465D02*
X0075562Y0173465D01*
X0075274Y0172679D02*
X0057837Y0172679D01*
X0057837Y0171893D02*
X0074488Y0171893D01*
X0073702Y0171108D02*
X0057837Y0171108D01*
X0057837Y0170322D02*
X0072916Y0170322D01*
X0072130Y0169536D02*
X0057837Y0169536D01*
X0057837Y0168750D02*
X0071344Y0168750D01*
X0070558Y0167964D02*
X0057837Y0167964D01*
X0057837Y0167178D02*
X0069773Y0167178D01*
X0068987Y0166392D02*
X0057837Y0166392D01*
X0057837Y0165606D02*
X0068201Y0165606D01*
X0067415Y0164820D02*
X0057837Y0164820D01*
X0057837Y0164034D02*
X0066629Y0164034D01*
X0065843Y0163248D02*
X0057837Y0163248D01*
X0057837Y0162463D02*
X0065057Y0162463D01*
X0064271Y0161677D02*
X0057837Y0161677D01*
X0057837Y0160891D02*
X0063485Y0160891D01*
X0062699Y0160105D02*
X0057837Y0160105D01*
X0057837Y0159319D02*
X0061913Y0159319D01*
X0061127Y0158533D02*
X0057837Y0158533D01*
X0057837Y0157747D02*
X0060342Y0157747D01*
X0059556Y0156961D02*
X0057837Y0156961D01*
X0057837Y0156175D02*
X0058770Y0156175D01*
X0057984Y0155389D02*
X0057837Y0155389D01*
X0061587Y0153032D02*
X0332599Y0153032D01*
X0332599Y0153817D02*
X0062051Y0153817D01*
X0062837Y0154603D02*
X0107132Y0154603D01*
X0106295Y0154950D02*
X0108978Y0153839D01*
X0111882Y0153839D01*
X0114564Y0154950D01*
X0116618Y0157003D01*
X0117729Y0159686D01*
X0117729Y0174401D01*
X0116618Y0177083D01*
X0114564Y0179137D01*
X0111882Y0180248D01*
X0108978Y0180248D01*
X0106295Y0179137D01*
X0104242Y0177083D01*
X0103131Y0174401D01*
X0103131Y0159686D01*
X0104242Y0157003D01*
X0106295Y0154950D01*
X0105856Y0155389D02*
X0063623Y0155389D01*
X0064409Y0156175D02*
X0105070Y0156175D01*
X0104284Y0156961D02*
X0065195Y0156961D01*
X0065981Y0157747D02*
X0103934Y0157747D01*
X0103608Y0158533D02*
X0066766Y0158533D01*
X0067552Y0159319D02*
X0103283Y0159319D01*
X0103131Y0160105D02*
X0068338Y0160105D01*
X0069124Y0160891D02*
X0103131Y0160891D01*
X0103131Y0161677D02*
X0069910Y0161677D01*
X0070696Y0162463D02*
X0103131Y0162463D01*
X0103131Y0163248D02*
X0071482Y0163248D01*
X0072268Y0164034D02*
X0103131Y0164034D01*
X0103131Y0164820D02*
X0073054Y0164820D01*
X0073840Y0165606D02*
X0103131Y0165606D01*
X0103131Y0166392D02*
X0074626Y0166392D01*
X0075412Y0167178D02*
X0103131Y0167178D01*
X0103131Y0167964D02*
X0076197Y0167964D01*
X0076983Y0168750D02*
X0103131Y0168750D01*
X0103131Y0169536D02*
X0077769Y0169536D01*
X0078555Y0170322D02*
X0103131Y0170322D01*
X0103131Y0171108D02*
X0079341Y0171108D01*
X0079549Y0171893D02*
X0103131Y0171893D01*
X0103131Y0172679D02*
X0079549Y0172679D01*
X0079549Y0173465D02*
X0103131Y0173465D01*
X0103131Y0174251D02*
X0079549Y0174251D01*
X0079549Y0175037D02*
X0103394Y0175037D01*
X0103720Y0175823D02*
X0082204Y0175823D01*
X0082296Y0176609D02*
X0104045Y0176609D01*
X0104553Y0177395D02*
X0082296Y0177395D01*
X0082296Y0178181D02*
X0105339Y0178181D01*
X0106125Y0178967D02*
X0082296Y0178967D01*
X0082296Y0179753D02*
X0107782Y0179753D01*
X0113078Y0179753D02*
X0127587Y0179753D01*
X0127055Y0180538D02*
X0082296Y0180538D01*
X0082296Y0181324D02*
X0126812Y0181324D01*
X0126812Y0182110D02*
X0082296Y0182110D01*
X0082296Y0182896D02*
X0127087Y0182896D01*
X0126157Y0183682D02*
X0082296Y0183682D01*
X0081590Y0184468D02*
X0125731Y0184468D01*
X0125562Y0185254D02*
X0029937Y0185254D01*
X0029937Y0186040D02*
X0125586Y0186040D01*
X0124263Y0186826D02*
X0029937Y0186826D01*
X0029937Y0187612D02*
X0123482Y0187612D01*
X0123157Y0188398D02*
X0029937Y0188398D01*
X0029937Y0189184D02*
X0123062Y0189184D01*
X0123160Y0189969D02*
X0029937Y0189969D01*
X0029937Y0190755D02*
X0123486Y0190755D01*
X0124279Y0191541D02*
X0029937Y0191541D01*
X0029937Y0192327D02*
X0240751Y0192327D01*
X0240367Y0191541D02*
X0239908Y0191541D01*
X0241537Y0193113D02*
X0029937Y0193113D01*
X0061587Y0152246D02*
X0332599Y0152246D01*
X0332599Y0151460D02*
X0061587Y0151460D01*
X0061587Y0150674D02*
X0332599Y0150674D01*
X0332599Y0149888D02*
X0061587Y0149888D01*
X0061587Y0149102D02*
X0332599Y0149102D01*
X0332599Y0148316D02*
X0061587Y0148316D01*
X0061587Y0147530D02*
X0332599Y0147530D01*
X0332599Y0154603D02*
X0113728Y0154603D01*
X0115004Y0155389D02*
X0332599Y0155389D01*
X0332599Y0156175D02*
X0115790Y0156175D01*
X0116576Y0156961D02*
X0332599Y0156961D01*
X0332599Y0157747D02*
X0116926Y0157747D01*
X0117251Y0158533D02*
X0242643Y0158533D01*
X0244044Y0158533D02*
X0332599Y0158533D01*
X0332599Y0159319D02*
X0297412Y0159319D01*
X0298201Y0160105D02*
X0332599Y0160105D01*
X0332599Y0160891D02*
X0301723Y0160891D01*
X0303113Y0161677D02*
X0332599Y0161677D01*
X0332599Y0162463D02*
X0303785Y0162463D01*
X0304111Y0163248D02*
X0332599Y0163248D01*
X0332599Y0164034D02*
X0304649Y0164034D01*
X0305435Y0164820D02*
X0332599Y0164820D01*
X0332599Y0165606D02*
X0306221Y0165606D01*
X0307007Y0166392D02*
X0332599Y0166392D01*
X0332599Y0167178D02*
X0307793Y0167178D01*
X0308579Y0167964D02*
X0332599Y0167964D01*
X0332599Y0168750D02*
X0309365Y0168750D01*
X0310151Y0169536D02*
X0332599Y0169536D01*
X0332916Y0170322D02*
X0310937Y0170322D01*
X0311722Y0171108D02*
X0333702Y0171108D01*
X0334488Y0171893D02*
X0312508Y0171893D01*
X0313294Y0172679D02*
X0335274Y0172679D01*
X0336060Y0173465D02*
X0314080Y0173465D01*
X0314866Y0174251D02*
X0336846Y0174251D01*
X0337632Y0175037D02*
X0315652Y0175037D01*
X0316012Y0175823D02*
X0338418Y0175823D01*
X0339203Y0176609D02*
X0316137Y0176609D01*
X0316137Y0177395D02*
X0339379Y0177395D01*
X0339705Y0178181D02*
X0316137Y0178181D01*
X0316137Y0178967D02*
X0340448Y0178967D01*
X0311254Y0193113D02*
X0245149Y0193113D01*
X0245935Y0192327D02*
X0310477Y0192327D01*
X0310151Y0191541D02*
X0309908Y0191541D01*
X0306779Y0191541D02*
X0304908Y0191541D01*
X0305700Y0190755D02*
X0305986Y0190755D01*
X0301779Y0191541D02*
X0246319Y0191541D01*
X0246518Y0190755D02*
X0300986Y0190755D01*
X0300660Y0189969D02*
X0246518Y0189969D01*
X0246264Y0189184D02*
X0294622Y0189184D01*
X0293629Y0188398D02*
X0245937Y0188398D01*
X0245937Y0187612D02*
X0293219Y0187612D01*
X0293062Y0186826D02*
X0245937Y0186826D01*
X0245937Y0186040D02*
X0293098Y0186040D01*
X0293423Y0185254D02*
X0245937Y0185254D01*
X0245937Y0184468D02*
X0293849Y0184468D01*
X0293849Y0183682D02*
X0245937Y0183682D01*
X0245937Y0182896D02*
X0293849Y0182896D01*
X0293849Y0182110D02*
X0245937Y0182110D01*
X0245937Y0181324D02*
X0293849Y0181324D01*
X0293849Y0180538D02*
X0245937Y0180538D01*
X0245937Y0179753D02*
X0293849Y0179753D01*
X0293849Y0178967D02*
X0245937Y0178967D01*
X0245937Y0178181D02*
X0293849Y0178181D01*
X0293849Y0177395D02*
X0245937Y0177395D01*
X0245937Y0176609D02*
X0293849Y0176609D01*
X0293849Y0175823D02*
X0245937Y0175823D01*
X0245937Y0175037D02*
X0293849Y0175037D01*
X0293849Y0174251D02*
X0245937Y0174251D01*
X0245937Y0173465D02*
X0293849Y0173465D01*
X0293849Y0172679D02*
X0245937Y0172679D01*
X0245937Y0171893D02*
X0293849Y0171893D01*
X0293849Y0171108D02*
X0245937Y0171108D01*
X0245937Y0170322D02*
X0293849Y0170322D01*
X0293849Y0169536D02*
X0245937Y0169536D01*
X0245937Y0168750D02*
X0293849Y0168750D01*
X0293849Y0167964D02*
X0245937Y0167964D01*
X0245937Y0167178D02*
X0293849Y0167178D01*
X0293849Y0166392D02*
X0245937Y0166392D01*
X0245937Y0165606D02*
X0293849Y0165606D01*
X0293849Y0164820D02*
X0245937Y0164820D01*
X0245937Y0164034D02*
X0293849Y0164034D01*
X0293483Y0163248D02*
X0246130Y0163248D01*
X0246455Y0162463D02*
X0293157Y0162463D01*
X0293062Y0161677D02*
X0246518Y0161677D01*
X0246453Y0160891D02*
X0293160Y0160891D01*
X0293485Y0160105D02*
X0246127Y0160105D01*
X0245473Y0159319D02*
X0294274Y0159319D01*
X0298527Y0160891D02*
X0299963Y0160891D01*
X0298283Y0166392D02*
X0297837Y0166392D01*
X0297837Y0167178D02*
X0299264Y0167178D01*
X0300677Y0167964D02*
X0297837Y0167964D01*
X0297837Y0168750D02*
X0301463Y0168750D01*
X0302249Y0169536D02*
X0297837Y0169536D01*
X0297837Y0170322D02*
X0303035Y0170322D01*
X0303821Y0171108D02*
X0297837Y0171108D01*
X0297837Y0171893D02*
X0304607Y0171893D01*
X0305393Y0172679D02*
X0297837Y0172679D01*
X0297837Y0173465D02*
X0306178Y0173465D01*
X0306964Y0174251D02*
X0297837Y0174251D01*
X0297837Y0175037D02*
X0307750Y0175037D01*
X0307670Y0175823D02*
X0308536Y0175823D01*
X0308307Y0176609D02*
X0309322Y0176609D01*
X0308624Y0177395D02*
X0310108Y0177395D01*
X0310549Y0178181D02*
X0308624Y0178181D01*
X0309062Y0178967D02*
X0310549Y0178967D01*
X0310549Y0179753D02*
X0310350Y0179753D01*
X0303380Y0176609D02*
X0297837Y0176609D01*
X0297837Y0177395D02*
X0303062Y0177395D01*
X0302772Y0178181D02*
X0297837Y0178181D01*
X0297837Y0178967D02*
X0301986Y0178967D01*
X0301349Y0179753D02*
X0297837Y0179753D01*
X0297837Y0180538D02*
X0301349Y0180538D01*
X0301349Y0181324D02*
X0297837Y0181324D01*
X0297837Y0182110D02*
X0301349Y0182110D01*
X0301349Y0182896D02*
X0297837Y0182896D01*
X0297837Y0183682D02*
X0301349Y0183682D01*
X0301349Y0184468D02*
X0297837Y0184468D01*
X0298263Y0185254D02*
X0301349Y0185254D01*
X0301349Y0186040D02*
X0298589Y0186040D01*
X0298624Y0186826D02*
X0301349Y0186826D01*
X0300982Y0187612D02*
X0298467Y0187612D01*
X0298058Y0188398D02*
X0300657Y0188398D01*
X0300562Y0189184D02*
X0297064Y0189184D01*
X0297837Y0175823D02*
X0304016Y0175823D01*
X0281016Y0211189D02*
X0231039Y0211189D01*
X0230713Y0211975D02*
X0279807Y0211975D01*
X0279244Y0212761D02*
X0230337Y0212761D01*
X0230337Y0213547D02*
X0278919Y0213547D01*
X0278272Y0214333D02*
X0230337Y0214333D01*
X0230852Y0215119D02*
X0277486Y0215119D01*
X0276700Y0215905D02*
X0231638Y0215905D01*
X0232424Y0216690D02*
X0275914Y0216690D01*
X0275128Y0217476D02*
X0233210Y0217476D01*
X0233996Y0218262D02*
X0274342Y0218262D01*
X0273556Y0219048D02*
X0234782Y0219048D01*
X0235568Y0219834D02*
X0272770Y0219834D01*
X0271984Y0220620D02*
X0237467Y0220620D01*
X0238222Y0221406D02*
X0271198Y0221406D01*
X0270412Y0222192D02*
X0238548Y0222192D01*
X0238624Y0222978D02*
X0269626Y0222978D01*
X0268841Y0223764D02*
X0238508Y0223764D01*
X0238156Y0224550D02*
X0268055Y0224550D01*
X0267269Y0225336D02*
X0237301Y0225336D01*
X0234084Y0226121D02*
X0266483Y0226121D01*
X0256266Y0236338D02*
X0253531Y0236338D01*
X0266970Y0281135D02*
X0275168Y0281135D01*
X0275168Y0281921D02*
X0267503Y0281921D01*
X0267503Y0282707D02*
X0275333Y0282707D01*
X0275667Y0283493D02*
X0267503Y0283493D01*
X0267503Y0284279D02*
X0276453Y0284279D01*
X0278061Y0285065D02*
X0267503Y0285065D01*
X0267503Y0285851D02*
X0278847Y0285851D01*
X0279633Y0286637D02*
X0267503Y0286637D01*
X0267503Y0287423D02*
X0280419Y0287423D01*
X0281205Y0288209D02*
X0267235Y0288209D01*
X0213626Y0300783D02*
X0210337Y0300783D01*
X0210337Y0301569D02*
X0212840Y0301569D01*
X0212408Y0302355D02*
X0210337Y0302355D01*
X0210337Y0303141D02*
X0212082Y0303141D01*
X0211861Y0303927D02*
X0210337Y0303927D01*
X0210337Y0304713D02*
X0211861Y0304713D01*
X0211861Y0305499D02*
X0210337Y0305499D01*
X0210337Y0306285D02*
X0211861Y0306285D01*
X0211861Y0307070D02*
X0210337Y0307070D01*
X0210337Y0307856D02*
X0211861Y0307856D01*
X0211861Y0308642D02*
X0210337Y0308642D01*
X0210337Y0309428D02*
X0211861Y0309428D01*
X0211861Y0310214D02*
X0210337Y0310214D01*
X0210337Y0311000D02*
X0211861Y0311000D01*
X0211861Y0311786D02*
X0210337Y0311786D01*
X0210337Y0312572D02*
X0211861Y0312572D01*
X0211861Y0313358D02*
X0210966Y0313358D01*
X0211752Y0314144D02*
X0212155Y0314144D01*
X0205686Y0321217D02*
X0031010Y0321217D01*
X0030540Y0320431D02*
X0204901Y0320431D01*
X0204115Y0319645D02*
X0030284Y0319645D01*
X0030029Y0318859D02*
X0203329Y0318859D01*
X0202543Y0318073D02*
X0029956Y0318073D01*
X0029937Y0317287D02*
X0115237Y0317287D01*
X0113802Y0316501D02*
X0029937Y0316501D01*
X0029937Y0315716D02*
X0113016Y0315716D01*
X0112481Y0314930D02*
X0029937Y0314930D01*
X0029937Y0314144D02*
X0112155Y0314144D01*
X0111861Y0313358D02*
X0029937Y0313358D01*
X0029937Y0312572D02*
X0111861Y0312572D01*
X0111861Y0311786D02*
X0029937Y0311786D01*
X0029937Y0311000D02*
X0111861Y0311000D01*
X0111861Y0310214D02*
X0029937Y0310214D01*
X0029937Y0309428D02*
X0111861Y0309428D01*
X0111861Y0308642D02*
X0029937Y0308642D01*
X0029937Y0307856D02*
X0111861Y0307856D01*
X0111861Y0307070D02*
X0029937Y0307070D01*
X0029937Y0306285D02*
X0111861Y0306285D01*
X0111861Y0305499D02*
X0029937Y0305499D01*
X0029937Y0304713D02*
X0111861Y0304713D01*
X0111861Y0303927D02*
X0029937Y0303927D01*
X0029937Y0303141D02*
X0112082Y0303141D01*
X0112408Y0302355D02*
X0029937Y0302355D01*
X0029937Y0301569D02*
X0112840Y0301569D01*
X0113626Y0300783D02*
X0029937Y0300783D01*
X0031581Y0322003D02*
X0206472Y0322003D01*
X0207258Y0322789D02*
X0032488Y0322789D01*
X0033822Y0323575D02*
X0208044Y0323575D01*
X0201757Y0317287D02*
X0198949Y0317287D01*
X0200384Y0316501D02*
X0201349Y0316501D01*
X0201349Y0315716D02*
X0201170Y0315716D01*
X0180617Y0294496D02*
X0179687Y0294496D01*
X0179687Y0293710D02*
X0179831Y0293710D01*
X0171223Y0291352D02*
X0078160Y0291352D01*
X0078705Y0290566D02*
X0170437Y0290566D01*
X0169651Y0289780D02*
X0079018Y0289780D01*
X0079018Y0288994D02*
X0168865Y0288994D01*
X0168080Y0288209D02*
X0157235Y0288209D01*
X0157503Y0287940D02*
X0156686Y0288757D01*
X0151201Y0288757D01*
X0150385Y0287940D01*
X0150385Y0287487D01*
X0150146Y0287585D01*
X0149040Y0287585D01*
X0148018Y0287162D01*
X0147235Y0286379D01*
X0146812Y0285357D01*
X0146812Y0284251D01*
X0147235Y0283229D01*
X0148018Y0282446D01*
X0149040Y0282023D01*
X0150146Y0282023D01*
X0150385Y0282122D01*
X0150385Y0281668D01*
X0151201Y0280851D01*
X0156686Y0280851D01*
X0157503Y0281668D01*
X0157503Y0287940D01*
X0157503Y0287423D02*
X0167294Y0287423D01*
X0166508Y0286637D02*
X0157503Y0286637D01*
X0157503Y0285851D02*
X0165722Y0285851D01*
X0164936Y0285065D02*
X0157503Y0285065D01*
X0157503Y0284279D02*
X0164586Y0284279D01*
X0164499Y0283493D02*
X0157503Y0283493D01*
X0157503Y0282707D02*
X0164499Y0282707D01*
X0164499Y0281921D02*
X0157503Y0281921D01*
X0156970Y0281135D02*
X0164499Y0281135D01*
X0164499Y0280349D02*
X0063182Y0280349D01*
X0063967Y0281135D02*
X0110917Y0281135D01*
X0111201Y0280851D02*
X0116686Y0280851D01*
X0117503Y0281668D01*
X0117503Y0287940D01*
X0116686Y0288757D01*
X0111201Y0288757D01*
X0110385Y0287940D01*
X0110385Y0287487D01*
X0110146Y0287585D01*
X0109040Y0287585D01*
X0108018Y0287162D01*
X0107235Y0286379D01*
X0106812Y0285357D01*
X0106812Y0284251D01*
X0107235Y0283229D01*
X0108018Y0282446D01*
X0109040Y0282023D01*
X0110146Y0282023D01*
X0110385Y0282122D01*
X0110385Y0281668D01*
X0111201Y0280851D01*
X0110385Y0281921D02*
X0064753Y0281921D01*
X0065539Y0282707D02*
X0107757Y0282707D01*
X0107126Y0283493D02*
X0066325Y0283493D01*
X0067111Y0284279D02*
X0106812Y0284279D01*
X0106812Y0285065D02*
X0067897Y0285065D01*
X0068683Y0285851D02*
X0107016Y0285851D01*
X0107493Y0286637D02*
X0077791Y0286637D01*
X0078552Y0287423D02*
X0108648Y0287423D01*
X0110653Y0288209D02*
X0078878Y0288209D01*
X0062396Y0279564D02*
X0164499Y0279564D01*
X0164499Y0278778D02*
X0061610Y0278778D01*
X0060824Y0277992D02*
X0164499Y0277992D01*
X0164499Y0277206D02*
X0060038Y0277206D01*
X0059252Y0276420D02*
X0164499Y0276420D01*
X0164499Y0275634D02*
X0140109Y0275634D01*
X0140142Y0275621D02*
X0138975Y0276104D01*
X0137712Y0276104D01*
X0136545Y0275621D01*
X0136447Y0275523D01*
X0122739Y0275523D01*
X0122642Y0275621D01*
X0121475Y0276104D01*
X0120212Y0276104D01*
X0119045Y0275621D01*
X0118152Y0274728D01*
X0117668Y0273561D01*
X0117668Y0272298D01*
X0118152Y0271131D01*
X0119045Y0270238D01*
X0120212Y0269754D01*
X0121475Y0269754D01*
X0122642Y0270238D01*
X0122739Y0270335D01*
X0136447Y0270335D01*
X0136545Y0270238D01*
X0137712Y0269754D01*
X0138975Y0269754D01*
X0140142Y0270238D01*
X0141035Y0271131D01*
X0141518Y0272298D01*
X0141518Y0273561D01*
X0141035Y0274728D01*
X0140142Y0275621D01*
X0140914Y0274848D02*
X0164499Y0274848D01*
X0164499Y0274062D02*
X0141310Y0274062D01*
X0141518Y0273276D02*
X0164499Y0273276D01*
X0164499Y0272490D02*
X0141518Y0272490D01*
X0141272Y0271704D02*
X0164499Y0271704D01*
X0164499Y0270918D02*
X0140822Y0270918D01*
X0139888Y0270133D02*
X0164499Y0270133D01*
X0164499Y0269347D02*
X0057187Y0269347D01*
X0057187Y0270133D02*
X0119299Y0270133D01*
X0118364Y0270918D02*
X0057187Y0270918D01*
X0057187Y0271704D02*
X0117914Y0271704D01*
X0117668Y0272490D02*
X0057187Y0272490D01*
X0057187Y0273276D02*
X0117668Y0273276D01*
X0117876Y0274062D02*
X0057463Y0274062D01*
X0057768Y0274848D02*
X0118272Y0274848D01*
X0119077Y0275634D02*
X0058466Y0275634D01*
X0057187Y0268561D02*
X0164499Y0268561D01*
X0164499Y0267775D02*
X0057187Y0267775D01*
X0057187Y0266989D02*
X0164499Y0266989D01*
X0164499Y0266203D02*
X0057187Y0266203D01*
X0057187Y0265417D02*
X0164499Y0265417D01*
X0164499Y0264631D02*
X0057187Y0264631D01*
X0057187Y0263845D02*
X0164499Y0263845D01*
X0164499Y0263059D02*
X0057187Y0263059D01*
X0057239Y0262273D02*
X0164499Y0262273D01*
X0164499Y0261488D02*
X0057591Y0261488D01*
X0057768Y0260702D02*
X0164499Y0260702D01*
X0164499Y0259916D02*
X0057768Y0259916D01*
X0057491Y0259130D02*
X0164499Y0259130D01*
X0164499Y0258344D02*
X0056998Y0258344D01*
X0055958Y0257558D02*
X0164499Y0257558D01*
X0150917Y0281135D02*
X0136970Y0281135D01*
X0136686Y0280851D02*
X0137503Y0281668D01*
X0137503Y0287940D01*
X0136686Y0288757D01*
X0131201Y0288757D01*
X0130385Y0287940D01*
X0130385Y0287487D01*
X0130146Y0287585D01*
X0129040Y0287585D01*
X0128018Y0287162D01*
X0127235Y0286379D01*
X0126812Y0285357D01*
X0126812Y0284251D01*
X0127235Y0283229D01*
X0128018Y0282446D01*
X0129040Y0282023D01*
X0130146Y0282023D01*
X0130385Y0282122D01*
X0130385Y0281668D01*
X0131201Y0280851D01*
X0136686Y0280851D01*
X0137503Y0281921D02*
X0150385Y0281921D01*
X0147757Y0282707D02*
X0137503Y0282707D01*
X0137503Y0283493D02*
X0147126Y0283493D01*
X0146812Y0284279D02*
X0137503Y0284279D01*
X0137503Y0285065D02*
X0146812Y0285065D01*
X0147016Y0285851D02*
X0137503Y0285851D01*
X0137503Y0286637D02*
X0147493Y0286637D01*
X0148648Y0287423D02*
X0137503Y0287423D01*
X0137235Y0288209D02*
X0150653Y0288209D01*
X0136577Y0275634D02*
X0122609Y0275634D01*
X0116970Y0281135D02*
X0130917Y0281135D01*
X0130385Y0281921D02*
X0117503Y0281921D01*
X0117503Y0282707D02*
X0127757Y0282707D01*
X0127126Y0283493D02*
X0117503Y0283493D01*
X0117503Y0284279D02*
X0126812Y0284279D01*
X0126812Y0285065D02*
X0117503Y0285065D01*
X0117503Y0285851D02*
X0127016Y0285851D01*
X0127493Y0286637D02*
X0117503Y0286637D01*
X0117503Y0287423D02*
X0128648Y0287423D01*
X0130653Y0288209D02*
X0117235Y0288209D01*
X0122388Y0270133D02*
X0136799Y0270133D01*
X0236158Y0191541D02*
X0236779Y0191541D01*
X0232599Y0177395D02*
X0116306Y0177395D01*
X0116814Y0176609D02*
X0232599Y0176609D01*
X0232599Y0175823D02*
X0117140Y0175823D01*
X0117465Y0175037D02*
X0232599Y0175037D01*
X0232599Y0174251D02*
X0117729Y0174251D01*
X0117729Y0173465D02*
X0232599Y0173465D01*
X0232599Y0172679D02*
X0117729Y0172679D01*
X0117729Y0171893D02*
X0232599Y0171893D01*
X0232599Y0171108D02*
X0117729Y0171108D01*
X0117729Y0170322D02*
X0232599Y0170322D01*
X0232599Y0169536D02*
X0117729Y0169536D01*
X0117729Y0168750D02*
X0232599Y0168750D01*
X0232599Y0167964D02*
X0117729Y0167964D01*
X0117729Y0167178D02*
X0232599Y0167178D01*
X0232599Y0166392D02*
X0117729Y0166392D01*
X0117729Y0165606D02*
X0232599Y0165606D01*
X0232599Y0164820D02*
X0117729Y0164820D01*
X0117729Y0164034D02*
X0232599Y0164034D01*
X0232233Y0163248D02*
X0117729Y0163248D01*
X0117729Y0162463D02*
X0231907Y0162463D01*
X0231812Y0161677D02*
X0117729Y0161677D01*
X0117729Y0160891D02*
X0231910Y0160891D01*
X0232235Y0160105D02*
X0117729Y0160105D01*
X0117577Y0159319D02*
X0233024Y0159319D01*
X0236162Y0159319D02*
X0236774Y0159319D01*
X0239912Y0159319D02*
X0241214Y0159319D01*
X0244860Y0145958D02*
X0230576Y0145958D01*
X0231355Y0133384D02*
X0225029Y0133384D01*
X0225947Y0132598D02*
X0230887Y0132598D01*
X0230598Y0131812D02*
X0226423Y0131812D01*
X0226718Y0131026D02*
X0230598Y0131026D01*
X0230598Y0130240D02*
X0226718Y0130240D01*
X0226592Y0129454D02*
X0230598Y0129454D01*
X0230598Y0128668D02*
X0226267Y0128668D01*
X0225569Y0127882D02*
X0230598Y0127882D01*
X0230598Y0127096D02*
X0224116Y0127096D01*
X0222570Y0127096D02*
X0192866Y0127096D01*
X0191320Y0127096D02*
X0180055Y0127096D01*
X0180381Y0126311D02*
X0230716Y0126311D01*
X0231042Y0125525D02*
X0180468Y0125525D01*
X0180460Y0124739D02*
X0231729Y0124739D01*
X0221657Y0133384D02*
X0193779Y0133384D01*
X0195348Y0135741D02*
X0187589Y0135741D01*
X0189170Y0128668D02*
X0178092Y0128668D01*
X0179413Y0127882D02*
X0189867Y0127882D01*
X0178553Y0122381D02*
X0304958Y0122381D01*
X0306064Y0121595D02*
X0177210Y0121595D01*
X0176424Y0120809D02*
X0309030Y0120809D01*
X0308386Y0121595D02*
X0308122Y0121595D01*
X0312656Y0120809D02*
X0400765Y0120809D01*
X0400765Y0112164D02*
X0156529Y0112164D01*
X0156137Y0111378D02*
X0400765Y0111378D01*
X0400765Y0110592D02*
X0156137Y0110592D01*
X0156218Y0109806D02*
X0400765Y0109806D01*
X0400765Y0109020D02*
X0156544Y0109020D01*
X0156718Y0108235D02*
X0400765Y0108235D01*
X0400765Y0107449D02*
X0156718Y0107449D01*
X0156471Y0106663D02*
X0400765Y0106663D01*
X0400765Y0105877D02*
X0156064Y0105877D01*
X0155278Y0105091D02*
X0400765Y0105091D01*
X0400765Y0104305D02*
X0140597Y0104305D01*
X0140597Y0105091D02*
X0151409Y0105091D01*
X0150623Y0105877D02*
X0140597Y0105877D01*
X0140323Y0106663D02*
X0150215Y0106663D01*
X0149968Y0107449D02*
X0139998Y0107449D01*
X0139672Y0108235D02*
X0149968Y0108235D01*
X0150142Y0109020D02*
X0139168Y0109020D01*
X0138382Y0109806D02*
X0150468Y0109806D01*
X0150549Y0110592D02*
X0137596Y0110592D01*
X0135980Y0111378D02*
X0150549Y0111378D01*
X0150549Y0112164D02*
X0029937Y0112164D01*
X0029937Y0111378D02*
X0083206Y0111378D01*
X0081590Y0110592D02*
X0029937Y0110592D01*
X0029937Y0109806D02*
X0080804Y0109806D01*
X0080019Y0109020D02*
X0029937Y0109020D01*
X0029937Y0108235D02*
X0079514Y0108235D01*
X0079189Y0107449D02*
X0029937Y0107449D01*
X0029937Y0106663D02*
X0078863Y0106663D01*
X0078589Y0105877D02*
X0029937Y0105877D01*
X0029937Y0105091D02*
X0078589Y0105091D01*
X0078589Y0104305D02*
X0029937Y0104305D01*
X0029937Y0103519D02*
X0078589Y0103519D01*
X0078589Y0102733D02*
X0029937Y0102733D01*
X0029937Y0101947D02*
X0078589Y0101947D01*
X0078589Y0101161D02*
X0029937Y0101161D01*
X0029937Y0100375D02*
X0078589Y0100375D01*
X0078589Y0099589D02*
X0029937Y0099589D01*
X0029937Y0098804D02*
X0078589Y0098804D01*
X0078589Y0098018D02*
X0029937Y0098018D01*
X0029937Y0097232D02*
X0078589Y0097232D01*
X0078589Y0096446D02*
X0029937Y0096446D01*
X0029937Y0095660D02*
X0078589Y0095660D01*
X0078802Y0094874D02*
X0029937Y0094874D01*
X0029937Y0094088D02*
X0078928Y0094088D01*
X0078928Y0093302D02*
X0029937Y0093302D01*
X0029937Y0092516D02*
X0078928Y0092516D01*
X0078928Y0091730D02*
X0029937Y0091730D01*
X0029937Y0090944D02*
X0078928Y0090944D01*
X0078928Y0090159D02*
X0029937Y0090159D01*
X0029937Y0089373D02*
X0078928Y0089373D01*
X0078928Y0088587D02*
X0029937Y0088587D01*
X0029937Y0087801D02*
X0078928Y0087801D01*
X0078928Y0087015D02*
X0029937Y0087015D01*
X0029937Y0086229D02*
X0079052Y0086229D01*
X0079377Y0085443D02*
X0029937Y0085443D01*
X0029937Y0084657D02*
X0079703Y0084657D01*
X0080068Y0083871D02*
X0029937Y0083871D01*
X0029937Y0083085D02*
X0080854Y0083085D01*
X0081640Y0082299D02*
X0029937Y0082299D01*
X0029937Y0081513D02*
X0082426Y0081513D01*
X0083212Y0080728D02*
X0029937Y0080728D01*
X0029937Y0079942D02*
X0083998Y0079942D01*
X0084784Y0079156D02*
X0029937Y0079156D01*
X0029937Y0078370D02*
X0085570Y0078370D01*
X0086356Y0077584D02*
X0029937Y0077584D01*
X0029937Y0076798D02*
X0087142Y0076798D01*
X0087927Y0076012D02*
X0029937Y0076012D01*
X0029937Y0075226D02*
X0088713Y0075226D01*
X0089499Y0074440D02*
X0029937Y0074440D01*
X0029937Y0073654D02*
X0090285Y0073654D01*
X0091071Y0072868D02*
X0029937Y0072868D01*
X0029937Y0072083D02*
X0091857Y0072083D01*
X0092643Y0071297D02*
X0029937Y0071297D01*
X0029937Y0070511D02*
X0093429Y0070511D01*
X0094215Y0069725D02*
X0029937Y0069725D01*
X0029937Y0068939D02*
X0095001Y0068939D01*
X0095787Y0068153D02*
X0029937Y0068153D01*
X0029937Y0067367D02*
X0096572Y0067367D01*
X0097358Y0066581D02*
X0029937Y0066581D01*
X0029937Y0065795D02*
X0098144Y0065795D01*
X0098802Y0065009D02*
X0029937Y0065009D01*
X0029937Y0064223D02*
X0099588Y0064223D01*
X0100374Y0063437D02*
X0029937Y0063437D01*
X0029937Y0062652D02*
X0101160Y0062652D01*
X0101946Y0061866D02*
X0029937Y0061866D01*
X0029937Y0061080D02*
X0083350Y0061080D01*
X0083007Y0060938D02*
X0081535Y0059466D01*
X0080739Y0057543D01*
X0080739Y0047784D01*
X0081535Y0045861D01*
X0083007Y0044389D01*
X0084930Y0043593D01*
X0087012Y0043593D01*
X0088935Y0044389D01*
X0090407Y0045861D01*
X0091203Y0047784D01*
X0091203Y0057543D01*
X0090407Y0059466D01*
X0088935Y0060938D01*
X0087012Y0061734D01*
X0084930Y0061734D01*
X0083007Y0060938D01*
X0082363Y0060294D02*
X0029937Y0060294D01*
X0029937Y0059508D02*
X0081578Y0059508D01*
X0081227Y0058722D02*
X0029937Y0058722D01*
X0029937Y0057936D02*
X0080902Y0057936D01*
X0080739Y0057150D02*
X0029937Y0057150D01*
X0029937Y0056364D02*
X0080739Y0056364D01*
X0080739Y0055578D02*
X0029937Y0055578D01*
X0029937Y0054792D02*
X0080739Y0054792D01*
X0080739Y0054007D02*
X0029937Y0054007D01*
X0029937Y0053221D02*
X0080739Y0053221D01*
X0080739Y0052435D02*
X0029937Y0052435D01*
X0029937Y0051649D02*
X0080739Y0051649D01*
X0080739Y0050863D02*
X0029937Y0050863D01*
X0029937Y0050077D02*
X0080739Y0050077D01*
X0080739Y0049291D02*
X0029937Y0049291D01*
X0029937Y0048505D02*
X0080739Y0048505D01*
X0080766Y0047719D02*
X0029937Y0047719D01*
X0029937Y0046933D02*
X0081091Y0046933D01*
X0081417Y0046147D02*
X0029937Y0046147D01*
X0029937Y0045361D02*
X0082035Y0045361D01*
X0082821Y0044576D02*
X0029937Y0044576D01*
X0029937Y0043790D02*
X0084454Y0043790D01*
X0087488Y0043790D02*
X0102211Y0043790D01*
X0102211Y0044576D02*
X0089121Y0044576D01*
X0089907Y0045361D02*
X0102211Y0045361D01*
X0102211Y0046147D02*
X0090525Y0046147D01*
X0090851Y0046933D02*
X0102211Y0046933D01*
X0102211Y0047719D02*
X0091177Y0047719D01*
X0091203Y0048505D02*
X0102211Y0048505D01*
X0102211Y0049291D02*
X0091203Y0049291D01*
X0091203Y0050077D02*
X0102211Y0050077D01*
X0102529Y0050863D02*
X0091203Y0050863D01*
X0091203Y0051649D02*
X0102854Y0051649D01*
X0103180Y0052435D02*
X0091203Y0052435D01*
X0091203Y0053221D02*
X0103746Y0053221D01*
X0104532Y0054007D02*
X0091203Y0054007D01*
X0091203Y0054792D02*
X0105318Y0054792D01*
X0107083Y0055578D02*
X0091203Y0055578D01*
X0091203Y0056364D02*
X0107447Y0056364D01*
X0106661Y0057150D02*
X0091203Y0057150D01*
X0091040Y0057936D02*
X0105875Y0057936D01*
X0105090Y0058722D02*
X0090715Y0058722D01*
X0090365Y0059508D02*
X0104304Y0059508D01*
X0103518Y0060294D02*
X0089579Y0060294D01*
X0088592Y0061080D02*
X0102732Y0061080D01*
X0112436Y0071297D02*
X0141265Y0071297D01*
X0140479Y0072083D02*
X0111651Y0072083D01*
X0110865Y0072868D02*
X0139693Y0072868D01*
X0138907Y0073654D02*
X0110207Y0073654D01*
X0109421Y0074440D02*
X0138121Y0074440D01*
X0137335Y0075226D02*
X0108635Y0075226D01*
X0107849Y0076012D02*
X0136549Y0076012D01*
X0135764Y0076798D02*
X0107063Y0076798D01*
X0106277Y0077584D02*
X0134978Y0077584D01*
X0134192Y0078370D02*
X0105491Y0078370D01*
X0104705Y0079156D02*
X0133406Y0079156D01*
X0132620Y0079942D02*
X0103919Y0079942D01*
X0103133Y0080728D02*
X0131834Y0080728D01*
X0131048Y0081513D02*
X0102348Y0081513D01*
X0101562Y0082299D02*
X0130262Y0082299D01*
X0129476Y0083085D02*
X0100776Y0083085D01*
X0099990Y0083871D02*
X0128690Y0083871D01*
X0127904Y0084657D02*
X0099204Y0084657D01*
X0098418Y0085443D02*
X0127267Y0085443D01*
X0126942Y0086229D02*
X0097632Y0086229D01*
X0096846Y0087015D02*
X0126616Y0087015D01*
X0126300Y0087801D02*
X0096060Y0087801D01*
X0095274Y0088587D02*
X0126300Y0088587D01*
X0126300Y0089373D02*
X0094488Y0089373D01*
X0093702Y0090159D02*
X0126300Y0090159D01*
X0126300Y0090944D02*
X0093014Y0090944D01*
X0093014Y0091730D02*
X0126300Y0091730D01*
X0126300Y0092516D02*
X0093014Y0092516D01*
X0093014Y0093302D02*
X0126300Y0093302D01*
X0126300Y0094088D02*
X0093014Y0094088D01*
X0093140Y0094874D02*
X0126046Y0094874D01*
X0125833Y0095660D02*
X0093353Y0095660D01*
X0093353Y0096446D02*
X0125833Y0096446D01*
X0125833Y0097232D02*
X0093353Y0097232D01*
X0093353Y0098018D02*
X0125833Y0098018D01*
X0125833Y0098804D02*
X0093353Y0098804D01*
X0093353Y0099589D02*
X0125833Y0099589D01*
X0125833Y0100375D02*
X0093353Y0100375D01*
X0093353Y0101161D02*
X0125833Y0101161D01*
X0125833Y0101947D02*
X0093353Y0101947D01*
X0093353Y0102733D02*
X0125833Y0102733D01*
X0125833Y0103519D02*
X0093353Y0103519D01*
X0093353Y0104305D02*
X0125833Y0104305D01*
X0125833Y0105091D02*
X0093353Y0105091D01*
X0093353Y0105877D02*
X0125833Y0105877D01*
X0126107Y0106663D02*
X0093079Y0106663D01*
X0092754Y0107449D02*
X0126433Y0107449D01*
X0126758Y0108235D02*
X0092428Y0108235D01*
X0091924Y0109020D02*
X0127263Y0109020D01*
X0128049Y0109806D02*
X0091138Y0109806D01*
X0090352Y0110592D02*
X0128834Y0110592D01*
X0130450Y0111378D02*
X0088736Y0111378D01*
X0061587Y0121595D02*
X0157673Y0121595D01*
X0158022Y0122381D02*
X0061587Y0122381D01*
X0061587Y0123167D02*
X0158808Y0123167D01*
X0150653Y0113736D02*
X0029937Y0113736D01*
X0029937Y0112950D02*
X0150549Y0112950D01*
X0140597Y0103519D02*
X0400765Y0103519D01*
X0400765Y0102733D02*
X0140597Y0102733D01*
X0140597Y0101947D02*
X0400765Y0101947D01*
X0400765Y0101161D02*
X0140597Y0101161D01*
X0140597Y0100375D02*
X0400765Y0100375D01*
X0400765Y0099589D02*
X0140597Y0099589D01*
X0140597Y0098804D02*
X0400765Y0098804D01*
X0400765Y0098018D02*
X0140597Y0098018D01*
X0140597Y0097232D02*
X0400765Y0097232D01*
X0400765Y0096446D02*
X0140597Y0096446D01*
X0140597Y0095660D02*
X0181640Y0095660D01*
X0180798Y0094874D02*
X0140386Y0094874D01*
X0140386Y0094088D02*
X0180387Y0094088D01*
X0180168Y0093302D02*
X0140386Y0093302D01*
X0140386Y0092516D02*
X0180168Y0092516D01*
X0180403Y0091730D02*
X0140753Y0091730D01*
X0141539Y0090944D02*
X0180838Y0090944D01*
X0181736Y0090159D02*
X0142325Y0090159D01*
X0143110Y0089373D02*
X0190078Y0089373D01*
X0191196Y0090159D02*
X0184950Y0090159D01*
X0184931Y0088587D02*
X0143896Y0088587D01*
X0144682Y0087801D02*
X0184145Y0087801D01*
X0183359Y0087015D02*
X0145468Y0087015D01*
X0146254Y0086229D02*
X0182573Y0086229D01*
X0181788Y0085443D02*
X0147040Y0085443D01*
X0147826Y0084657D02*
X0181002Y0084657D01*
X0180216Y0083871D02*
X0148612Y0083871D01*
X0149398Y0083085D02*
X0179430Y0083085D01*
X0178644Y0082299D02*
X0150184Y0082299D01*
X0150970Y0081513D02*
X0177858Y0081513D01*
X0177072Y0080728D02*
X0151755Y0080728D01*
X0152541Y0079942D02*
X0176286Y0079942D01*
X0175500Y0079156D02*
X0153327Y0079156D01*
X0154113Y0078370D02*
X0174714Y0078370D01*
X0173928Y0077584D02*
X0154899Y0077584D01*
X0155685Y0076798D02*
X0173849Y0076798D01*
X0173849Y0076012D02*
X0156471Y0076012D01*
X0157257Y0075226D02*
X0173849Y0075226D01*
X0173849Y0074440D02*
X0158043Y0074440D01*
X0158829Y0073654D02*
X0173849Y0073654D01*
X0172187Y0072868D02*
X0159615Y0072868D01*
X0160401Y0072083D02*
X0171635Y0072083D01*
X0171635Y0071297D02*
X0161186Y0071297D01*
X0161972Y0070511D02*
X0171635Y0070511D01*
X0171635Y0069725D02*
X0162758Y0069725D01*
X0163544Y0068939D02*
X0171635Y0068939D01*
X0171635Y0068153D02*
X0164330Y0068153D01*
X0154625Y0057936D02*
X0138501Y0057936D01*
X0138648Y0057150D02*
X0155066Y0057150D01*
X0153750Y0056364D02*
X0138648Y0056364D01*
X0138648Y0055578D02*
X0152964Y0055578D01*
X0152178Y0054792D02*
X0138648Y0054792D01*
X0138648Y0054007D02*
X0151798Y0054007D01*
X0151473Y0053221D02*
X0138648Y0053221D01*
X0138648Y0052435D02*
X0151147Y0052435D01*
X0150961Y0051649D02*
X0138648Y0051649D01*
X0138648Y0050863D02*
X0150961Y0050863D01*
X0150961Y0050077D02*
X0138648Y0050077D01*
X0138648Y0049291D02*
X0150961Y0049291D01*
X0150961Y0048505D02*
X0138648Y0048505D01*
X0138637Y0047719D02*
X0150961Y0047719D01*
X0150961Y0046933D02*
X0138312Y0046933D01*
X0137986Y0046147D02*
X0150961Y0046147D01*
X0150961Y0045361D02*
X0137434Y0045361D01*
X0136648Y0044576D02*
X0150961Y0044576D01*
X0150961Y0043790D02*
X0135255Y0043790D01*
X0127783Y0054792D02*
X0127695Y0054792D01*
X0127783Y0055578D02*
X0127369Y0055578D01*
X0127044Y0056364D02*
X0127783Y0056364D01*
X0127783Y0057150D02*
X0126583Y0057150D01*
X0125797Y0057936D02*
X0127929Y0057936D01*
X0128255Y0058722D02*
X0125011Y0058722D01*
X0124225Y0059508D02*
X0128580Y0059508D01*
X0129325Y0060294D02*
X0123439Y0060294D01*
X0122653Y0061080D02*
X0130111Y0061080D01*
X0131969Y0061866D02*
X0121867Y0061866D01*
X0121081Y0062652D02*
X0149910Y0062652D01*
X0149124Y0063437D02*
X0120296Y0063437D01*
X0119510Y0064223D02*
X0148338Y0064223D01*
X0147552Y0065009D02*
X0118724Y0065009D01*
X0117938Y0065795D02*
X0146766Y0065795D01*
X0145980Y0066581D02*
X0117152Y0066581D01*
X0116366Y0067367D02*
X0145195Y0067367D01*
X0144409Y0068153D02*
X0115580Y0068153D01*
X0114794Y0068939D02*
X0143623Y0068939D01*
X0142837Y0069725D02*
X0114008Y0069725D01*
X0113222Y0070511D02*
X0142051Y0070511D01*
X0136320Y0061080D02*
X0151482Y0061080D01*
X0150696Y0061866D02*
X0134461Y0061866D01*
X0137106Y0060294D02*
X0152268Y0060294D01*
X0153054Y0059508D02*
X0137850Y0059508D01*
X0138176Y0058722D02*
X0153840Y0058722D01*
X0165214Y0053221D02*
X0171473Y0053221D01*
X0171147Y0052435D02*
X0165539Y0052435D01*
X0165725Y0051649D02*
X0170961Y0051649D01*
X0170961Y0050863D02*
X0165725Y0050863D01*
X0165725Y0050077D02*
X0170961Y0050077D01*
X0170961Y0049291D02*
X0165725Y0049291D01*
X0165725Y0048505D02*
X0170961Y0048505D01*
X0170961Y0047719D02*
X0165725Y0047719D01*
X0165725Y0046933D02*
X0170961Y0046933D01*
X0170961Y0046147D02*
X0165725Y0046147D01*
X0165725Y0045361D02*
X0170961Y0045361D01*
X0170961Y0044576D02*
X0165725Y0044576D01*
X0165725Y0043790D02*
X0170961Y0043790D01*
X0170961Y0043004D02*
X0165725Y0043004D01*
X0165725Y0042218D02*
X0170961Y0042218D01*
X0170961Y0041432D02*
X0165725Y0041432D01*
X0165424Y0040646D02*
X0171262Y0040646D01*
X0171588Y0039860D02*
X0165386Y0039860D01*
X0165386Y0039074D02*
X0171913Y0039074D01*
X0172456Y0038288D02*
X0165386Y0038288D01*
X0165386Y0037502D02*
X0173242Y0037502D01*
X0174028Y0036716D02*
X0165386Y0036716D01*
X0165386Y0035931D02*
X0175736Y0035931D01*
X0180951Y0035931D02*
X0195736Y0035931D01*
X0194028Y0036716D02*
X0182659Y0036716D01*
X0183445Y0037502D02*
X0193242Y0037502D01*
X0192456Y0038288D02*
X0184230Y0038288D01*
X0184773Y0039074D02*
X0191913Y0039074D01*
X0191588Y0039860D02*
X0185099Y0039860D01*
X0185424Y0040646D02*
X0191262Y0040646D01*
X0190961Y0041432D02*
X0185725Y0041432D01*
X0185725Y0042218D02*
X0190961Y0042218D01*
X0190961Y0043004D02*
X0185725Y0043004D01*
X0185725Y0043790D02*
X0190961Y0043790D01*
X0190961Y0044576D02*
X0185725Y0044576D01*
X0185725Y0045361D02*
X0190961Y0045361D01*
X0190961Y0046147D02*
X0185725Y0046147D01*
X0185725Y0046933D02*
X0190961Y0046933D01*
X0190961Y0047719D02*
X0185725Y0047719D01*
X0185725Y0048505D02*
X0190961Y0048505D01*
X0190961Y0049291D02*
X0185725Y0049291D01*
X0185725Y0050077D02*
X0190961Y0050077D01*
X0190961Y0050863D02*
X0185725Y0050863D01*
X0185725Y0051649D02*
X0190913Y0051649D01*
X0190127Y0052435D02*
X0185539Y0052435D01*
X0185214Y0053221D02*
X0189341Y0053221D01*
X0205062Y0056364D02*
X0205593Y0056364D01*
X0205386Y0055578D02*
X0216888Y0055578D01*
X0217302Y0055750D02*
X0215379Y0054953D01*
X0213907Y0053482D01*
X0213111Y0051558D01*
X0213111Y0041800D01*
X0213907Y0039877D01*
X0215379Y0038405D01*
X0217302Y0037608D01*
X0219384Y0037608D01*
X0221307Y0038405D01*
X0222779Y0039877D01*
X0223575Y0041800D01*
X0223575Y0051558D01*
X0222779Y0053482D01*
X0221307Y0054953D01*
X0219384Y0055750D01*
X0217302Y0055750D01*
X0215218Y0054792D02*
X0205386Y0054792D01*
X0205386Y0054007D02*
X0214432Y0054007D01*
X0213799Y0053221D02*
X0205386Y0053221D01*
X0205539Y0052435D02*
X0213474Y0052435D01*
X0213148Y0051649D02*
X0205725Y0051649D01*
X0205725Y0050863D02*
X0213111Y0050863D01*
X0213111Y0050077D02*
X0205725Y0050077D01*
X0205725Y0049291D02*
X0213111Y0049291D01*
X0213111Y0048505D02*
X0205725Y0048505D01*
X0205725Y0047719D02*
X0213111Y0047719D01*
X0213111Y0046933D02*
X0205725Y0046933D01*
X0205725Y0046147D02*
X0213111Y0046147D01*
X0213111Y0045361D02*
X0205725Y0045361D01*
X0205725Y0044576D02*
X0213111Y0044576D01*
X0213111Y0043790D02*
X0205725Y0043790D01*
X0205725Y0043004D02*
X0213111Y0043004D01*
X0213111Y0042218D02*
X0205725Y0042218D01*
X0205725Y0041432D02*
X0213263Y0041432D01*
X0213589Y0040646D02*
X0205424Y0040646D01*
X0205099Y0039860D02*
X0213924Y0039860D01*
X0214710Y0039074D02*
X0204773Y0039074D01*
X0204230Y0038288D02*
X0215661Y0038288D01*
X0221026Y0038288D02*
X0235661Y0038288D01*
X0235379Y0038405D02*
X0237302Y0037608D01*
X0239384Y0037608D01*
X0241307Y0038405D01*
X0242779Y0039877D01*
X0243575Y0041800D01*
X0243575Y0051558D01*
X0242779Y0053482D01*
X0241307Y0054953D01*
X0239384Y0055750D01*
X0237302Y0055750D01*
X0235379Y0054953D01*
X0233907Y0053482D01*
X0233111Y0051558D01*
X0233111Y0041800D01*
X0233907Y0039877D01*
X0235379Y0038405D01*
X0234710Y0039074D02*
X0221976Y0039074D01*
X0222762Y0039860D02*
X0233924Y0039860D01*
X0233589Y0040646D02*
X0223098Y0040646D01*
X0223423Y0041432D02*
X0233263Y0041432D01*
X0233111Y0042218D02*
X0223575Y0042218D01*
X0223575Y0043004D02*
X0233111Y0043004D01*
X0233111Y0043790D02*
X0223575Y0043790D01*
X0223575Y0044576D02*
X0233111Y0044576D01*
X0233111Y0045361D02*
X0223575Y0045361D01*
X0223575Y0046147D02*
X0233111Y0046147D01*
X0233111Y0046933D02*
X0223575Y0046933D01*
X0223575Y0047719D02*
X0233111Y0047719D01*
X0233111Y0048505D02*
X0223575Y0048505D01*
X0223575Y0049291D02*
X0233111Y0049291D01*
X0233111Y0050077D02*
X0223575Y0050077D01*
X0223575Y0050863D02*
X0233111Y0050863D01*
X0233148Y0051649D02*
X0223538Y0051649D01*
X0223213Y0052435D02*
X0233474Y0052435D01*
X0233799Y0053221D02*
X0222887Y0053221D01*
X0222254Y0054007D02*
X0234432Y0054007D01*
X0235218Y0054792D02*
X0221468Y0054792D01*
X0219798Y0055578D02*
X0236888Y0055578D01*
X0239798Y0055578D02*
X0256888Y0055578D01*
X0257302Y0055750D02*
X0255379Y0054953D01*
X0253907Y0053482D01*
X0253111Y0051558D01*
X0253111Y0041800D01*
X0253907Y0039877D01*
X0255379Y0038405D01*
X0257302Y0037608D01*
X0259384Y0037608D01*
X0261307Y0038405D01*
X0262779Y0039877D01*
X0263575Y0041800D01*
X0263575Y0051558D01*
X0262779Y0053482D01*
X0261307Y0054953D01*
X0259384Y0055750D01*
X0257302Y0055750D01*
X0255218Y0054792D02*
X0241468Y0054792D01*
X0242254Y0054007D02*
X0254432Y0054007D01*
X0253799Y0053221D02*
X0242887Y0053221D01*
X0243213Y0052435D02*
X0253474Y0052435D01*
X0253148Y0051649D02*
X0243538Y0051649D01*
X0243575Y0050863D02*
X0253111Y0050863D01*
X0253111Y0050077D02*
X0243575Y0050077D01*
X0243575Y0049291D02*
X0253111Y0049291D01*
X0253111Y0048505D02*
X0243575Y0048505D01*
X0243575Y0047719D02*
X0253111Y0047719D01*
X0253111Y0046933D02*
X0243575Y0046933D01*
X0243575Y0046147D02*
X0253111Y0046147D01*
X0253111Y0045361D02*
X0243575Y0045361D01*
X0243575Y0044576D02*
X0253111Y0044576D01*
X0253111Y0043790D02*
X0243575Y0043790D01*
X0243575Y0043004D02*
X0253111Y0043004D01*
X0253111Y0042218D02*
X0243575Y0042218D01*
X0243423Y0041432D02*
X0253263Y0041432D01*
X0253589Y0040646D02*
X0243098Y0040646D01*
X0242762Y0039860D02*
X0253924Y0039860D01*
X0254710Y0039074D02*
X0241976Y0039074D01*
X0241026Y0038288D02*
X0255661Y0038288D01*
X0261026Y0038288D02*
X0275661Y0038288D01*
X0275379Y0038405D02*
X0277302Y0037608D01*
X0279384Y0037608D01*
X0281307Y0038405D01*
X0282779Y0039877D01*
X0283575Y0041800D01*
X0283575Y0051558D01*
X0282779Y0053482D01*
X0281307Y0054953D01*
X0279384Y0055750D01*
X0277302Y0055750D01*
X0275379Y0054953D01*
X0273907Y0053482D01*
X0273111Y0051558D01*
X0273111Y0041800D01*
X0273907Y0039877D01*
X0275379Y0038405D01*
X0274710Y0039074D02*
X0261976Y0039074D01*
X0262762Y0039860D02*
X0273924Y0039860D01*
X0273589Y0040646D02*
X0263098Y0040646D01*
X0263423Y0041432D02*
X0273263Y0041432D01*
X0273111Y0042218D02*
X0263575Y0042218D01*
X0263575Y0043004D02*
X0273111Y0043004D01*
X0273111Y0043790D02*
X0263575Y0043790D01*
X0263575Y0044576D02*
X0273111Y0044576D01*
X0273111Y0045361D02*
X0263575Y0045361D01*
X0263575Y0046147D02*
X0273111Y0046147D01*
X0273111Y0046933D02*
X0263575Y0046933D01*
X0263575Y0047719D02*
X0273111Y0047719D01*
X0273111Y0048505D02*
X0263575Y0048505D01*
X0263575Y0049291D02*
X0273111Y0049291D01*
X0273111Y0050077D02*
X0263575Y0050077D01*
X0263575Y0050863D02*
X0273111Y0050863D01*
X0273148Y0051649D02*
X0263538Y0051649D01*
X0263213Y0052435D02*
X0273474Y0052435D01*
X0273799Y0053221D02*
X0262887Y0053221D01*
X0262254Y0054007D02*
X0274432Y0054007D01*
X0275218Y0054792D02*
X0261468Y0054792D01*
X0259798Y0055578D02*
X0276888Y0055578D01*
X0279798Y0055578D02*
X0400765Y0055578D01*
X0400765Y0054792D02*
X0281468Y0054792D01*
X0282254Y0054007D02*
X0400765Y0054007D01*
X0400765Y0053221D02*
X0282887Y0053221D01*
X0283213Y0052435D02*
X0400765Y0052435D01*
X0400765Y0051649D02*
X0283538Y0051649D01*
X0283575Y0050863D02*
X0400765Y0050863D01*
X0400765Y0050077D02*
X0283575Y0050077D01*
X0283575Y0049291D02*
X0400765Y0049291D01*
X0400765Y0048505D02*
X0283575Y0048505D01*
X0283575Y0047719D02*
X0400765Y0047719D01*
X0400765Y0046933D02*
X0283575Y0046933D01*
X0283575Y0046147D02*
X0400765Y0046147D01*
X0400765Y0045361D02*
X0283575Y0045361D01*
X0283575Y0044576D02*
X0400765Y0044576D01*
X0400765Y0043790D02*
X0283575Y0043790D01*
X0283575Y0043004D02*
X0400765Y0043004D01*
X0400765Y0042218D02*
X0283575Y0042218D01*
X0283423Y0041432D02*
X0400765Y0041432D01*
X0400765Y0040646D02*
X0283098Y0040646D01*
X0282762Y0039860D02*
X0400765Y0039860D01*
X0400765Y0039074D02*
X0281976Y0039074D01*
X0281026Y0038288D02*
X0400764Y0038288D01*
X0400702Y0037502D02*
X0203445Y0037502D01*
X0202659Y0036716D02*
X0400492Y0036716D01*
X0400236Y0035931D02*
X0200951Y0035931D01*
X0208594Y0056364D02*
X0400765Y0056364D01*
X0400765Y0057150D02*
X0209554Y0057150D01*
X0210015Y0057936D02*
X0400765Y0057936D01*
X0400765Y0058722D02*
X0346118Y0058722D01*
X0345388Y0057992D02*
X0348280Y0060884D01*
X0348280Y0064974D01*
X0345388Y0067866D01*
X0341298Y0067866D01*
X0338406Y0064974D01*
X0338406Y0060884D01*
X0341298Y0057992D01*
X0345388Y0057992D01*
X0346904Y0059508D02*
X0400765Y0059508D01*
X0400765Y0060294D02*
X0347690Y0060294D01*
X0348280Y0061080D02*
X0400765Y0061080D01*
X0400765Y0061866D02*
X0348280Y0061866D01*
X0348280Y0062652D02*
X0400765Y0062652D01*
X0400765Y0063437D02*
X0348280Y0063437D01*
X0348280Y0064223D02*
X0400765Y0064223D01*
X0400765Y0065009D02*
X0348245Y0065009D01*
X0347459Y0065795D02*
X0400765Y0065795D01*
X0400765Y0066581D02*
X0346673Y0066581D01*
X0345887Y0067367D02*
X0400765Y0067367D01*
X0400765Y0068153D02*
X0288428Y0068153D01*
X0288624Y0068626D02*
X0288624Y0069732D01*
X0288201Y0070754D01*
X0287419Y0071537D01*
X0286396Y0071960D01*
X0285290Y0071960D01*
X0285052Y0071862D01*
X0285052Y0072315D01*
X0284235Y0073132D01*
X0278750Y0073132D01*
X0278343Y0072725D01*
X0277936Y0073132D01*
X0277187Y0073132D01*
X0277187Y0085148D01*
X0277646Y0085148D01*
X0278669Y0085571D01*
X0279451Y0086354D01*
X0279874Y0087376D01*
X0279874Y0088482D01*
X0279451Y0089504D01*
X0278669Y0090287D01*
X0277646Y0090710D01*
X0276540Y0090710D01*
X0275518Y0090287D01*
X0274735Y0089504D01*
X0274312Y0088482D01*
X0274312Y0087968D01*
X0273200Y0086855D01*
X0273200Y0073132D01*
X0272451Y0073132D01*
X0271635Y0072315D01*
X0271635Y0066043D01*
X0272451Y0065226D01*
X0277936Y0065226D01*
X0278343Y0065633D01*
X0278750Y0065226D01*
X0284235Y0065226D01*
X0285052Y0066043D01*
X0285052Y0066497D01*
X0285290Y0066398D01*
X0286396Y0066398D01*
X0287419Y0066821D01*
X0288201Y0067604D01*
X0288624Y0068626D01*
X0288624Y0068939D02*
X0400765Y0068939D01*
X0400765Y0069725D02*
X0288624Y0069725D01*
X0288302Y0070511D02*
X0400765Y0070511D01*
X0400765Y0071297D02*
X0287659Y0071297D01*
X0285052Y0072083D02*
X0400765Y0072083D01*
X0400765Y0072868D02*
X0284499Y0072868D01*
X0278487Y0072868D02*
X0278200Y0072868D01*
X0277187Y0073654D02*
X0400765Y0073654D01*
X0400765Y0074440D02*
X0277187Y0074440D01*
X0277187Y0075226D02*
X0400765Y0075226D01*
X0400765Y0076012D02*
X0277187Y0076012D01*
X0277187Y0076798D02*
X0400765Y0076798D01*
X0400765Y0077584D02*
X0277187Y0077584D01*
X0277187Y0078370D02*
X0400765Y0078370D01*
X0400765Y0079156D02*
X0277187Y0079156D01*
X0277187Y0079942D02*
X0400765Y0079942D01*
X0400765Y0080728D02*
X0277187Y0080728D01*
X0277187Y0081513D02*
X0400765Y0081513D01*
X0400765Y0082299D02*
X0277187Y0082299D01*
X0277187Y0083085D02*
X0400765Y0083085D01*
X0400765Y0083871D02*
X0277187Y0083871D01*
X0277187Y0084657D02*
X0400765Y0084657D01*
X0400765Y0085443D02*
X0278359Y0085443D01*
X0279326Y0086229D02*
X0400765Y0086229D01*
X0400765Y0087015D02*
X0279725Y0087015D01*
X0279874Y0087801D02*
X0400765Y0087801D01*
X0400765Y0088587D02*
X0279831Y0088587D01*
X0279506Y0089373D02*
X0400765Y0089373D01*
X0400765Y0090159D02*
X0278797Y0090159D01*
X0275390Y0090159D02*
X0257547Y0090159D01*
X0257419Y0090287D02*
X0256396Y0090710D01*
X0255290Y0090710D01*
X0254268Y0090287D01*
X0253485Y0089504D01*
X0253062Y0088482D01*
X0253062Y0087376D01*
X0253485Y0086354D01*
X0253849Y0085990D01*
X0253849Y0073132D01*
X0252451Y0073132D01*
X0251635Y0072315D01*
X0251635Y0066043D01*
X0252451Y0065226D01*
X0257936Y0065226D01*
X0258343Y0065633D01*
X0258750Y0065226D01*
X0264235Y0065226D01*
X0265052Y0066043D01*
X0265052Y0066497D01*
X0265290Y0066398D01*
X0266396Y0066398D01*
X0267419Y0066821D01*
X0268201Y0067604D01*
X0268624Y0068626D01*
X0268624Y0069732D01*
X0268201Y0070754D01*
X0267419Y0071537D01*
X0266396Y0071960D01*
X0265290Y0071960D01*
X0265052Y0071862D01*
X0265052Y0072315D01*
X0264235Y0073132D01*
X0258750Y0073132D01*
X0258343Y0072725D01*
X0257936Y0073132D01*
X0257837Y0073132D01*
X0257837Y0085990D01*
X0258201Y0086354D01*
X0258624Y0087376D01*
X0258624Y0088482D01*
X0258201Y0089504D01*
X0257419Y0090287D01*
X0258256Y0089373D02*
X0274681Y0089373D01*
X0274355Y0088587D02*
X0258581Y0088587D01*
X0258624Y0087801D02*
X0274145Y0087801D01*
X0273359Y0087015D02*
X0258475Y0087015D01*
X0258076Y0086229D02*
X0273200Y0086229D01*
X0273200Y0085443D02*
X0257837Y0085443D01*
X0257837Y0084657D02*
X0273200Y0084657D01*
X0273200Y0083871D02*
X0257837Y0083871D01*
X0257837Y0083085D02*
X0273200Y0083085D01*
X0273200Y0082299D02*
X0257837Y0082299D01*
X0257837Y0081513D02*
X0273200Y0081513D01*
X0273200Y0080728D02*
X0257837Y0080728D01*
X0257837Y0079942D02*
X0273200Y0079942D01*
X0273200Y0079156D02*
X0257837Y0079156D01*
X0257837Y0078370D02*
X0273200Y0078370D01*
X0273200Y0077584D02*
X0257837Y0077584D01*
X0257837Y0076798D02*
X0273200Y0076798D01*
X0273200Y0076012D02*
X0257837Y0076012D01*
X0257837Y0075226D02*
X0273200Y0075226D01*
X0273200Y0074440D02*
X0257837Y0074440D01*
X0257837Y0073654D02*
X0273200Y0073654D01*
X0272187Y0072868D02*
X0264499Y0072868D01*
X0265052Y0072083D02*
X0271635Y0072083D01*
X0271635Y0071297D02*
X0267659Y0071297D01*
X0268302Y0070511D02*
X0271635Y0070511D01*
X0271635Y0069725D02*
X0268624Y0069725D01*
X0268624Y0068939D02*
X0271635Y0068939D01*
X0271635Y0068153D02*
X0268428Y0068153D01*
X0267964Y0067367D02*
X0271635Y0067367D01*
X0271635Y0066581D02*
X0266838Y0066581D01*
X0264804Y0065795D02*
X0271882Y0065795D01*
X0284804Y0065795D02*
X0309227Y0065795D01*
X0308441Y0065009D02*
X0209557Y0065009D01*
X0209687Y0064223D02*
X0308406Y0064223D01*
X0308406Y0064974D02*
X0308406Y0060884D01*
X0311298Y0057992D01*
X0315388Y0057992D01*
X0318280Y0060884D01*
X0318280Y0064974D01*
X0315388Y0067866D01*
X0311298Y0067866D01*
X0308406Y0064974D01*
X0308406Y0063437D02*
X0209687Y0063437D01*
X0209687Y0062652D02*
X0308406Y0062652D01*
X0308406Y0061866D02*
X0209687Y0061866D01*
X0209687Y0061080D02*
X0308406Y0061080D01*
X0308997Y0060294D02*
X0210068Y0060294D01*
X0210268Y0059508D02*
X0309782Y0059508D01*
X0310568Y0058722D02*
X0210268Y0058722D01*
X0209145Y0065795D02*
X0211882Y0065795D01*
X0211635Y0066581D02*
X0210588Y0066581D01*
X0208598Y0066581D02*
X0208359Y0066581D01*
X0207008Y0068153D02*
X0206787Y0068153D01*
X0206812Y0068939D02*
X0206001Y0068939D01*
X0205216Y0069725D02*
X0206812Y0069725D01*
X0207134Y0070511D02*
X0204430Y0070511D01*
X0203644Y0071297D02*
X0207778Y0071297D01*
X0211409Y0071297D02*
X0211635Y0071297D01*
X0211635Y0072083D02*
X0202858Y0072083D01*
X0202072Y0072868D02*
X0212187Y0072868D01*
X0218200Y0072868D02*
X0218487Y0072868D01*
X0224499Y0072868D02*
X0232187Y0072868D01*
X0232451Y0073132D02*
X0231635Y0072315D01*
X0231635Y0066043D01*
X0232451Y0065226D01*
X0237936Y0065226D01*
X0238343Y0065633D01*
X0238750Y0065226D01*
X0244235Y0065226D01*
X0245052Y0066043D01*
X0245052Y0066497D01*
X0245290Y0066398D01*
X0246396Y0066398D01*
X0247419Y0066821D01*
X0248201Y0067604D01*
X0248624Y0068626D01*
X0248624Y0069732D01*
X0248201Y0070754D01*
X0247419Y0071537D01*
X0246396Y0071960D01*
X0245290Y0071960D01*
X0245052Y0071862D01*
X0245052Y0072315D01*
X0244235Y0073132D01*
X0238750Y0073132D01*
X0238343Y0072725D01*
X0237936Y0073132D01*
X0237187Y0073132D01*
X0237187Y0084405D01*
X0233624Y0087968D01*
X0233624Y0088482D01*
X0233201Y0089504D01*
X0232419Y0090287D01*
X0231396Y0090710D01*
X0230290Y0090710D01*
X0229268Y0090287D01*
X0228485Y0089504D01*
X0228062Y0088482D01*
X0228062Y0087376D01*
X0228485Y0086354D01*
X0229268Y0085571D01*
X0230290Y0085148D01*
X0230805Y0085148D01*
X0233200Y0082753D01*
X0233200Y0073132D01*
X0232451Y0073132D01*
X0233200Y0073654D02*
X0201286Y0073654D01*
X0200500Y0074440D02*
X0233200Y0074440D01*
X0233200Y0075226D02*
X0199714Y0075226D01*
X0199687Y0076012D02*
X0233200Y0076012D01*
X0233200Y0076798D02*
X0199687Y0076798D01*
X0199687Y0077584D02*
X0233200Y0077584D01*
X0233200Y0078370D02*
X0199687Y0078370D01*
X0199687Y0079156D02*
X0233200Y0079156D01*
X0233200Y0079942D02*
X0199687Y0079942D01*
X0199687Y0080728D02*
X0233200Y0080728D01*
X0233200Y0081513D02*
X0199687Y0081513D01*
X0199687Y0082299D02*
X0233200Y0082299D01*
X0232867Y0083085D02*
X0199687Y0083085D01*
X0199687Y0083871D02*
X0232082Y0083871D01*
X0231296Y0084657D02*
X0199687Y0084657D01*
X0199687Y0085443D02*
X0229578Y0085443D01*
X0228610Y0086229D02*
X0199687Y0086229D01*
X0199687Y0087015D02*
X0228212Y0087015D01*
X0228062Y0087801D02*
X0199687Y0087801D01*
X0199628Y0088587D02*
X0228105Y0088587D01*
X0228431Y0089373D02*
X0199303Y0089373D01*
X0198532Y0090159D02*
X0229140Y0090159D01*
X0232547Y0090159D02*
X0254140Y0090159D01*
X0253431Y0089373D02*
X0233256Y0089373D01*
X0233581Y0088587D02*
X0253105Y0088587D01*
X0253062Y0087801D02*
X0233791Y0087801D01*
X0234577Y0087015D02*
X0253212Y0087015D01*
X0253610Y0086229D02*
X0235363Y0086229D01*
X0236149Y0085443D02*
X0253849Y0085443D01*
X0253849Y0084657D02*
X0236935Y0084657D01*
X0237187Y0083871D02*
X0253849Y0083871D01*
X0253849Y0083085D02*
X0237187Y0083085D01*
X0237187Y0082299D02*
X0253849Y0082299D01*
X0253849Y0081513D02*
X0237187Y0081513D01*
X0237187Y0080728D02*
X0253849Y0080728D01*
X0253849Y0079942D02*
X0237187Y0079942D01*
X0237187Y0079156D02*
X0253849Y0079156D01*
X0253849Y0078370D02*
X0237187Y0078370D01*
X0237187Y0077584D02*
X0253849Y0077584D01*
X0253849Y0076798D02*
X0237187Y0076798D01*
X0237187Y0076012D02*
X0253849Y0076012D01*
X0253849Y0075226D02*
X0237187Y0075226D01*
X0237187Y0074440D02*
X0253849Y0074440D01*
X0253849Y0073654D02*
X0237187Y0073654D01*
X0238200Y0072868D02*
X0238487Y0072868D01*
X0244499Y0072868D02*
X0252187Y0072868D01*
X0251635Y0072083D02*
X0245052Y0072083D01*
X0247659Y0071297D02*
X0251635Y0071297D01*
X0251635Y0070511D02*
X0248302Y0070511D01*
X0248624Y0069725D02*
X0251635Y0069725D01*
X0251635Y0068939D02*
X0248624Y0068939D01*
X0248428Y0068153D02*
X0251635Y0068153D01*
X0251635Y0067367D02*
X0247964Y0067367D01*
X0246838Y0066581D02*
X0251635Y0066581D01*
X0251882Y0065795D02*
X0244804Y0065795D01*
X0231882Y0065795D02*
X0224804Y0065795D01*
X0226838Y0066581D02*
X0231635Y0066581D01*
X0231635Y0067367D02*
X0227964Y0067367D01*
X0228428Y0068153D02*
X0231635Y0068153D01*
X0231635Y0068939D02*
X0228624Y0068939D01*
X0228624Y0069725D02*
X0231635Y0069725D01*
X0231635Y0070511D02*
X0228302Y0070511D01*
X0227659Y0071297D02*
X0231635Y0071297D01*
X0231635Y0072083D02*
X0225052Y0072083D01*
X0258200Y0072868D02*
X0258487Y0072868D01*
X0286838Y0066581D02*
X0310013Y0066581D01*
X0310799Y0067367D02*
X0287964Y0067367D01*
X0315887Y0067367D02*
X0340799Y0067367D01*
X0340013Y0066581D02*
X0316673Y0066581D01*
X0317459Y0065795D02*
X0339227Y0065795D01*
X0338441Y0065009D02*
X0318245Y0065009D01*
X0318280Y0064223D02*
X0338406Y0064223D01*
X0338406Y0063437D02*
X0318280Y0063437D01*
X0318280Y0062652D02*
X0338406Y0062652D01*
X0338406Y0061866D02*
X0318280Y0061866D01*
X0318280Y0061080D02*
X0338406Y0061080D01*
X0338997Y0060294D02*
X0317690Y0060294D01*
X0316904Y0059508D02*
X0339782Y0059508D01*
X0340568Y0058722D02*
X0316118Y0058722D01*
X0293155Y0123953D02*
X0289791Y0123953D01*
X0291218Y0124739D02*
X0291729Y0124739D01*
X0288155Y0123953D02*
X0284791Y0123953D01*
X0286218Y0124739D02*
X0286729Y0124739D01*
X0283155Y0123953D02*
X0279791Y0123953D01*
X0281218Y0124739D02*
X0281729Y0124739D01*
X0278155Y0123953D02*
X0274791Y0123953D01*
X0276218Y0124739D02*
X0276729Y0124739D01*
X0273155Y0123953D02*
X0269791Y0123953D01*
X0271218Y0124739D02*
X0271729Y0124739D01*
X0268155Y0123953D02*
X0264791Y0123953D01*
X0266218Y0124739D02*
X0266729Y0124739D01*
X0263155Y0123953D02*
X0259791Y0123953D01*
X0261218Y0124739D02*
X0261729Y0124739D01*
X0258155Y0123953D02*
X0254791Y0123953D01*
X0256218Y0124739D02*
X0256729Y0124739D01*
X0253155Y0123953D02*
X0249791Y0123953D01*
X0251218Y0124739D02*
X0251729Y0124739D01*
X0252253Y0134170D02*
X0250693Y0134170D01*
X0255693Y0134170D02*
X0257253Y0134170D01*
X0260693Y0134170D02*
X0262253Y0134170D01*
X0265693Y0134170D02*
X0267253Y0134170D01*
X0270693Y0134170D02*
X0272253Y0134170D01*
X0275693Y0134170D02*
X0277253Y0134170D01*
X0280693Y0134170D02*
X0282253Y0134170D01*
X0285693Y0134170D02*
X0287253Y0134170D01*
X0290693Y0134170D02*
X0292253Y0134170D01*
X0197746Y0090944D02*
X0400765Y0090944D01*
X0400765Y0091730D02*
X0196960Y0091730D01*
X0196174Y0092516D02*
X0400765Y0092516D01*
X0400765Y0093302D02*
X0195388Y0093302D01*
X0194602Y0094088D02*
X0400765Y0094088D01*
X0400765Y0094874D02*
X0193816Y0094874D01*
X0191982Y0089373D02*
X0191608Y0089373D01*
X0185047Y0095660D02*
X0400765Y0095660D01*
X0399857Y0035145D02*
X0165331Y0035145D01*
X0165006Y0034359D02*
X0399286Y0034359D01*
X0398527Y0033573D02*
X0164680Y0033573D01*
X0164355Y0032787D02*
X0397446Y0032787D01*
X0172896Y0117665D02*
X0172721Y0117665D01*
X0102211Y0043004D02*
X0029937Y0043004D01*
X0029937Y0042218D02*
X0102211Y0042218D01*
X0102211Y0041432D02*
X0029937Y0041432D01*
X0029937Y0040646D02*
X0102211Y0040646D01*
X0102211Y0039860D02*
X0029937Y0039860D01*
X0029937Y0039074D02*
X0102380Y0039074D01*
X0102706Y0038288D02*
X0029938Y0038288D01*
X0030000Y0037502D02*
X0103031Y0037502D01*
X0103388Y0036716D02*
X0030211Y0036716D01*
X0030466Y0035931D02*
X0104174Y0035931D01*
X0104960Y0035145D02*
X0030845Y0035145D01*
X0031416Y0034359D02*
X0106218Y0034359D01*
X0108115Y0033573D02*
X0032175Y0033573D01*
X0033257Y0032787D02*
X0114832Y0032787D01*
X0114506Y0033573D02*
X0111071Y0033573D01*
X0112968Y0034359D02*
X0114181Y0034359D01*
D22*
X0044091Y0046177D03*
X0044091Y0309957D03*
X0386611Y0309957D03*
X0386611Y0046177D03*
D23*
X0347093Y0086679D03*
X0333343Y0086679D03*
X0358343Y0115429D03*
X0377093Y0122929D03*
X0377093Y0127929D03*
X0368343Y0152929D03*
X0344593Y0159179D03*
X0327093Y0152929D03*
X0327093Y0147929D03*
X0327093Y0124179D03*
X0289593Y0149179D03*
X0279593Y0149179D03*
X0269593Y0149179D03*
X0259593Y0149179D03*
X0259593Y0160429D03*
X0269593Y0160429D03*
X0279593Y0160429D03*
X0289593Y0160429D03*
X0300843Y0164179D03*
X0313343Y0190429D03*
X0312093Y0202929D03*
X0307093Y0202929D03*
X0317093Y0202929D03*
X0322093Y0202929D03*
X0327093Y0206679D03*
X0332093Y0206679D03*
X0348343Y0220429D03*
X0348343Y0224179D03*
X0348343Y0227929D03*
X0348343Y0231679D03*
X0343343Y0231679D03*
X0343343Y0227929D03*
X0353343Y0231679D03*
X0348343Y0244179D03*
X0348343Y0249179D03*
X0330843Y0239179D03*
X0325843Y0239179D03*
X0350843Y0216679D03*
X0355843Y0216679D03*
X0369593Y0211679D03*
X0369593Y0206679D03*
X0363343Y0191679D03*
X0363343Y0184179D03*
X0344593Y0186679D03*
X0387093Y0200429D03*
X0369593Y0234179D03*
X0369593Y0239179D03*
X0382093Y0262929D03*
X0359593Y0295429D03*
X0317093Y0297929D03*
X0289593Y0292929D03*
X0278343Y0281679D03*
X0274593Y0267929D03*
X0274593Y0262929D03*
X0253343Y0246679D03*
X0252093Y0239179D03*
X0254593Y0229179D03*
X0259593Y0229179D03*
X0239593Y0246679D03*
X0209593Y0254179D03*
X0203343Y0257929D03*
X0194593Y0265429D03*
X0194593Y0247929D03*
X0194593Y0229179D03*
X0209593Y0212929D03*
X0203343Y0201679D03*
X0177093Y0214179D03*
X0172093Y0236679D03*
X0153343Y0239179D03*
X0140843Y0226679D03*
X0129593Y0219179D03*
X0124593Y0227929D03*
X0119593Y0227929D03*
X0140843Y0214179D03*
X0145843Y0214179D03*
X0129593Y0204179D03*
X0092093Y0236679D03*
X0087093Y0236679D03*
X0054593Y0260429D03*
X0054593Y0275429D03*
X0075843Y0289179D03*
X0088343Y0282929D03*
X0088343Y0277929D03*
X0082093Y0270429D03*
X0120843Y0272929D03*
X0138343Y0272929D03*
X0150843Y0269804D03*
X0155843Y0256679D03*
X0172093Y0254179D03*
X0172093Y0271679D03*
X0172093Y0279179D03*
X0243343Y0190429D03*
X0243343Y0161679D03*
X0245843Y0142929D03*
X0229593Y0142929D03*
X0223343Y0130429D03*
X0221906Y0120232D03*
X0226906Y0120232D03*
X0233156Y0113982D03*
X0238156Y0113982D03*
X0238343Y0104179D03*
X0244593Y0104179D03*
X0209593Y0136679D03*
X0204593Y0136679D03*
X0192093Y0130429D03*
X0177093Y0125429D03*
X0160843Y0120429D03*
X0153343Y0107929D03*
X0183343Y0092929D03*
X0207093Y0059179D03*
X0163343Y0146679D03*
X0158343Y0146679D03*
X0137093Y0160429D03*
X0132093Y0160429D03*
X0102093Y0146679D03*
X0098343Y0149179D03*
X0070912Y0149819D03*
X0070912Y0136069D03*
X0070843Y0116679D03*
X0193343Y0160429D03*
X0190843Y0175429D03*
X0195843Y0175429D03*
X0282093Y0214179D03*
D24*
X0375843Y0216679D03*
X0375843Y0220429D03*
X0375843Y0225429D03*
X0375843Y0229179D03*
D25*
X0363343Y0191679D02*
X0363343Y0184179D01*
X0313343Y0190429D02*
X0313343Y0176679D01*
X0300843Y0164179D01*
X0243343Y0161679D02*
X0243343Y0190429D01*
X0282093Y0214179D02*
X0257093Y0239179D01*
X0252093Y0239179D01*
X0278343Y0281679D02*
X0289593Y0292929D01*
X0317093Y0297929D02*
X0330843Y0297929D01*
X0333343Y0295429D01*
X0359593Y0295429D01*
X0197093Y0299804D02*
X0189593Y0292304D01*
X0182093Y0292304D01*
X0177093Y0287304D01*
X0177093Y0235429D01*
X0173343Y0231679D01*
X0163343Y0231679D01*
X0145843Y0214179D01*
X0140843Y0214179D02*
X0140843Y0215429D01*
X0167093Y0241679D01*
X0167093Y0283554D01*
X0177093Y0293554D01*
X0177093Y0308554D01*
X0197093Y0308554D02*
X0197093Y0299804D01*
X0172093Y0279179D02*
X0172093Y0271679D01*
X0172093Y0254179D01*
X0172093Y0236679D01*
X0172093Y0214179D02*
X0162093Y0204179D01*
X0142093Y0204179D01*
X0135843Y0210429D01*
X0129593Y0204179D01*
X0135843Y0210429D02*
X0135843Y0217929D01*
X0140843Y0222929D01*
X0140843Y0226679D01*
X0129593Y0219179D02*
X0117349Y0219179D01*
X0110430Y0226098D01*
X0120843Y0272929D02*
X0138343Y0272929D01*
X0075843Y0289179D02*
X0068343Y0289179D01*
X0054593Y0275429D01*
X0054593Y0260429D01*
X0172093Y0214179D02*
X0177093Y0214179D01*
X0229593Y0142929D02*
X0245843Y0142929D01*
X0223343Y0130429D02*
X0192093Y0130429D01*
X0177093Y0125429D02*
X0172093Y0120429D01*
X0160843Y0120429D01*
X0153343Y0112929D01*
X0153343Y0107929D01*
X0183343Y0092929D02*
X0192093Y0092929D01*
X0197093Y0087929D01*
X0197093Y0074179D01*
X0207093Y0064179D01*
X0207093Y0059179D01*
D26*
X0209593Y0069179D03*
X0225843Y0069179D03*
X0245843Y0069179D03*
X0265843Y0069179D03*
X0285843Y0069179D03*
X0277093Y0087929D03*
X0255843Y0087929D03*
X0230843Y0087929D03*
X0190843Y0086679D03*
X0185843Y0069179D03*
X0174593Y0115429D03*
X0165843Y0115429D03*
X0185843Y0137929D03*
X0197093Y0137929D03*
X0234593Y0161679D03*
X0238343Y0161679D03*
X0238343Y0189179D03*
X0234593Y0189179D03*
X0228343Y0210429D03*
X0218343Y0217929D03*
X0232093Y0224179D03*
X0235843Y0222929D03*
X0295843Y0186679D03*
X0303343Y0189179D03*
X0308343Y0189179D03*
X0308343Y0181679D03*
X0305843Y0177929D03*
X0295843Y0161679D03*
X0318343Y0132929D03*
X0318343Y0127929D03*
X0320843Y0124179D03*
X0310843Y0122929D03*
X0307093Y0124179D03*
X0342093Y0176679D03*
X0373343Y0179179D03*
X0373343Y0191679D03*
X0259593Y0284804D03*
X0228968Y0284804D03*
X0209593Y0284804D03*
X0194593Y0284804D03*
X0149593Y0284804D03*
X0129593Y0284804D03*
X0109593Y0284804D03*
X0154593Y0211679D03*
X0158343Y0211679D03*
X0163343Y0211679D03*
X0147093Y0207929D03*
X0163343Y0189179D03*
X0163343Y0185429D03*
X0163343Y0181679D03*
X0129593Y0181679D03*
X0128343Y0185429D03*
X0125843Y0189179D03*
X0059593Y0135429D03*
X0059593Y0116679D03*
D27*
X0059593Y0130429D01*
X0055843Y0134179D01*
X0055843Y0177811D01*
X0057871Y0179839D01*
X0077556Y0179839D02*
X0077556Y0172142D01*
X0059593Y0154179D01*
X0059593Y0135429D01*
X0128343Y0185429D02*
X0163343Y0185429D01*
X0163343Y0181679D02*
X0129593Y0181679D01*
X0125843Y0189179D02*
X0163343Y0189179D01*
X0147093Y0207929D02*
X0150843Y0211679D01*
X0150843Y0214179D01*
X0164593Y0227929D01*
X0174593Y0227929D01*
X0180843Y0234179D01*
X0180843Y0269804D01*
X0183944Y0272905D01*
X0183944Y0284804D01*
X0190243Y0284804D02*
X0194593Y0284804D01*
X0198343Y0282929D02*
X0183343Y0267929D01*
X0183343Y0232929D01*
X0174593Y0224179D01*
X0165843Y0224179D01*
X0154593Y0212929D01*
X0154593Y0211679D01*
X0158343Y0211679D02*
X0168343Y0221679D01*
X0175843Y0221679D01*
X0185843Y0231679D01*
X0185843Y0266679D01*
X0200843Y0281679D01*
X0200843Y0293554D01*
X0205843Y0298554D01*
X0205843Y0314804D01*
X0212093Y0321054D01*
X0347093Y0321054D01*
X0349593Y0318554D01*
X0349593Y0304179D01*
X0347093Y0301679D01*
X0337093Y0301679D01*
X0334593Y0304179D01*
X0334593Y0310429D01*
X0344593Y0310429D02*
X0344593Y0316679D01*
X0342718Y0318554D01*
X0213343Y0318554D01*
X0208343Y0313554D01*
X0208343Y0297304D01*
X0203343Y0292304D01*
X0203343Y0280429D01*
X0188343Y0265429D01*
X0188343Y0230429D01*
X0177093Y0219179D01*
X0170843Y0219179D01*
X0163343Y0211679D01*
X0218343Y0217929D02*
X0225843Y0217929D01*
X0232093Y0224179D01*
X0235843Y0222929D02*
X0228343Y0215429D01*
X0228343Y0210429D01*
X0234593Y0189179D02*
X0234593Y0161679D01*
X0238343Y0161679D02*
X0238343Y0189179D01*
X0295843Y0186679D02*
X0295843Y0161679D01*
X0305843Y0177929D02*
X0303343Y0180429D01*
X0303343Y0189179D01*
X0308343Y0189179D02*
X0308343Y0181679D01*
X0334593Y0169179D02*
X0342093Y0176679D01*
X0334593Y0169179D02*
X0334593Y0137929D01*
X0320843Y0124179D01*
X0318343Y0127929D02*
X0313343Y0122929D01*
X0310843Y0122929D01*
X0307093Y0124179D02*
X0315843Y0132929D01*
X0318343Y0132929D01*
X0277093Y0087929D02*
X0275194Y0086030D01*
X0275194Y0069179D01*
X0265843Y0069179D02*
X0261493Y0069179D01*
X0255843Y0069179D02*
X0255843Y0087929D01*
X0255843Y0069179D02*
X0255194Y0069179D01*
X0235194Y0069179D02*
X0235194Y0083579D01*
X0230843Y0087929D01*
X0225843Y0069179D02*
X0221493Y0069179D01*
X0215194Y0069179D02*
X0209593Y0069179D01*
X0185843Y0069179D02*
X0181493Y0069179D01*
X0175843Y0069829D02*
X0175843Y0076679D01*
X0185843Y0086679D01*
X0190843Y0086679D01*
X0175843Y0069829D02*
X0175194Y0069179D01*
X0174593Y0115429D02*
X0165843Y0115429D01*
X0185843Y0137929D02*
X0197093Y0137929D01*
X0198343Y0282929D02*
X0198343Y0294804D01*
X0203343Y0299804D01*
X0203343Y0316054D01*
X0210843Y0323554D01*
X0351468Y0323554D01*
X0359593Y0315429D01*
X0359593Y0304179D01*
X0354593Y0299179D01*
X0334593Y0299179D01*
X0330843Y0302929D01*
X0319593Y0302929D01*
X0318343Y0301679D01*
X0305843Y0301679D01*
X0304593Y0302929D01*
X0304593Y0310429D01*
X0263944Y0284804D02*
X0259593Y0284804D01*
X0233944Y0284804D02*
X0228968Y0284804D01*
X0213944Y0284804D02*
X0209593Y0284804D01*
X0153944Y0284804D02*
X0149593Y0284804D01*
X0133944Y0284804D02*
X0129593Y0284804D01*
X0113944Y0284804D02*
X0109593Y0284804D01*
X0373343Y0191679D02*
X0373343Y0179179D01*
D28*
X0198343Y0054179D02*
X0198343Y0046679D01*
X0198343Y0054179D02*
X0192093Y0060429D01*
X0162093Y0060429D01*
X0133343Y0089179D01*
X0133343Y0100567D01*
X0133215Y0100695D01*
X0104593Y0069307D02*
X0085971Y0087929D01*
X0085971Y0100695D01*
X0104593Y0069307D02*
X0104593Y0069179D01*
X0120843Y0052929D01*
X0120843Y0036679D01*
X0158343Y0036679D01*
X0158343Y0046679D01*
D29*
X0241493Y0069179D02*
X0245843Y0069179D01*
X0281493Y0069179D02*
X0285843Y0069179D01*
M02*
