G75*
%MOIN*%
%OFA0B0*%
%FSLAX25Y25*%
%IPPOS*%
%LPD*%
%AMOC8*
5,1,8,0,0,1.08239X$1,22.5*
%
%ADD10C,0.00400*%
D10*
X0036217Y0030429D02*
X0394485Y0030429D01*
X0394675Y0030431D01*
X0394865Y0030438D01*
X0395055Y0030450D01*
X0395245Y0030466D01*
X0395434Y0030486D01*
X0395623Y0030512D01*
X0395811Y0030541D01*
X0395998Y0030576D01*
X0396184Y0030615D01*
X0396369Y0030658D01*
X0396554Y0030706D01*
X0396737Y0030758D01*
X0396918Y0030814D01*
X0397098Y0030875D01*
X0397277Y0030941D01*
X0397454Y0031010D01*
X0397630Y0031084D01*
X0397803Y0031162D01*
X0397975Y0031245D01*
X0398144Y0031331D01*
X0398312Y0031421D01*
X0398477Y0031516D01*
X0398640Y0031614D01*
X0398800Y0031717D01*
X0398958Y0031823D01*
X0399113Y0031933D01*
X0399266Y0032046D01*
X0399416Y0032164D01*
X0399562Y0032285D01*
X0399706Y0032409D01*
X0399847Y0032537D01*
X0399985Y0032668D01*
X0400120Y0032803D01*
X0400251Y0032941D01*
X0400379Y0033082D01*
X0400503Y0033226D01*
X0400624Y0033372D01*
X0400742Y0033522D01*
X0400855Y0033675D01*
X0400965Y0033830D01*
X0401071Y0033988D01*
X0401174Y0034148D01*
X0401272Y0034311D01*
X0401367Y0034476D01*
X0401457Y0034644D01*
X0401543Y0034813D01*
X0401626Y0034985D01*
X0401704Y0035158D01*
X0401778Y0035334D01*
X0401847Y0035511D01*
X0401913Y0035690D01*
X0401974Y0035870D01*
X0402030Y0036051D01*
X0402082Y0036234D01*
X0402130Y0036419D01*
X0402173Y0036604D01*
X0402212Y0036790D01*
X0402247Y0036977D01*
X0402276Y0037165D01*
X0402302Y0037354D01*
X0402322Y0037543D01*
X0402338Y0037733D01*
X0402350Y0037923D01*
X0402357Y0038113D01*
X0402359Y0038303D01*
X0402359Y0317831D01*
X0402357Y0318021D01*
X0402350Y0318211D01*
X0402338Y0318401D01*
X0402322Y0318591D01*
X0402302Y0318780D01*
X0402276Y0318969D01*
X0402247Y0319157D01*
X0402212Y0319344D01*
X0402173Y0319530D01*
X0402130Y0319715D01*
X0402082Y0319900D01*
X0402030Y0320083D01*
X0401974Y0320264D01*
X0401913Y0320444D01*
X0401847Y0320623D01*
X0401778Y0320800D01*
X0401704Y0320976D01*
X0401626Y0321149D01*
X0401543Y0321321D01*
X0401457Y0321490D01*
X0401367Y0321658D01*
X0401272Y0321823D01*
X0401174Y0321986D01*
X0401071Y0322146D01*
X0400965Y0322304D01*
X0400855Y0322459D01*
X0400742Y0322612D01*
X0400624Y0322762D01*
X0400503Y0322908D01*
X0400379Y0323052D01*
X0400251Y0323193D01*
X0400120Y0323331D01*
X0399985Y0323466D01*
X0399847Y0323597D01*
X0399706Y0323725D01*
X0399562Y0323849D01*
X0399416Y0323970D01*
X0399266Y0324088D01*
X0399113Y0324201D01*
X0398958Y0324311D01*
X0398800Y0324417D01*
X0398640Y0324520D01*
X0398477Y0324618D01*
X0398312Y0324713D01*
X0398144Y0324803D01*
X0397975Y0324889D01*
X0397803Y0324972D01*
X0397630Y0325050D01*
X0397454Y0325124D01*
X0397277Y0325193D01*
X0397098Y0325259D01*
X0396918Y0325320D01*
X0396737Y0325376D01*
X0396554Y0325428D01*
X0396369Y0325476D01*
X0396184Y0325519D01*
X0395998Y0325558D01*
X0395811Y0325593D01*
X0395623Y0325622D01*
X0395434Y0325648D01*
X0395245Y0325668D01*
X0395055Y0325684D01*
X0394865Y0325696D01*
X0394675Y0325703D01*
X0394485Y0325705D01*
X0036217Y0325705D01*
X0036027Y0325703D01*
X0035837Y0325696D01*
X0035647Y0325684D01*
X0035457Y0325668D01*
X0035268Y0325648D01*
X0035079Y0325622D01*
X0034891Y0325593D01*
X0034704Y0325558D01*
X0034518Y0325519D01*
X0034333Y0325476D01*
X0034148Y0325428D01*
X0033965Y0325376D01*
X0033784Y0325320D01*
X0033604Y0325259D01*
X0033425Y0325193D01*
X0033248Y0325124D01*
X0033072Y0325050D01*
X0032899Y0324972D01*
X0032727Y0324889D01*
X0032558Y0324803D01*
X0032390Y0324713D01*
X0032225Y0324618D01*
X0032062Y0324520D01*
X0031902Y0324417D01*
X0031744Y0324311D01*
X0031589Y0324201D01*
X0031436Y0324088D01*
X0031286Y0323970D01*
X0031140Y0323849D01*
X0030996Y0323725D01*
X0030855Y0323597D01*
X0030717Y0323466D01*
X0030582Y0323331D01*
X0030451Y0323193D01*
X0030323Y0323052D01*
X0030199Y0322908D01*
X0030078Y0322762D01*
X0029960Y0322612D01*
X0029847Y0322459D01*
X0029737Y0322304D01*
X0029631Y0322146D01*
X0029528Y0321986D01*
X0029430Y0321823D01*
X0029335Y0321658D01*
X0029245Y0321490D01*
X0029159Y0321321D01*
X0029076Y0321149D01*
X0028998Y0320976D01*
X0028924Y0320800D01*
X0028855Y0320623D01*
X0028789Y0320444D01*
X0028728Y0320264D01*
X0028672Y0320083D01*
X0028620Y0319900D01*
X0028572Y0319715D01*
X0028529Y0319530D01*
X0028490Y0319344D01*
X0028455Y0319157D01*
X0028426Y0318969D01*
X0028400Y0318780D01*
X0028380Y0318591D01*
X0028364Y0318401D01*
X0028352Y0318211D01*
X0028345Y0318021D01*
X0028343Y0317831D01*
X0028343Y0038303D01*
X0028345Y0038113D01*
X0028352Y0037923D01*
X0028364Y0037733D01*
X0028380Y0037543D01*
X0028400Y0037354D01*
X0028426Y0037165D01*
X0028455Y0036977D01*
X0028490Y0036790D01*
X0028529Y0036604D01*
X0028572Y0036419D01*
X0028620Y0036234D01*
X0028672Y0036051D01*
X0028728Y0035870D01*
X0028789Y0035690D01*
X0028855Y0035511D01*
X0028924Y0035334D01*
X0028998Y0035158D01*
X0029076Y0034985D01*
X0029159Y0034813D01*
X0029245Y0034644D01*
X0029335Y0034476D01*
X0029430Y0034311D01*
X0029528Y0034148D01*
X0029631Y0033988D01*
X0029737Y0033830D01*
X0029847Y0033675D01*
X0029960Y0033522D01*
X0030078Y0033372D01*
X0030199Y0033226D01*
X0030323Y0033082D01*
X0030451Y0032941D01*
X0030582Y0032803D01*
X0030717Y0032668D01*
X0030855Y0032537D01*
X0030996Y0032409D01*
X0031140Y0032285D01*
X0031286Y0032164D01*
X0031436Y0032046D01*
X0031589Y0031933D01*
X0031744Y0031823D01*
X0031902Y0031717D01*
X0032062Y0031614D01*
X0032225Y0031516D01*
X0032390Y0031421D01*
X0032558Y0031331D01*
X0032727Y0031245D01*
X0032899Y0031162D01*
X0033072Y0031084D01*
X0033248Y0031010D01*
X0033425Y0030941D01*
X0033604Y0030875D01*
X0033784Y0030814D01*
X0033965Y0030758D01*
X0034148Y0030706D01*
X0034333Y0030658D01*
X0034518Y0030615D01*
X0034704Y0030576D01*
X0034891Y0030541D01*
X0035079Y0030512D01*
X0035268Y0030486D01*
X0035457Y0030466D01*
X0035647Y0030450D01*
X0035837Y0030438D01*
X0036027Y0030431D01*
X0036217Y0030429D01*
M02*
