%
M48
M72
T01C0.0157
T02C0.0197
T03C0.0236
T04C0.0315
T05C0.0354
T06C0.0394
T07C0.0512
T08C0.0787
T09C0.1024
T10C0.1654
%
T01
X28584Y6918
X26584Y6918
X24584Y6918
X22584Y6918
X20959Y6918
X18584Y6918
X19084Y8668
X17459Y11543
X16584Y11543
X18584Y13793
X19709Y13793
X23459Y16168
X23834Y16168
X23834Y18918
X23459Y18918
X22834Y21043
X21834Y21793
X23209Y22418
X23584Y22293
X29584Y18668
X30334Y18918
X30834Y18918
X30834Y18168
X30584Y17793
X29584Y16168
X31834Y13293
X31834Y12793
X32084Y12418
X31084Y12293
X30709Y12418
X27709Y8793
X25584Y8793
X23084Y8793
X34209Y17668
X37334Y17918
X37334Y19168
X25959Y28480
X22897Y28480
X20959Y28480
X19459Y28480
X14959Y28480
X12959Y28480
X10959Y28480
X15459Y21168
X15834Y21168
X16334Y21168
X14709Y20793
X16334Y18918
X16334Y18543
X16334Y18168
X12959Y18168
X12834Y18543
X12584Y18918
X5959Y13543
X5959Y11668
T02
X37584Y21668
X37584Y22043
X37584Y22543
X37584Y22918
T03
X34709Y8668
X33334Y8668
X35834Y11543
X37709Y12293
X37709Y12793
X36834Y15293
X34459Y15918
X32709Y15293
X32709Y14793
X32709Y12418
X29397Y12925
X28897Y12925
X28397Y12925
X27897Y12925
X27397Y12925
X26897Y12925
X26397Y12925
X25897Y12925
X25397Y12925
X24897Y12925
X24397Y12925
X23897Y12925
X23397Y12925
X22691Y12023
X22191Y12023
X22334Y13043
X22959Y14293
X24584Y14293
X25959Y14918
X26959Y14918
X27959Y14918
X28959Y14918
X28959Y16043
X30084Y16418
X27959Y16043
X26959Y16043
X25959Y16043
X24334Y16168
X20959Y13668
X20459Y13668
X19209Y13043
X17709Y12543
X16084Y12043
X15334Y10793
X18334Y9293
X20709Y5918
X23834Y10418
X24459Y10418
X23816Y11398
X23316Y11398
X19334Y16043
X19084Y17543
X19584Y17543
X20334Y20168
X20959Y21293
X19459Y22918
X19459Y24793
X20334Y25793
X20959Y25418
X19459Y26543
X17209Y27168
X17209Y27918
X15084Y26980
X13834Y27293
X12084Y27293
X8834Y27793
X8834Y28293
X7584Y28918
X5459Y27543
X5459Y26043
X8209Y27043
X8709Y23668
X9209Y23668
X11959Y22793
X12459Y22793
X12959Y21918
X14084Y21418
X14584Y21418
X12959Y20418
X14084Y22668
X15334Y23918
X17209Y23668
X17209Y25418
X15584Y25668
X17709Y21418
X23959Y24668
X25334Y24668
X25209Y23918
X25459Y22918
X25959Y22918
X28209Y21418
X30709Y20293
X31209Y20293
X31709Y20293
X32209Y20293
X32709Y20668
X33209Y20668
X34834Y22043
X34834Y22418
X34834Y22793
X34834Y23168
X34334Y23168
X34334Y22793
X35334Y23168
X34834Y24418
X34834Y24918
X33084Y23918
X32584Y23918
X35084Y21668
X35584Y21668
X36959Y21168
X36959Y20668
X36334Y19168
X36334Y18418
X34459Y18668
X31334Y19043
X36959Y23418
X36959Y23918
X38209Y26293
X35959Y29543
X31709Y29793
X28959Y29293
X27834Y28168
X27459Y26793
X27459Y26293
X24334Y19043
X16334Y14668
X15834Y14668
X13709Y16043
X13209Y16043
X10209Y14668
X9834Y14918
X7091Y14982
X7091Y13607
X7084Y11668
X38709Y20043
T04
X36648Y27793
X35270Y27793
X33023Y27793
X31645Y27793
T05
X34334Y6293
X31334Y6293
T06
X7756Y17984
X6771Y17984
X5787Y17984
X5787Y23693
X7756Y23693
X30459Y31043
X31459Y31043
X32459Y31043
X33459Y31043
X34459Y31043
X35459Y31043
T07
X27834Y4668
X25834Y4668
X23834Y4668
X21834Y4668
X19834Y4668
X17834Y4668
X15834Y4668
X13322Y5266
X10959Y4479
X8597Y5266
X8597Y10069
X13322Y10069
X13709Y30855
X11709Y30855
X15709Y30855
X17709Y30855
X19709Y30855
X21709Y30855
X23709Y30855
X25709Y30855
X27709Y30855
T08
X11043Y16704
X11043Y22610
T09
X9015Y20937
X4527Y20937
T10
X38661Y4618
X38661Y30996
X4409Y30996
X4409Y4618
M30
