G75*
%MOIN*%
%OFA0B0*%
%FSLAX25Y25*%
%IPPOS*%
%LPD*%
%AMOC8*
5,1,8,0,0,1.08239X$1,22.5*
%
%ADD10C,0.00591*%
%ADD11C,0.01000*%
%ADD12C,0.00700*%
%ADD13C,0.00600*%
D10*
X0148343Y0031719D02*
X0148343Y0063215D01*
X0288343Y0063215D01*
X0288343Y0031719D01*
X0148343Y0031719D01*
X0148343Y0062929D02*
X0148343Y0085429D01*
X0208343Y0085429D01*
X0208343Y0062929D01*
X0228343Y0062929D02*
X0228343Y0085429D01*
X0208343Y0085429D01*
X0228343Y0085429D02*
X0248343Y0085429D01*
X0248343Y0062929D01*
X0268343Y0062929D02*
X0268343Y0085429D01*
X0248343Y0085429D01*
X0268343Y0085429D02*
X0288343Y0085429D01*
X0288343Y0062929D01*
X0300784Y0062929D02*
X0300792Y0063605D01*
X0300817Y0064281D01*
X0300859Y0064956D01*
X0300917Y0065630D01*
X0300991Y0066303D01*
X0301082Y0066973D01*
X0301190Y0067641D01*
X0301314Y0068305D01*
X0301454Y0068967D01*
X0301610Y0069625D01*
X0301782Y0070279D01*
X0301971Y0070929D01*
X0302175Y0071574D01*
X0302395Y0072213D01*
X0302631Y0072847D01*
X0302882Y0073475D01*
X0303148Y0074097D01*
X0303430Y0074712D01*
X0303727Y0075320D01*
X0304038Y0075920D01*
X0304364Y0076513D01*
X0304705Y0077097D01*
X0305060Y0077673D01*
X0305429Y0078240D01*
X0305811Y0078798D01*
X0306207Y0079346D01*
X0306617Y0079884D01*
X0307040Y0080412D01*
X0307475Y0080930D01*
X0307923Y0081436D01*
X0308383Y0081932D01*
X0308856Y0082416D01*
X0309340Y0082889D01*
X0309836Y0083349D01*
X0310342Y0083797D01*
X0310860Y0084232D01*
X0311388Y0084655D01*
X0311926Y0085065D01*
X0312474Y0085461D01*
X0313032Y0085843D01*
X0313599Y0086212D01*
X0314175Y0086567D01*
X0314759Y0086908D01*
X0315352Y0087234D01*
X0315952Y0087545D01*
X0316560Y0087842D01*
X0317175Y0088124D01*
X0317797Y0088390D01*
X0318425Y0088641D01*
X0319059Y0088877D01*
X0319698Y0089097D01*
X0320343Y0089301D01*
X0320993Y0089490D01*
X0321647Y0089662D01*
X0322305Y0089818D01*
X0322967Y0089958D01*
X0323631Y0090082D01*
X0324299Y0090190D01*
X0324969Y0090281D01*
X0325642Y0090355D01*
X0326316Y0090413D01*
X0326991Y0090455D01*
X0327667Y0090480D01*
X0328343Y0090488D01*
X0329019Y0090480D01*
X0329695Y0090455D01*
X0330370Y0090413D01*
X0331044Y0090355D01*
X0331717Y0090281D01*
X0332387Y0090190D01*
X0333055Y0090082D01*
X0333719Y0089958D01*
X0334381Y0089818D01*
X0335039Y0089662D01*
X0335693Y0089490D01*
X0336343Y0089301D01*
X0336988Y0089097D01*
X0337627Y0088877D01*
X0338261Y0088641D01*
X0338889Y0088390D01*
X0339511Y0088124D01*
X0340126Y0087842D01*
X0340734Y0087545D01*
X0341334Y0087234D01*
X0341927Y0086908D01*
X0342511Y0086567D01*
X0343087Y0086212D01*
X0343654Y0085843D01*
X0344212Y0085461D01*
X0344760Y0085065D01*
X0345298Y0084655D01*
X0345826Y0084232D01*
X0346344Y0083797D01*
X0346850Y0083349D01*
X0347346Y0082889D01*
X0347830Y0082416D01*
X0348303Y0081932D01*
X0348763Y0081436D01*
X0349211Y0080930D01*
X0349646Y0080412D01*
X0350069Y0079884D01*
X0350479Y0079346D01*
X0350875Y0078798D01*
X0351257Y0078240D01*
X0351626Y0077673D01*
X0351981Y0077097D01*
X0352322Y0076513D01*
X0352648Y0075920D01*
X0352959Y0075320D01*
X0353256Y0074712D01*
X0353538Y0074097D01*
X0353804Y0073475D01*
X0354055Y0072847D01*
X0354291Y0072213D01*
X0354511Y0071574D01*
X0354715Y0070929D01*
X0354904Y0070279D01*
X0355076Y0069625D01*
X0355232Y0068967D01*
X0355372Y0068305D01*
X0355496Y0067641D01*
X0355604Y0066973D01*
X0355695Y0066303D01*
X0355769Y0065630D01*
X0355827Y0064956D01*
X0355869Y0064281D01*
X0355894Y0063605D01*
X0355902Y0062929D01*
X0355894Y0062253D01*
X0355869Y0061577D01*
X0355827Y0060902D01*
X0355769Y0060228D01*
X0355695Y0059555D01*
X0355604Y0058885D01*
X0355496Y0058217D01*
X0355372Y0057553D01*
X0355232Y0056891D01*
X0355076Y0056233D01*
X0354904Y0055579D01*
X0354715Y0054929D01*
X0354511Y0054284D01*
X0354291Y0053645D01*
X0354055Y0053011D01*
X0353804Y0052383D01*
X0353538Y0051761D01*
X0353256Y0051146D01*
X0352959Y0050538D01*
X0352648Y0049938D01*
X0352322Y0049345D01*
X0351981Y0048761D01*
X0351626Y0048185D01*
X0351257Y0047618D01*
X0350875Y0047060D01*
X0350479Y0046512D01*
X0350069Y0045974D01*
X0349646Y0045446D01*
X0349211Y0044928D01*
X0348763Y0044422D01*
X0348303Y0043926D01*
X0347830Y0043442D01*
X0347346Y0042969D01*
X0346850Y0042509D01*
X0346344Y0042061D01*
X0345826Y0041626D01*
X0345298Y0041203D01*
X0344760Y0040793D01*
X0344212Y0040397D01*
X0343654Y0040015D01*
X0343087Y0039646D01*
X0342511Y0039291D01*
X0341927Y0038950D01*
X0341334Y0038624D01*
X0340734Y0038313D01*
X0340126Y0038016D01*
X0339511Y0037734D01*
X0338889Y0037468D01*
X0338261Y0037217D01*
X0337627Y0036981D01*
X0336988Y0036761D01*
X0336343Y0036557D01*
X0335693Y0036368D01*
X0335039Y0036196D01*
X0334381Y0036040D01*
X0333719Y0035900D01*
X0333055Y0035776D01*
X0332387Y0035668D01*
X0331717Y0035577D01*
X0331044Y0035503D01*
X0330370Y0035445D01*
X0329695Y0035403D01*
X0329019Y0035378D01*
X0328343Y0035370D01*
X0327667Y0035378D01*
X0326991Y0035403D01*
X0326316Y0035445D01*
X0325642Y0035503D01*
X0324969Y0035577D01*
X0324299Y0035668D01*
X0323631Y0035776D01*
X0322967Y0035900D01*
X0322305Y0036040D01*
X0321647Y0036196D01*
X0320993Y0036368D01*
X0320343Y0036557D01*
X0319698Y0036761D01*
X0319059Y0036981D01*
X0318425Y0037217D01*
X0317797Y0037468D01*
X0317175Y0037734D01*
X0316560Y0038016D01*
X0315952Y0038313D01*
X0315352Y0038624D01*
X0314759Y0038950D01*
X0314175Y0039291D01*
X0313599Y0039646D01*
X0313032Y0040015D01*
X0312474Y0040397D01*
X0311926Y0040793D01*
X0311388Y0041203D01*
X0310860Y0041626D01*
X0310342Y0042061D01*
X0309836Y0042509D01*
X0309340Y0042969D01*
X0308856Y0043442D01*
X0308383Y0043926D01*
X0307923Y0044422D01*
X0307475Y0044928D01*
X0307040Y0045446D01*
X0306617Y0045974D01*
X0306207Y0046512D01*
X0305811Y0047060D01*
X0305429Y0047618D01*
X0305060Y0048185D01*
X0304705Y0048761D01*
X0304364Y0049345D01*
X0304038Y0049938D01*
X0303727Y0050538D01*
X0303430Y0051146D01*
X0303148Y0051761D01*
X0302882Y0052383D01*
X0302631Y0053011D01*
X0302395Y0053645D01*
X0302175Y0054284D01*
X0301971Y0054929D01*
X0301782Y0055579D01*
X0301610Y0056233D01*
X0301454Y0056891D01*
X0301314Y0057553D01*
X0301190Y0058217D01*
X0301082Y0058885D01*
X0300991Y0059555D01*
X0300917Y0060228D01*
X0300859Y0060902D01*
X0300817Y0061577D01*
X0300792Y0062253D01*
X0300784Y0062929D01*
X0348422Y0062929D02*
X0353934Y0062929D01*
X0351178Y0065685D02*
X0351178Y0060173D01*
X0398422Y0124917D02*
X0398422Y0268224D01*
X0105902Y0268224D01*
X0105902Y0124917D01*
X0398422Y0124917D01*
X0383068Y0165705D02*
X0383068Y0253028D01*
X0144879Y0253028D01*
X0144879Y0165705D01*
X0383068Y0165705D01*
X0287093Y0271054D02*
X0247093Y0271054D01*
X0247093Y0292304D01*
X0227093Y0292304D02*
X0227093Y0271054D01*
X0207093Y0271054D01*
X0207093Y0292304D01*
X0207093Y0271054D02*
X0167093Y0271054D01*
X0167093Y0292304D01*
X0147093Y0292304D02*
X0147093Y0271054D01*
X0127093Y0271054D01*
X0127093Y0292304D01*
X0107093Y0292304D02*
X0107093Y0271054D01*
X0127093Y0271054D01*
X0147093Y0271054D02*
X0167093Y0271054D01*
X0227093Y0271054D02*
X0247093Y0271054D01*
X0287093Y0271054D02*
X0287093Y0292304D01*
X0287093Y0292019D02*
X0287093Y0323515D01*
X0107093Y0323515D01*
X0107093Y0292019D01*
X0287093Y0292019D01*
X0299593Y0290429D02*
X0299593Y0302929D01*
X0299593Y0303429D02*
X0299593Y0317429D01*
X0359593Y0317429D01*
X0359593Y0303429D01*
X0299593Y0303429D01*
X0304593Y0300429D02*
X0308343Y0292929D01*
X0300843Y0292929D01*
X0304593Y0300429D01*
X0304488Y0300220D02*
X0304698Y0300220D01*
X0304992Y0299631D02*
X0304194Y0299631D01*
X0303899Y0299042D02*
X0305287Y0299042D01*
X0305581Y0298453D02*
X0303605Y0298453D01*
X0303310Y0297864D02*
X0305876Y0297864D01*
X0306171Y0297274D02*
X0303016Y0297274D01*
X0302721Y0296685D02*
X0306465Y0296685D01*
X0306760Y0296096D02*
X0302427Y0296096D01*
X0302132Y0295507D02*
X0307054Y0295507D01*
X0307349Y0294918D02*
X0301838Y0294918D01*
X0301543Y0294329D02*
X0307643Y0294329D01*
X0307938Y0293740D02*
X0301249Y0293740D01*
X0300954Y0293151D02*
X0308232Y0293151D01*
X0299593Y0290429D02*
X0359593Y0290429D01*
X0359593Y0304179D01*
X0092320Y0235744D02*
X0092320Y0182988D01*
X0043107Y0182988D01*
X0043107Y0235744D01*
X0092320Y0235744D01*
D11*
X0179277Y0116412D02*
X0179277Y0109806D01*
X0178177Y0109806D02*
X0180378Y0109806D01*
X0182842Y0109806D02*
X0185044Y0109806D01*
X0183943Y0109806D02*
X0183943Y0116412D01*
X0185044Y0116412D01*
X0187638Y0113109D02*
X0188739Y0114210D01*
X0190941Y0114210D01*
X0192042Y0113109D01*
X0192042Y0110907D01*
X0190941Y0109806D01*
X0188739Y0109806D01*
X0187638Y0110907D01*
X0187638Y0113109D01*
X0194571Y0114210D02*
X0195671Y0114210D01*
X0197873Y0112008D01*
X0197873Y0109806D02*
X0197873Y0114210D01*
X0200337Y0114210D02*
X0202539Y0114210D01*
X0201438Y0115311D02*
X0201438Y0110907D01*
X0200337Y0109806D01*
X0205133Y0109806D02*
X0205133Y0113109D01*
X0206234Y0114210D01*
X0209537Y0114210D01*
X0209537Y0109806D01*
X0212131Y0110907D02*
X0212131Y0113109D01*
X0213232Y0114210D01*
X0215434Y0114210D01*
X0216535Y0113109D01*
X0216535Y0110907D01*
X0215434Y0109806D01*
X0213232Y0109806D01*
X0212131Y0110907D01*
X0219129Y0110907D02*
X0220230Y0109806D01*
X0222432Y0109806D01*
X0223533Y0110907D01*
X0223533Y0115311D01*
X0222432Y0116412D01*
X0220230Y0116412D01*
X0219129Y0115311D01*
X0233125Y0113109D02*
X0233125Y0109806D01*
X0233125Y0113109D02*
X0234226Y0114210D01*
X0237529Y0114210D01*
X0237529Y0109806D01*
X0240123Y0110907D02*
X0240123Y0113109D01*
X0241224Y0114210D01*
X0243426Y0114210D01*
X0244526Y0113109D01*
X0244526Y0110907D01*
X0243426Y0109806D01*
X0241224Y0109806D01*
X0240123Y0110907D01*
X0246990Y0109806D02*
X0249192Y0109806D01*
X0248091Y0109806D02*
X0248091Y0114210D01*
X0249192Y0114210D01*
X0248091Y0116412D02*
X0248091Y0117513D01*
X0251655Y0114210D02*
X0253857Y0114210D01*
X0252756Y0115311D02*
X0252756Y0110907D01*
X0251655Y0109806D01*
X0256451Y0109806D02*
X0256451Y0113109D01*
X0257552Y0114210D01*
X0259754Y0114210D01*
X0259754Y0112008D02*
X0256451Y0112008D01*
X0256451Y0109806D02*
X0259754Y0109806D01*
X0260855Y0110907D01*
X0259754Y0112008D01*
X0263449Y0109806D02*
X0266752Y0109806D01*
X0267853Y0110907D01*
X0267853Y0113109D01*
X0266752Y0114210D01*
X0263449Y0114210D01*
X0271417Y0114210D02*
X0271417Y0109806D01*
X0272518Y0109806D02*
X0270316Y0109806D01*
X0271417Y0114210D02*
X0272518Y0114210D01*
X0271417Y0116412D02*
X0271417Y0117513D01*
X0275047Y0114210D02*
X0276148Y0114210D01*
X0278350Y0112008D01*
X0278350Y0109806D02*
X0278350Y0114210D01*
X0280944Y0113109D02*
X0280944Y0110907D01*
X0282045Y0109806D01*
X0285348Y0109806D01*
X0285348Y0116412D01*
X0285348Y0114210D02*
X0282045Y0114210D01*
X0280944Y0113109D01*
X0287942Y0114210D02*
X0287942Y0109806D01*
X0291245Y0109806D01*
X0292346Y0110907D01*
X0292346Y0114210D01*
X0294940Y0109806D02*
X0299344Y0109806D01*
X0299344Y0116412D01*
X0309906Y0116412D02*
X0309906Y0109806D01*
X0311007Y0109806D02*
X0308805Y0109806D01*
X0313601Y0109806D02*
X0313601Y0113109D01*
X0314702Y0114210D01*
X0316904Y0114210D01*
X0316904Y0112008D02*
X0313601Y0112008D01*
X0313601Y0109806D02*
X0316904Y0109806D01*
X0318005Y0110907D01*
X0316904Y0112008D01*
X0320534Y0114210D02*
X0321635Y0114210D01*
X0323837Y0112008D01*
X0323837Y0109806D02*
X0323837Y0114210D01*
X0326300Y0114210D02*
X0328502Y0114210D01*
X0327401Y0115311D02*
X0327401Y0110907D01*
X0326300Y0109806D01*
X0331096Y0109806D02*
X0331096Y0113109D01*
X0332197Y0114210D01*
X0335500Y0114210D01*
X0335500Y0109806D01*
X0338094Y0112008D02*
X0338094Y0113109D01*
X0339195Y0114210D01*
X0341397Y0114210D01*
X0342498Y0113109D01*
X0342498Y0110907D01*
X0341397Y0109806D01*
X0339195Y0109806D01*
X0338094Y0112008D02*
X0342498Y0112008D01*
X0345092Y0110907D02*
X0346193Y0109806D01*
X0348395Y0109806D01*
X0349496Y0110907D01*
X0349496Y0115311D01*
X0348395Y0116412D01*
X0346193Y0116412D01*
X0345092Y0115311D01*
X0311007Y0116412D02*
X0309906Y0116412D01*
X0287097Y0100664D02*
X0285996Y0100664D01*
X0285996Y0094058D01*
X0284896Y0094058D02*
X0287097Y0094058D01*
X0289692Y0095159D02*
X0289692Y0097361D01*
X0290793Y0098462D01*
X0292994Y0098462D01*
X0294095Y0097361D01*
X0294095Y0095159D01*
X0292994Y0094058D01*
X0290793Y0094058D01*
X0289692Y0095159D01*
X0296690Y0095159D02*
X0297791Y0094058D01*
X0301093Y0094058D01*
X0299992Y0096260D02*
X0297791Y0096260D01*
X0296690Y0095159D01*
X0296690Y0098462D02*
X0299992Y0098462D01*
X0301093Y0097361D01*
X0299992Y0096260D01*
X0282432Y0095159D02*
X0281331Y0094058D01*
X0278028Y0094058D01*
X0278028Y0100664D01*
X0278028Y0098462D02*
X0281331Y0098462D01*
X0282432Y0097361D01*
X0282432Y0095159D01*
X0275434Y0095159D02*
X0274333Y0094058D01*
X0272131Y0094058D01*
X0271030Y0096260D02*
X0275434Y0096260D01*
X0275434Y0095159D02*
X0275434Y0097361D01*
X0274333Y0098462D01*
X0272131Y0098462D01*
X0271030Y0097361D01*
X0271030Y0096260D01*
X0268436Y0096260D02*
X0266234Y0098462D01*
X0265133Y0098462D01*
X0262605Y0098462D02*
X0262605Y0094058D01*
X0262605Y0098462D02*
X0259302Y0098462D01*
X0258201Y0097361D01*
X0258201Y0094058D01*
X0255607Y0095159D02*
X0255607Y0097361D01*
X0254506Y0098462D01*
X0252304Y0098462D01*
X0251203Y0097361D01*
X0251203Y0096260D01*
X0255607Y0096260D01*
X0255607Y0095159D02*
X0254506Y0094058D01*
X0252304Y0094058D01*
X0248609Y0094058D02*
X0248609Y0098462D01*
X0248609Y0096260D02*
X0246407Y0098462D01*
X0245306Y0098462D01*
X0242777Y0097361D02*
X0241676Y0098462D01*
X0238373Y0098462D01*
X0238373Y0100664D02*
X0238373Y0094058D01*
X0241676Y0094058D01*
X0242777Y0095159D01*
X0242777Y0097361D01*
X0235779Y0095159D02*
X0235779Y0094058D01*
X0234678Y0094058D01*
X0234678Y0095159D01*
X0235779Y0095159D01*
X0232280Y0095159D02*
X0231179Y0094058D01*
X0227876Y0094058D01*
X0225282Y0095159D02*
X0224181Y0094058D01*
X0221979Y0094058D01*
X0220878Y0095159D01*
X0220878Y0097361D01*
X0221979Y0098462D01*
X0224181Y0098462D01*
X0225282Y0097361D01*
X0225282Y0095159D01*
X0227876Y0098462D02*
X0231179Y0098462D01*
X0232280Y0097361D01*
X0232280Y0095159D01*
X0218284Y0094058D02*
X0218284Y0098462D01*
X0217183Y0098462D01*
X0216082Y0097361D01*
X0214981Y0098462D01*
X0213880Y0097361D01*
X0213880Y0094058D01*
X0216082Y0094058D02*
X0216082Y0097361D01*
X0180378Y0116412D02*
X0179277Y0116412D01*
X0175713Y0113109D02*
X0174612Y0114210D01*
X0172410Y0114210D01*
X0171309Y0113109D01*
X0171309Y0112008D01*
X0175713Y0112008D01*
X0175713Y0110907D02*
X0175713Y0113109D01*
X0175713Y0110907D02*
X0174612Y0109806D01*
X0172410Y0109806D01*
X0168715Y0109806D02*
X0168715Y0114210D01*
X0168715Y0112008D02*
X0166513Y0114210D01*
X0165412Y0114210D01*
X0113293Y0102385D02*
X0112093Y0101085D01*
X0109593Y0098585D01*
X0107093Y0070085D02*
X0107093Y0065085D01*
X0107093Y0060085D01*
X0112093Y0060085D02*
X0112093Y0065085D01*
X0112093Y0070085D01*
X0107093Y0070085D01*
X0268436Y0094058D02*
X0268436Y0098462D01*
X0323262Y0293379D02*
X0323262Y0299985D01*
X0319959Y0299985D01*
X0318858Y0298884D01*
X0318858Y0296682D01*
X0319959Y0295581D01*
X0323262Y0295581D01*
X0325856Y0295581D02*
X0326957Y0296682D01*
X0329159Y0296682D01*
X0330260Y0297783D01*
X0330260Y0298884D01*
X0329159Y0299985D01*
X0326957Y0299985D01*
X0325856Y0298884D01*
X0325856Y0295581D02*
X0325856Y0294480D01*
X0326957Y0293379D01*
X0329159Y0293379D01*
X0330260Y0294480D01*
X0332854Y0294480D02*
X0333955Y0293379D01*
X0336157Y0293379D01*
X0337257Y0294480D01*
X0337257Y0298884D01*
X0336157Y0299985D01*
X0333955Y0299985D01*
X0332854Y0298884D01*
X0339721Y0299985D02*
X0341923Y0299985D01*
X0340822Y0299985D02*
X0340822Y0293379D01*
X0341923Y0293379D02*
X0339721Y0293379D01*
D12*
X0283229Y0285170D02*
X0279959Y0285170D01*
X0273660Y0278508D02*
X0274478Y0277691D01*
X0273660Y0278508D02*
X0272026Y0278508D01*
X0271208Y0277691D01*
X0271208Y0276874D01*
X0274478Y0273604D01*
X0271208Y0273604D01*
X0269321Y0276056D02*
X0266052Y0276056D01*
X0264165Y0275239D02*
X0262530Y0273604D01*
X0260896Y0275239D01*
X0260896Y0278508D01*
X0264165Y0278508D02*
X0264165Y0275239D01*
X0266869Y0273604D02*
X0266869Y0278508D01*
X0269321Y0276056D01*
X0253071Y0284806D02*
X0249802Y0284806D01*
X0251437Y0286441D02*
X0251437Y0283171D01*
X0244478Y0278508D02*
X0242026Y0278508D01*
X0241208Y0277691D01*
X0241208Y0274421D01*
X0242026Y0273604D01*
X0244478Y0273604D01*
X0244478Y0278508D01*
X0239321Y0278508D02*
X0236869Y0278508D01*
X0236052Y0277691D01*
X0236052Y0276056D01*
X0236869Y0275239D01*
X0239321Y0275239D01*
X0237687Y0275239D02*
X0236052Y0273604D01*
X0234165Y0275239D02*
X0232530Y0273604D01*
X0230896Y0275239D01*
X0230896Y0278508D01*
X0234165Y0278508D02*
X0234165Y0275239D01*
X0239321Y0273604D02*
X0239321Y0278508D01*
X0224478Y0277691D02*
X0224478Y0274421D01*
X0223660Y0273604D01*
X0222026Y0273604D01*
X0221208Y0274421D01*
X0219321Y0273604D02*
X0219321Y0278508D01*
X0216052Y0273604D01*
X0216052Y0278508D01*
X0214165Y0277691D02*
X0214165Y0274421D01*
X0213348Y0273604D01*
X0211713Y0273604D01*
X0210896Y0274421D01*
X0210896Y0277691D02*
X0211713Y0278508D01*
X0213348Y0278508D01*
X0214165Y0277691D01*
X0221208Y0277691D02*
X0222026Y0278508D01*
X0223660Y0278508D01*
X0224478Y0277691D01*
X0201821Y0282354D02*
X0201821Y0287258D01*
X0198552Y0282354D01*
X0198552Y0287258D01*
X0197615Y0278508D02*
X0200884Y0278508D01*
X0200884Y0273604D01*
X0197615Y0273604D01*
X0195728Y0273604D02*
X0195728Y0278508D01*
X0193276Y0278508D01*
X0192458Y0277691D01*
X0192458Y0276056D01*
X0193276Y0275239D01*
X0195728Y0275239D01*
X0194093Y0275239D02*
X0192458Y0273604D01*
X0190571Y0273604D02*
X0190571Y0278508D01*
X0188119Y0278508D01*
X0187302Y0277691D01*
X0187302Y0276056D01*
X0188119Y0275239D01*
X0190571Y0275239D01*
X0188937Y0275239D02*
X0187302Y0273604D01*
X0185415Y0274421D02*
X0185415Y0277691D01*
X0184598Y0278508D01*
X0182963Y0278508D01*
X0182146Y0277691D01*
X0182146Y0274421D01*
X0182963Y0273604D01*
X0184598Y0273604D01*
X0185415Y0274421D01*
X0180259Y0273604D02*
X0180259Y0278508D01*
X0177807Y0278508D01*
X0176989Y0277691D01*
X0176989Y0276056D01*
X0177807Y0275239D01*
X0180259Y0275239D01*
X0178624Y0275239D02*
X0176989Y0273604D01*
X0175571Y0282354D02*
X0175571Y0287258D01*
X0173119Y0287258D01*
X0172302Y0286441D01*
X0172302Y0284806D01*
X0173119Y0283989D01*
X0175571Y0283989D01*
X0159321Y0278508D02*
X0156052Y0278508D01*
X0156052Y0277691D01*
X0159321Y0274421D01*
X0159321Y0273604D01*
X0156052Y0273604D01*
X0139321Y0277691D02*
X0137687Y0276056D01*
X0137687Y0273604D01*
X0137687Y0276056D02*
X0136052Y0277691D01*
X0136052Y0278508D01*
X0139321Y0278508D02*
X0139321Y0277691D01*
X0118071Y0278508D02*
X0114802Y0273604D01*
X0118071Y0273604D02*
X0114802Y0278508D01*
X0199249Y0276056D02*
X0200884Y0276056D01*
X0201323Y0081633D02*
X0200506Y0080816D01*
X0200506Y0079181D01*
X0201323Y0078364D01*
X0203775Y0078364D01*
X0203775Y0076729D02*
X0203775Y0081633D01*
X0201323Y0081633D01*
X0198619Y0081633D02*
X0198619Y0077546D01*
X0197801Y0076729D01*
X0196167Y0076729D01*
X0195349Y0077546D01*
X0195349Y0081633D01*
X0193462Y0081633D02*
X0191828Y0079999D01*
X0190193Y0081633D01*
X0190193Y0076729D01*
X0188306Y0076729D02*
X0188306Y0081633D01*
X0185854Y0081633D01*
X0185037Y0080816D01*
X0185037Y0079181D01*
X0185854Y0078364D01*
X0188306Y0078364D01*
X0193462Y0076729D02*
X0193462Y0081633D01*
X0192680Y0072883D02*
X0189411Y0072883D01*
X0191046Y0070431D02*
X0192680Y0070431D01*
X0192680Y0067979D02*
X0192680Y0072883D01*
X0194567Y0072883D02*
X0197837Y0072883D01*
X0197837Y0067979D01*
X0199724Y0068796D02*
X0199724Y0072066D01*
X0200541Y0072883D01*
X0202176Y0072883D01*
X0202993Y0072066D01*
X0202993Y0068796D01*
X0202176Y0067979D01*
X0200541Y0067979D01*
X0199724Y0068796D01*
X0197837Y0070431D02*
X0196202Y0070431D01*
X0212380Y0076729D02*
X0215649Y0076729D01*
X0215649Y0081633D01*
X0217452Y0081633D02*
X0219087Y0081633D01*
X0218269Y0081633D02*
X0218269Y0076729D01*
X0217452Y0076729D02*
X0219087Y0076729D01*
X0220974Y0077546D02*
X0220974Y0080816D01*
X0221791Y0081633D01*
X0223426Y0081633D01*
X0224243Y0080816D01*
X0224243Y0077546D01*
X0223426Y0076729D01*
X0221791Y0076729D01*
X0220974Y0077546D01*
X0230661Y0076729D02*
X0233930Y0076729D01*
X0232296Y0076729D02*
X0232296Y0081633D01*
X0233930Y0079999D01*
X0235817Y0080816D02*
X0235817Y0079181D01*
X0236635Y0078364D01*
X0239087Y0078364D01*
X0239087Y0076729D02*
X0239087Y0081633D01*
X0236635Y0081633D01*
X0235817Y0080816D01*
X0237452Y0078364D02*
X0235817Y0076729D01*
X0240974Y0079181D02*
X0241791Y0078364D01*
X0244243Y0078364D01*
X0244243Y0076729D02*
X0244243Y0081633D01*
X0241791Y0081633D01*
X0240974Y0080816D01*
X0240974Y0079181D01*
X0251911Y0079999D02*
X0251911Y0080816D01*
X0252728Y0081633D01*
X0254363Y0081633D01*
X0255180Y0080816D01*
X0257067Y0080816D02*
X0257067Y0079181D01*
X0257885Y0078364D01*
X0260337Y0078364D01*
X0260337Y0076729D02*
X0260337Y0081633D01*
X0257885Y0081633D01*
X0257067Y0080816D01*
X0258702Y0078364D02*
X0257067Y0076729D01*
X0255180Y0076729D02*
X0251911Y0079999D01*
X0251911Y0076729D02*
X0255180Y0076729D01*
X0262224Y0079181D02*
X0263041Y0078364D01*
X0265493Y0078364D01*
X0265493Y0076729D02*
X0265493Y0081633D01*
X0263041Y0081633D01*
X0262224Y0080816D01*
X0262224Y0079181D01*
X0271911Y0078364D02*
X0271911Y0077546D01*
X0272728Y0076729D01*
X0274363Y0076729D01*
X0275180Y0077546D01*
X0277067Y0076729D02*
X0278702Y0078364D01*
X0277885Y0078364D02*
X0280337Y0078364D01*
X0280337Y0076729D02*
X0280337Y0081633D01*
X0277885Y0081633D01*
X0277067Y0080816D01*
X0277067Y0079181D01*
X0277885Y0078364D01*
X0275180Y0080816D02*
X0274363Y0081633D01*
X0272728Y0081633D01*
X0271911Y0080816D01*
X0271911Y0079999D01*
X0272728Y0079181D01*
X0271911Y0078364D01*
X0272728Y0079181D02*
X0273546Y0079181D01*
X0282224Y0079181D02*
X0283041Y0078364D01*
X0285493Y0078364D01*
X0285493Y0076729D02*
X0285493Y0081633D01*
X0283041Y0081633D01*
X0282224Y0080816D01*
X0282224Y0079181D01*
X0177993Y0078364D02*
X0175541Y0078364D01*
X0174724Y0079181D01*
X0174724Y0080816D01*
X0175541Y0081633D01*
X0177993Y0081633D01*
X0177993Y0076729D01*
X0176359Y0078364D02*
X0174724Y0076729D01*
X0172837Y0076729D02*
X0169567Y0076729D01*
X0167680Y0076729D02*
X0164411Y0076729D01*
X0162524Y0076729D02*
X0162524Y0079999D01*
X0160889Y0081633D01*
X0159255Y0079999D01*
X0159255Y0076729D01*
X0159255Y0079181D02*
X0162524Y0079181D01*
X0157368Y0080816D02*
X0157368Y0081633D01*
X0157368Y0080816D02*
X0155733Y0079181D01*
X0155733Y0076729D01*
X0155733Y0079181D02*
X0154098Y0080816D01*
X0154098Y0081633D01*
X0155817Y0072883D02*
X0155817Y0067979D01*
X0159087Y0072883D01*
X0159087Y0067979D01*
X0160974Y0068796D02*
X0160974Y0072066D01*
X0161791Y0072883D01*
X0163426Y0072883D01*
X0164243Y0072066D01*
X0164243Y0068796D01*
X0163426Y0067979D01*
X0161791Y0067979D01*
X0160974Y0068796D01*
X0167680Y0076729D02*
X0167680Y0081633D01*
X0169567Y0081633D02*
X0172837Y0081633D01*
X0172837Y0076729D01*
X0172837Y0079181D02*
X0171202Y0079181D01*
D13*
X0141089Y0037309D02*
X0078097Y0037309D01*
X0078097Y0116049D01*
X0141089Y0116049D01*
X0141089Y0037309D01*
X0133093Y0062585D02*
X0133093Y0065085D01*
X0112093Y0065085D01*
X0112093Y0070085D02*
X0107093Y0060085D01*
X0112093Y0060085D01*
X0109593Y0057585D02*
X0109593Y0053585D01*
X0107093Y0065085D02*
X0086093Y0065085D01*
X0086093Y0062585D01*
X0109593Y0072585D02*
X0109593Y0098585D01*
X0107093Y0101085D02*
X0094793Y0101085D01*
X0112093Y0101085D02*
X0124293Y0101085D01*
X0081225Y0185513D02*
X0081225Y0189916D01*
X0079023Y0189916D01*
X0078289Y0189182D01*
X0078289Y0187714D01*
X0079023Y0186981D01*
X0081225Y0186981D01*
X0081225Y0191418D02*
X0079023Y0191418D01*
X0078289Y0192152D01*
X0078289Y0192886D01*
X0079023Y0193620D01*
X0081225Y0193620D01*
X0079023Y0193620D02*
X0078289Y0194354D01*
X0078289Y0195088D01*
X0079023Y0195822D01*
X0081225Y0195822D01*
X0081225Y0191418D01*
X0076621Y0192152D02*
X0076621Y0195088D01*
X0075887Y0195822D01*
X0074419Y0195822D01*
X0073685Y0195088D01*
X0073685Y0192152D01*
X0074419Y0191418D01*
X0075887Y0191418D01*
X0076621Y0192152D01*
X0076621Y0189916D02*
X0076621Y0185513D01*
X0073685Y0185513D01*
X0072017Y0186247D02*
X0072017Y0189182D01*
X0071283Y0189916D01*
X0069815Y0189916D01*
X0069081Y0189182D01*
X0067413Y0188448D02*
X0065945Y0189916D01*
X0065945Y0185513D01*
X0067413Y0185513D02*
X0064477Y0185513D01*
X0062809Y0185513D02*
X0059874Y0185513D01*
X0061341Y0185513D02*
X0061341Y0189916D01*
X0062809Y0188448D01*
X0062809Y0191418D02*
X0062809Y0195822D01*
X0059874Y0191418D01*
X0059874Y0195822D01*
X0058205Y0195088D02*
X0058205Y0194354D01*
X0057471Y0193620D01*
X0056004Y0193620D01*
X0055270Y0192886D01*
X0055270Y0192152D01*
X0056004Y0191418D01*
X0057471Y0191418D01*
X0058205Y0192152D01*
X0058205Y0189916D02*
X0056004Y0189916D01*
X0055270Y0189182D01*
X0055270Y0187714D01*
X0056004Y0186981D01*
X0058205Y0186981D01*
X0056738Y0186981D02*
X0055270Y0185513D01*
X0058205Y0185513D02*
X0058205Y0189916D01*
X0064477Y0191418D02*
X0065945Y0192886D01*
X0065211Y0192886D02*
X0067413Y0192886D01*
X0067413Y0191418D02*
X0067413Y0195822D01*
X0065211Y0195822D01*
X0064477Y0195088D01*
X0064477Y0193620D01*
X0065211Y0192886D01*
X0069081Y0192152D02*
X0069081Y0195822D01*
X0072017Y0195822D02*
X0072017Y0192152D01*
X0071283Y0191418D01*
X0069815Y0191418D01*
X0069081Y0192152D01*
X0073685Y0189916D02*
X0076621Y0189916D01*
X0076621Y0187714D02*
X0075153Y0187714D01*
X0072017Y0186247D02*
X0071283Y0185513D01*
X0069815Y0185513D01*
X0069081Y0186247D01*
X0058205Y0195088D02*
X0057471Y0195822D01*
X0056004Y0195822D01*
X0055270Y0195088D01*
X0062175Y0224883D02*
X0065111Y0224883D01*
X0063643Y0224883D02*
X0063643Y0229286D01*
X0065111Y0227819D01*
X0066779Y0229286D02*
X0066779Y0224883D01*
X0068247Y0226351D01*
X0069715Y0224883D01*
X0069715Y0229286D01*
X0071383Y0228552D02*
X0072117Y0229286D01*
X0073585Y0229286D01*
X0074319Y0228552D01*
X0074319Y0227819D01*
X0073585Y0227085D01*
X0072117Y0227085D01*
X0071383Y0226351D01*
X0071383Y0225617D01*
X0072117Y0224883D01*
X0073585Y0224883D01*
X0074319Y0225617D01*
X0293850Y0177121D02*
X0293850Y0172717D01*
X0295318Y0174185D01*
X0296786Y0172717D01*
X0296786Y0177121D01*
X0298454Y0177121D02*
X0299922Y0176387D01*
X0301390Y0174919D01*
X0299188Y0174919D01*
X0298454Y0174185D01*
X0298454Y0173451D01*
X0299188Y0172717D01*
X0300656Y0172717D01*
X0301390Y0173451D01*
X0301390Y0174919D01*
X0303058Y0174919D02*
X0305994Y0174919D01*
X0305994Y0175653D02*
X0304526Y0177121D01*
X0303058Y0175653D01*
X0303058Y0172717D01*
X0305994Y0172717D02*
X0305994Y0175653D01*
X0307662Y0174919D02*
X0307662Y0173451D01*
X0308396Y0172717D01*
X0309864Y0172717D01*
X0310598Y0173451D01*
X0310598Y0174919D02*
X0309130Y0175653D01*
X0308396Y0175653D01*
X0307662Y0174919D01*
X0307662Y0177121D02*
X0310598Y0177121D01*
X0310598Y0174919D01*
X0312266Y0176387D02*
X0312266Y0173451D01*
X0313000Y0172717D01*
X0314468Y0172717D01*
X0315202Y0173451D01*
X0312266Y0176387D01*
X0313000Y0177121D01*
X0314468Y0177121D01*
X0315202Y0176387D01*
X0315202Y0173451D01*
X0316870Y0173451D02*
X0317604Y0172717D01*
X0319072Y0172717D01*
X0319806Y0173451D01*
X0316870Y0176387D01*
X0316870Y0173451D01*
X0319806Y0173451D02*
X0319806Y0176387D01*
X0319072Y0177121D01*
X0317604Y0177121D01*
X0316870Y0176387D01*
X0321474Y0176387D02*
X0321474Y0175653D01*
X0324409Y0172717D01*
X0321474Y0172717D01*
X0321474Y0176387D02*
X0322208Y0177121D01*
X0323676Y0177121D01*
X0324409Y0176387D01*
X0326078Y0174919D02*
X0329013Y0174919D01*
X0326812Y0177121D01*
X0326812Y0172717D01*
X0330681Y0173451D02*
X0330681Y0174919D01*
X0332149Y0174919D01*
X0330681Y0173451D02*
X0331415Y0172717D01*
X0332883Y0172717D01*
X0333617Y0173451D01*
X0333617Y0176387D01*
X0332883Y0177121D01*
X0331415Y0177121D01*
X0330681Y0176387D01*
X0335285Y0176387D02*
X0335285Y0173451D01*
X0336019Y0172717D01*
X0337487Y0172717D01*
X0338221Y0173451D01*
X0338221Y0176387D01*
X0337487Y0177121D01*
X0336019Y0177121D01*
X0335285Y0176387D01*
X0339889Y0176387D02*
X0340623Y0177121D01*
X0342091Y0177121D01*
X0342825Y0176387D01*
X0342825Y0173451D01*
X0342091Y0172717D01*
X0340623Y0172717D01*
X0339889Y0173451D01*
X0344493Y0173451D02*
X0345227Y0172717D01*
X0346695Y0172717D01*
X0347429Y0173451D01*
X0347429Y0176387D01*
X0346695Y0177121D01*
X0345227Y0177121D01*
X0344493Y0176387D01*
X0349097Y0177121D02*
X0349097Y0172717D01*
X0352033Y0172717D02*
X0352033Y0177121D01*
X0350565Y0175653D01*
X0349097Y0177121D01*
X0358305Y0176387D02*
X0359039Y0177121D01*
X0360507Y0177121D01*
X0361241Y0176387D01*
X0361241Y0175653D01*
X0360507Y0174919D01*
X0359039Y0174919D01*
X0358305Y0174185D01*
X0358305Y0173451D01*
X0359039Y0172717D01*
X0360507Y0172717D01*
X0361241Y0173451D01*
X0362909Y0172717D02*
X0362909Y0175653D01*
X0364377Y0177121D01*
X0365845Y0175653D01*
X0365845Y0172717D01*
X0367513Y0173451D02*
X0367513Y0176387D01*
X0368247Y0177121D01*
X0370449Y0177121D01*
X0370449Y0172717D01*
X0368247Y0172717D01*
X0367513Y0173451D01*
X0365845Y0174919D02*
X0362909Y0174919D01*
X0362842Y0182717D02*
X0362842Y0187121D01*
X0364310Y0185653D01*
X0365978Y0186387D02*
X0366712Y0187121D01*
X0368914Y0187121D01*
X0368914Y0182717D01*
X0366712Y0182717D01*
X0365978Y0183451D01*
X0365978Y0186387D01*
X0364310Y0182717D02*
X0361374Y0182717D01*
X0370582Y0183451D02*
X0371316Y0182717D01*
X0372784Y0182717D01*
X0373518Y0183451D01*
X0373518Y0186387D01*
X0372784Y0187121D01*
X0371316Y0187121D01*
X0370582Y0186387D01*
X0375186Y0182717D02*
X0378122Y0182717D01*
X0378122Y0187121D01*
X0378122Y0177121D02*
X0376654Y0175653D01*
X0375186Y0177121D01*
X0375186Y0172717D01*
X0373518Y0172717D02*
X0372050Y0172717D01*
X0372784Y0172717D02*
X0372784Y0177121D01*
X0373518Y0177121D02*
X0372050Y0177121D01*
X0378122Y0177121D02*
X0378122Y0172717D01*
M02*
